<svg version="1.2" xmlns="http://www.w3.org/2000/svg" viewBox="0 0 824 680" width="824" height="680">
	<title>bgother-svg</title>
	<defs>
		<linearGradient id="g1" x1="486.8" y1="315.8" x2="558.5" y2="361.9" gradientUnits="userSpaceOnUse">
			<stop offset="0" stop-color="#ffffff"/>
			<stop offset="1" stop-color="#438be3"/>
		</linearGradient>
		<linearGradient id="g2" x1="316.8" y1="18.5" x2="46.2" y2="669.1" gradientUnits="userSpaceOnUse">
			<stop offset="0" stop-color="#2693d1"/>
			<stop offset=".2" stop-color="#238bca"/>
			<stop offset=".4" stop-color="#1b75b6"/>
			<stop offset=".7" stop-color="#0f5195"/>
			<stop offset="1" stop-color="#002770"/>
		</linearGradient>
		<linearGradient id="g3" x1="-91.4" y1="-22.5" x2="-33.5" y2="331.2" gradientUnits="userSpaceOnUse">
			<stop offset="0" stop-color="#2693d1"/>
			<stop offset=".2" stop-color="#238bca"/>
			<stop offset=".4" stop-color="#1b75b6"/>
			<stop offset=".7" stop-color="#0f5195"/>
			<stop offset="1" stop-color="#002770"/>
		</linearGradient>
		<linearGradient id="g4" x1="242.1" y1="115.3" x2="234.7" y2="129.5" gradientUnits="userSpaceOnUse">
			<stop offset="0" stop-color="#ffffff"/>
			<stop offset="1" stop-color="#438be3"/>
		</linearGradient>
		<linearGradient id="g5" x1="79.7" y1="566.1" x2="151.4" y2="612.2" gradientUnits="userSpaceOnUse">
			<stop offset="0" stop-color="#ffffff"/>
			<stop offset="1" stop-color="#438be3"/>
		</linearGradient>
		<linearGradient id="g6" x1="573.6" y1="563.1" x2="793.9" y2="563.1" gradientUnits="userSpaceOnUse">
			<stop offset="0" stop-color="#ffffff"/>
			<stop offset="1" stop-color="#438be3"/>
		</linearGradient>
		<linearGradient id="g7" x1="661.7" y1="266.6" x2="932.2" y2="917.2" gradientUnits="userSpaceOnUse">
			<stop offset="0" stop-color="#2693d1"/>
			<stop offset=".2" stop-color="#238bca"/>
			<stop offset=".4" stop-color="#1b75b6"/>
			<stop offset=".7" stop-color="#0f5195"/>
			<stop offset="1" stop-color="#002770"/>
		</linearGradient>
		<linearGradient id="g8" x1="695.9" y1="225.6" x2="753.9" y2="579.3" gradientUnits="userSpaceOnUse">
			<stop offset="0" stop-color="#2693d1"/>
			<stop offset=".2" stop-color="#238bca"/>
			<stop offset=".4" stop-color="#1b75b6"/>
			<stop offset=".7" stop-color="#0f5195"/>
			<stop offset="1" stop-color="#002770"/>
		</linearGradient>
		<linearGradient id="g9" x1="736.4" y1="363.4" x2="743.7" y2="377.6" gradientUnits="userSpaceOnUse">
			<stop offset="0" stop-color="#ffffff"/>
			<stop offset="1" stop-color="#438be3"/>
		</linearGradient>
		<linearGradient id="g10" x1="588.2" y1="163.3" x2="580.8" y2="177.5" gradientUnits="userSpaceOnUse">
			<stop offset="0" stop-color="#ffffff"/>
			<stop offset="1" stop-color="#438be3"/>
		</linearGradient>
		<linearGradient id="g11" x1="181" y1="413.6" x2="173.7" y2="427.8" gradientUnits="userSpaceOnUse">
			<stop offset="0" stop-color="#ffffff"/>
			<stop offset="1" stop-color="#438be3"/>
		</linearGradient>
	</defs>
	<style>
		.s0 { fill: #f1f8ff } 
		.s1 { opacity: .2;mix-blend-mode: multiply;fill: #2a71c9 } 
		.s2 { opacity: .3;mix-blend-mode: multiply;fill: #2a71c9 } 
		.s3 { fill: #ffffff } 
		.s4 { opacity: .2;mix-blend-mode: multiply;fill: url(#g1) } 
		.s5 { opacity: .2;mix-blend-mode: multiply;fill: #438be3 } 
		.s6 { fill: url(#g2) } 
		.s7 { fill: url(#g3) } 
		.s8 { opacity: .2;mix-blend-mode: multiply;fill: url(#g4) } 
		.s9 { opacity: .2;mix-blend-mode: multiply;fill: url(#g5) } 
		.s10 { opacity: .2;mix-blend-mode: multiply;fill: url(#g6) } 
		.s11 { fill: url(#g7) } 
		.s12 { fill: url(#g8) } 
		.s13 { opacity: .2;mix-blend-mode: multiply;fill: url(#g9) } 
		.s14 { fill: #ff0077 } 
		.s15 { opacity: .5;mix-blend-mode: multiply;fill: #438be3 } 
		.s16 { opacity: .3;mix-blend-mode: multiply;fill: #438be3 } 
		.s17 { opacity: .4;mix-blend-mode: multiply;fill: #438be3 } 
		.s18 { fill: #d90051 } 
		.s19 { fill: #cd0045 } 
		.s20 { fill: #438be3 } 
		.s21 { fill: #1d65bd } 
		.s22 { fill: #d9a782 } 
		.s23 { fill: #367ed6 } 
		.s24 { fill: #5da5fd } 
		.s25 { fill: #448ce4 } 
		.s26 { fill: #ffcda8 } 
		.s27 { fill: #6d2d10 } 
		.s28 { fill: #e54b5a } 
		.s29 { fill: #cc3241 } 
		.s30 { fill: #044ca4 } 
		.s31 { fill: #412999 } 
		.s32 { fill: #281080 } 
		.s33 { fill: #001135 } 
		.s34 { fill: #1058b0 } 
		.s35 { fill: #2971c9 } 
		.s36 { fill: #e6f6ff } 
		.s37 { fill: #b00052 } 
		.s38 { fill: #fdfdfd } 
		.s39 { fill: #f1a882 } 
		.s40 { fill: #eef5f9 } 
		.s41 { fill: #034ba3 } 
		.s42 { fill: #1c64bc } 
		.s43 { fill: #5098f0 } 
		.s44 { fill: #f2a983 } 
		.s45 { fill: #d88f69 } 
		.s46 { fill: #e6dbc9 } 
		.s47 { opacity: .1;mix-blend-mode: multiply;fill: #438be3 } 
		.s48 { opacity: .2;mix-blend-mode: multiply;fill: url(#g10) } 
		.s49 { opacity: .2;mix-blend-mode: multiply;fill: url(#g11) } 
	</style>
	<g id="Layer">
		<g id="Слой_2">
			<g id="Layer_1">
				<g id="Layer">
					<path id="Layer" class="s0" d="m793.2 83.8v572l-47.5 27.4-47.4-27.4v-572l47.4-27.4 47.5 27.4z"/>
					<path id="Layer" class="s1" d="m793.2 655.8l-47.5 27.4v-572l47.5-27.4v572z"/>
					<path id="Layer" class="s2" d="m745.8 111.2v572l-47.5-27.4v-572l47.5 27.4z"/>
				</g>
				<g id="Layer">
					<path id="Layer" class="s0" d="m512.4 33.2v306.7l-25.4 14.7-25.4-14.7v-306.7l25.4-14.6 25.4 14.6z"/>
					<path id="Layer" class="s1" d="m512.4 339.9l-25.4 14.7v-306.7l25.4-14.7v306.7z"/>
					<path id="Layer" class="s2" d="m487 47.9v306.7l-25.4-14.7v-306.7l25.4 14.7z"/>
				</g>
				<g id="Layer">
					<path id="Layer" class="s0" d="m380.6 14.7v306.6l-25.4 14.7-25.4-14.7v-306.6l25.4-14.7 25.4 14.7z"/>
					<path id="Layer" class="s1" d="m380.6 321.3l-25.4 14.7v-306.6l25.4-14.7v306.6z"/>
					<path id="Layer" class="s2" d="m355.2 29.4v306.6l-25.4-14.7v-306.6l25.4 14.6z"/>
				</g>
				<g id="Layer">
					<path id="Layer" class="s0" d="m124.7 83.8v572l-47.4 27.4-47.4-27.4v-572l47.4-27.4 47.4 27.4z"/>
					<path id="Layer" class="s1" d="m124.7 655.8l-47.4 27.4v-572l47.4-27.4v572z"/>
					<path id="Layer" class="s2" d="m77.3 111.2v572l-47.4-27.4v-572l47.4 27.4z"/>
				</g>
				<path id="Layer" class="s3" d="m501.1 169.1v810.9h-181.3v-810.9l90.6-52.3 90.7 52.3z"/>
				<path id="Layer" class="s1" d="m501.1 169.1v810.9h-90.7v-758.6l90.7-52.3z"/>
				<path id="Layer" class="s2" d="m410.4 221.4l0.1 758.6h-90.7v-810.9l90.7 52.3z"/>
				<path id="Layer" class="s3" d="m664.8 342.1v637.9h-249.4v-637.9l124.7-72 124.7 72z"/>
				<path id="Layer" class="s1" d="m664.8 342.1v637.9h-124.7v-565.9l124.7-72z"/>
				<path id="Layer" class="s2" d="m540.1 414.1v565.9h-124.7v-637.9l124.7 72z"/>
				<path id="Layer" class="s4" d="m633 338.3l11.1 6.4-98.2 56.6h-28l-102.5-59.2 6.6-3.8h211z"/>
				<path id="Layer" class="s3" d="m404.8 342.1v637.9h-249.4v-637.9l124.7-72 124.7 72z"/>
				<path id="Layer" class="s1" d="m404.8 342.1v637.9h-124.7v-565.9l124.7-72z"/>
				<path id="Layer" class="s2" d="m280.1 414.1v565.9h-124.7v-637.9l124.7 72z"/>
				<path id="Layer" class="s5" d="m286 289.2l11.1 6.4-98.1 56.6h-26.1l-17.5-10.1 91.7-52.9h38.9z"/>
				<path id="Layer" class="s3" d="m299.9 264.9c0 6.2-4.4 13.8-9.8 16.9l-86 49.7c-5.3 3-9.7 0.5-9.7-5.7v-218.9c0-6.2 4.4-13.8 9.8-16.9l86-49.6c5.3-3.1 9.7-0.6 9.7 5.6z"/>
				<path id="Layer" class="s6" d="m299.9 264.9c0 6.2-4.4 13.8-9.8 16.9l-86 49.7c-5.3 3-9.7 0.5-9.7-5.7v-218.9c0-6.2 4.4-13.8 9.8-16.9l86-49.6c5.3-3.1 9.7-0.6 9.7 5.6z"/>
				<path id="Layer" class="s7" d="m198.1 326.5v-218.9c0-5.3 3.9-12.1 8.5-14.7l86-49.7q0.3-0.2 0.7-0.4 0.4-0.1 0.8-0.3 0.3-0.1 0.8-0.2 0.4 0 0.8-0.1c2.6 0 2.8 3.1 2.8 4.5v218.8c0 5.4-3.9 12.1-8.4 14.7l-86 49.7q-0.4 0.2-0.8 0.4-0.3 0.2-0.7 0.3-0.4 0.1-0.8 0.2-0.4 0.1-0.8 0.1c-2.6 0-2.9-3.1-2.9-4.4z"/>
				<path id="Layer" class="s3" d="m196.7 331.9l-9.2-5.2c-1.8-1-2.9-3.2-2.9-6.3v-218.9c0-6.2 4.4-13.8 9.7-16.9l86-49.7c2.5-1.4 4.8-1.7 6.5-0.9l10 5.7c-1.7-0.9-4.1-0.7-6.7 0.8l-86 49.6c-5.3 3.1-9.7 10.7-9.7 16.9v218.9c0 2.7 0.9 4.7 2.3 6z"/>
				<path id="Layer" class="s8" d="m196.7 331.9l-9.2-5.2c-1.8-1-2.9-3.2-2.9-6.3v-218.9c0-6.2 4.4-13.8 9.7-16.9l86-49.7c2.5-1.4 4.8-1.7 6.5-0.9l10 5.7c-1.7-0.9-4.1-0.7-6.7 0.8l-86 49.6c-5.3 3.1-9.7 10.7-9.7 16.9v218.9c0 2.7 0.9 4.7 2.3 6z"/>
				<path id="Layer" class="s3" d="m249.4 587.6v392.4h-249.4v-392.4l124.7-72 124.7 72z"/>
				<path id="Layer" class="s1" d="m249.4 587.6v392.4h-124.7v-320.4l124.7-72z"/>
				<path id="Layer" class="s2" d="m124.7 659.6v320.4h-124.7v-392.4l124.7 72z"/>
				<path id="Layer" class="s9" d="m225.9 588.5l11 6.4-98.1 56.7h-28l-102.5-59.2 6.6-3.9h211z"/>
				<path id="Layer" class="s3" d="m823 587.6v392.4h-249.4v-392.4l124.7-72 124.7 72z"/>
				<path id="Layer" class="s2" d="m698.3 659.6v320.4h-124.6v-392.4l124.6 72z"/>
				<path id="Layer" class="s1" d="m823 587.6v392.4h-124.7v-320.4l124.7-72z"/>
				<path id="Layer" class="s10" d="m793.9 584.5l-17.5 10.1h-190.6l-12.2-7 97.1-56h31.5l91.7 52.9z"/>
				<path id="Layer" class="s3" d="m678.6 294.1c0-6.2 4.3-8.7 9.7-5.6l86 49.7c5.4 3.1 9.8 10.7 9.8 16.9v218.9c0 6.2-4.4 8.7-9.8 5.6l-86-49.6c-5.4-3.1-9.7-10.7-9.7-16.9z"/>
				<path id="Layer" class="s11" d="m678.6 294.1c0-6.2 4.3-8.7 9.7-5.6l86 49.7c5.4 3.1 9.8 10.7 9.8 16.9v218.9c0 6.2-4.4 8.7-9.8 5.6l-86-49.6c-5.4-3.1-9.7-10.7-9.7-16.9z"/>
				<path id="Layer" class="s12" d="m777.5 579q-0.4 0-0.8-0.1-0.4-0.1-0.8-0.2-0.4-0.1-0.7-0.3-0.4-0.2-0.8-0.4l-86-49.7c-4.6-2.6-8.4-9.3-8.4-14.7v-218.8c0-1.4 0.2-4.5 2.8-4.5q0.4 0.1 0.8 0.2 0.5 0 0.8 0.2 0.4 0.1 0.8 0.3 0.4 0.1 0.7 0.3l86 49.7c4.6 2.7 8.5 9.4 8.5 14.7v218.9c0 1.3-0.3 4.4-2.9 4.4z"/>
				<path id="Layer" class="s3" d="m784.1 574v-218.9c0-6.2-4.4-13.8-9.8-16.9l-86-49.7c-2.6-1.5-4.9-1.7-6.7-0.7l10-5.7c1.7-0.8 4-0.6 6.5 0.8l86 49.7c5.4 3.1 9.8 10.7 9.8 16.9v218.9c0 3.1-1.2 5.3-3 6.3l-9.2 5.2c1.5-1.1 2.4-3.2 2.4-5.9z"/>
				<path id="Layer" class="s13" d="m784.1 574v-218.9c0-6.2-4.4-13.8-9.8-16.9l-86-49.7c-2.6-1.5-4.9-1.7-6.7-0.7l10-5.7c1.7-0.8 4-0.6 6.5 0.8l86 49.7c5.4 3.1 9.8 10.7 9.8 16.9v218.9c0 3.1-1.2 5.3-3 6.3l-9.2 5.2c1.5-1.1 2.4-3.2 2.4-5.9z"/>
				<path id="Layer" class="s3" d="m422 615.4v364.6h-181.3v-364.6l90.7-52.3 90.6 52.3z"/>
				<path id="Layer" class="s1" d="m422 615.4v364.6h-90.6v-312.2l90.6-52.4z"/>
				<path id="Layer" class="s2" d="m331.4 667.8v312.2h-90.7v-364.6l90.7 52.4z"/>
				<path id="Layer" class="s3" d="m613.2 521.8v458.2h-181.3v-458.2l90.6-52.3 90.7 52.3z"/>
				<path id="Layer" class="s1" d="m613.2 521.8v458.2h-90.7v-405.9l90.7-52.3z"/>
				<path id="Layer" class="s2" d="m522.5 574.1v405.9h-90.6v-458.2l90.6 52.3z"/>
				<path id="Layer" class="s3" d="m501.1 764.7v215.3h-181.3v-215.3l90.6-52.3 90.7 52.3z"/>
				<path id="Layer" class="s1" d="m501.1 764.7v215.3h-90.7v-163l90.7-52.3z"/>
				<path id="Layer" class="s2" d="m410.4 817l0.1 163h-90.7v-215.3l90.7 52.3z"/>
				<g id="Layer">
					<path id="Layer" class="s3" d="m55.2 349.2v332.9l-27.6 15.9-27.6-15.9v-332.9l27.6-15.9 27.6 15.9z"/>
					<path id="Layer" class="s1" d="m55.2 682.1l-27.6 15.9v-332.9l27.6-15.9v332.9z"/>
					<path id="Layer" class="s2" d="m27.6 365.1v332.9l-27.6-15.9v-332.9l27.6 15.9z"/>
				</g>
				<path id="Layer" class="s3" d="m231.5 137.9l-29.3 16.9v-33.9l29.3-16.9v33.9z"/>
				<path id="Layer" class="s3" d="m263.2 119.6l-29.4 16.9v-33.8l29.4-16.9v33.8z"/>
				<path id="Layer" class="s3" d="m294.8 101.3l-29.3 17v-33.9l29.3-16.9v33.8z"/>
				<path id="Layer" class="s3" d="m231.5 174.2l-29.3 16.9v-33.8l29.3-17v33.9z"/>
				<path id="Layer" class="s14" d="m263.2 155.9l-29.4 16.9v-33.8l29.4-17v33.9z"/>
				<path id="Layer" class="s3" d="m294.8 137.7l-29.3 16.9v-33.9l29.3-16.9v33.9z"/>
				<path id="Layer" class="s3" d="m231.5 210.5l-29.3 16.9v-33.8l29.3-17v33.9z"/>
				<path id="Layer" class="s3" d="m263.2 192.2l-29.4 17v-33.9l29.4-16.9v33.8z"/>
				<path id="Layer" class="s3" d="m294.8 173.9l-29.3 17v-33.9l29.3-16.9v33.8z"/>
				<path id="Layer" class="s5" d="m231.5 137.9l-29.3 16.9v-33.9l29.3-16.9v33.9z"/>
				<path id="Layer" class="s15" d="m263.2 119.6l-29.4 16.9v-33.8l29.4-16.9v33.8z"/>
				<path id="Layer" class="s5" d="m294.8 101.3l-29.3 17v-33.9l29.3-16.9v33.8z"/>
				<path id="Layer" class="s16" d="m231.5 174.2l-29.3 16.9v-33.8l29.3-17v33.9z"/>
				<path id="Layer" class="s16" d="m294.8 137.7l-29.3 16.9v-33.9l29.3-16.9v33.9z"/>
				<path id="Layer" class="s15" d="m231.5 210.5l-29.3 16.9v-33.8l29.3-17v33.9z"/>
				<path id="Layer" class="s16" d="m263.2 192.2l-29.4 17v-33.9l29.4-16.9v33.8z"/>
				<path id="Layer" class="s5" d="m294.8 173.9l-29.3 17v-33.9l29.3-16.9v33.8z"/>
				<path id="Layer" class="s3" d="m773.9 371v42.6l-89.5-51.7v-42.6l89.5 51.7z"/>
				<path id="Layer" class="s3" d="m773.9 470.7v42.6l-89.5-51.7v-42.6l89.5 51.7z"/>
				<path id="Layer" class="s1" d="m773.9 371v42.6l-89.5-51.7v-42.6l89.5 51.7z"/>
				<path id="Layer" class="s1" d="m773.9 470.7v42.6l-89.5-51.7v-42.6l89.5 51.7z"/>
				<path id="Layer" class="s17" d="m766.2 428.2c-0.1 5.8-4.2 8.1-9.2 5.2l-41.2-23.8c-5.1-2.9-9.1-10-9.1-15.8 0-5.8 4.1-8.1 9.1-5.2l41.3 23.8c5 2.9 9.1 10 9.1 15.8z"/>
				<path id="Layer" class="s14" d="m762.6 430.8c0 2.8-1 4.9-2.6 5.8l-3.9 2.3c1.7-1 2.7-3 2.7-5.9 0-5.8-4.1-12.8-9.1-15.8l-41.3-23.8c-2.5-1.4-4.8-1.6-6.5-0.6l3.9-2.2c1.7-1 4-0.9 6.5 0.6l41.2 23.8c5.1 2.9 9.1 9.9 9.1 15.8z"/>
				<path id="Layer" class="s18" d="m758.8 433c-0.1 5.8-4.2 8.1-9.2 5.2l-41.2-23.8c-5.1-2.9-9.1-9.9-9.1-15.7 0-5.8 4.1-8.2 9.1-5.3l41.3 23.8c5 2.9 9.1 10 9.1 15.8z"/>
				<path id="Layer" class="s14" d="m442.4 118q0.8 0.9 1.4 2 0.6 1.1 1 2.3 0.3 1.1 0.4 2.4l-0.1 48q0 0.4-0.1 0.8 0 0.5-0.2 0.9-0.2 0.4-0.5 0.7-0.3 0.4-0.6 0.6l-8.4 4.9q0.4-0.3 0.7-0.6 0.3-0.4 0.4-0.8 0.2-0.4 0.3-0.8 0.1-0.4 0-0.9l0.2-48q-0.1-1.2-0.5-2.4-0.3-1.2-0.9-2.3-0.6-1-1.5-1.9-0.8-0.9-1.9-1.6l-41.7-24.1q-0.4-0.2-0.8-0.4-0.4-0.2-0.9-0.2-0.4 0-0.8 0-0.5 0.1-0.9 0.3l8.4-4.9q0.4-0.1 0.8-0.2 0.5-0.1 0.9-0.1 0.5 0.1 0.9 0.2 0.4 0.2 0.8 0.5l41.7 24.1q1 0.6 1.9 1.5z"/>
				<path id="Layer" class="s19" d="m432.2 121.3q1 0.7 1.8 1.6 0.9 0.9 1.5 1.9 0.6 1.1 1 2.3 0.3 1.2 0.4 2.4l-0.1 48c0 3-2.2 4.3-4.8 2.7l-41.7-24q-1.1-0.7-1.9-1.6-0.9-0.9-1.5-2-0.6-1.1-1-2.2-0.3-1.2-0.4-2.5l0.2-48c0-3 2.1-4.2 4.7-2.7z"/>
				<path id="Layer" class="s14" d="m306.3 480.3l41.7-24.1q0.4-0.3 0.8-0.4 0.4-0.2 0.9-0.2 0.4-0.1 0.8 0 0.5 0.1 0.9 0.3l8.3 4.8q-0.4-0.2-0.8-0.2-0.5-0.1-0.9-0.1-0.5 0.1-0.9 0.2-0.4 0.2-0.8 0.4l-41.7 24.1q-1 0.7-1.9 1.6-0.8 0.9-1.5 2-0.6 1-0.9 2.2-0.4 1.2-0.5 2.4l0.2 48q-0.1 0.5 0 0.9 0.1 0.5 0.3 0.9 0.2 0.4 0.4 0.7 0.3 0.3 0.7 0.6l-8.4-4.9q-0.4-0.2-0.6-0.6-0.3-0.3-0.5-0.7-0.2-0.4-0.3-0.8 0-0.5 0-0.9l-0.1-48q0-1.2 0.4-2.4 0.4-1.2 1-2.3 0.6-1 1.5-1.9 0.8-0.9 1.8-1.6z"/>
				<path id="Layer" class="s19" d="m356.3 461.1c2.7-1.6 4.8-0.3 4.8 2.7l0.1 48q0 1.2-0.4 2.4-0.3 1.2-1 2.3-0.6 1-1.4 1.9-0.9 0.9-1.9 1.6l-41.7 24.1c-2.6 1.5-4.8 0.2-4.8-2.8l-0.2-48q0.1-1.2 0.5-2.4 0.3-1.2 0.9-2.2 0.7-1.1 1.5-2 0.9-0.9 1.9-1.6z"/>
				<path id="Layer" class="s14" d="m542.1 463.9q0.8 0.9 1.4 2 0.6 1.1 1 2.3 0.3 1.1 0.4 2.4l-0.1 48q0 0.4-0.1 0.9 0 0.4-0.2 0.8-0.2 0.4-0.5 0.7-0.3 0.4-0.6 0.6l-8.4 4.9q0.4-0.3 0.7-0.6 0.3-0.4 0.4-0.8 0.2-0.4 0.3-0.8 0.1-0.4 0-0.9l0.2-48q-0.1-1.2-0.5-2.4-0.3-1.2-0.9-2.2-0.6-1.1-1.5-2-0.8-0.9-1.9-1.6l-41.7-24.1q-0.4-0.2-0.8-0.4-0.4-0.1-0.9-0.2-0.4 0-0.8 0-0.5 0.1-0.9 0.3l8.3-4.8q0.5-0.2 0.9-0.3 0.4-0.1 0.9 0 0.4 0 0.9 0.2 0.4 0.1 0.7 0.4l41.8 24.1q1 0.6 1.9 1.5z"/>
				<path id="Layer" class="s19" d="m531.8 467.2q1.1 0.7 1.9 1.6 0.9 0.9 1.5 2 0.6 1 0.9 2.2 0.4 1.2 0.5 2.4l-0.2 48c0 3-2.1 4.3-4.7 2.8l-41.8-24.2q-1-0.7-1.9-1.6-0.8-0.9-1.4-1.9-0.6-1.1-1-2.3-0.4-1.2-0.4-2.4l0.1-48c0-3 2.2-4.3 4.8-2.7z"/>
				<path id="Layer" class="s20" d="m442.4 44.6q0.8 0.9 1.4 1.9 0.6 1.1 1 2.3 0.3 1.2 0.4 2.4l-0.1 48q0 0.4-0.1 0.9 0 0.4-0.2 0.8-0.2 0.4-0.5 0.7-0.3 0.4-0.6 0.6l-8.4 4.9q0.4-0.3 0.7-0.6 0.3-0.4 0.4-0.8 0.2-0.4 0.3-0.8 0.1-0.4 0-0.8l0.2-48q-0.1-1.3-0.5-2.5-0.3-1.1-0.9-2.2-0.6-1.1-1.5-2-0.8-0.9-1.9-1.5l-41.7-24.1q-0.4-0.3-0.8-0.5-0.4-0.1-0.9-0.2-0.4 0-0.8 0.1-0.5 0-0.9 0.2l8.4-4.8q0.4-0.2 0.8-0.3 0.5-0.1 0.9 0 0.5 0 0.9 0.2 0.4 0.2 0.8 0.4l41.7 24.1q1 0.7 1.9 1.6z"/>
				<path id="Layer" class="s21" d="m432.2 47.9q1 0.6 1.8 1.5 0.9 0.9 1.5 2 0.6 1.1 1 2.2 0.3 1.2 0.4 2.5l-0.1 48c0 3-2.2 4.2-4.8 2.7l-41.7-24.1q-1.1-0.7-1.9-1.6-0.9-0.9-1.5-2-0.6-1.1-1-2.2-0.3-1.2-0.4-2.5l0.2-48c0-3 2.1-4.2 4.7-2.7z"/>
				<path id="Layer" class="s20" d="m437.5 711.6q0.8 0.9 1.4 2 0.6 1.1 1 2.3 0.3 1.2 0.4 2.4l-0.1 48q0 0.4-0.1 0.9 0 0.4-0.2 0.8-0.2 0.4-0.5 0.7-0.3 0.4-0.6 0.6l-8.4 4.9q0.4-0.3 0.7-0.6 0.3-0.4 0.4-0.8 0.2-0.4 0.3-0.8 0.1-0.4 0-0.8l0.2-48q-0.1-1.3-0.5-2.5-0.3-1.2-0.9-2.2-0.6-1.1-1.5-2-0.8-0.9-1.9-1.6l-41.7-24.1q-0.4-0.2-0.8-0.4-0.4-0.1-0.9-0.2-0.4 0-0.8 0.1-0.5 0-0.9 0.2l8.3-4.8q0.5-0.2 0.9-0.3 0.4-0.1 0.9 0 0.4 0 0.9 0.2 0.4 0.1 0.7 0.4l41.8 24.1q1 0.6 1.9 1.5z"/>
				<path id="Layer" class="s21" d="m427.2 714.9q1.1 0.7 1.9 1.6 0.9 0.9 1.5 1.9 0.6 1.1 0.9 2.3 0.4 1.2 0.5 2.4l-0.2 48c0 3-2.1 4.3-4.7 2.7l-41.8-24q-1-0.7-1.9-1.6-0.8-0.9-1.4-2-0.6-1.1-1-2.2-0.4-1.2-0.4-2.5l0.1-48c0-3 2.2-4.2 4.8-2.7z"/>
				<path id="Layer" class="s20" d="m543.9 392.7q0.8 0.9 1.4 2 0.7 1.1 1 2.2 0.4 1.2 0.4 2.5l-0.1 48q0.1 0.4 0 0.8-0.1 0.5-0.3 0.9-0.2 0.4-0.4 0.7-0.3 0.4-0.7 0.6l-8.3 4.9q0.3-0.3 0.6-0.6 0.3-0.4 0.5-0.8 0.2-0.4 0.2-0.8 0.1-0.4 0.1-0.9l0.1-48q-0.1-1.2-0.4-2.4-0.4-1.2-1-2.3-0.6-1-1.5-1.9-0.8-0.9-1.8-1.6l-41.8-24.1q-0.3-0.2-0.8-0.4-0.4-0.2-0.8-0.2-0.5 0-0.9 0-0.5 0.1-0.9 0.3l8.4-4.9q0.4-0.1 0.8-0.2 0.5-0.1 0.9-0.1 0.5 0.1 0.9 0.3 0.4 0.1 0.8 0.4l41.7 24.1q1 0.6 1.9 1.5z"/>
				<path id="Layer" class="s21" d="m533.6 396q1.1 0.7 1.9 1.6 0.9 0.9 1.5 1.9 0.6 1.1 1 2.3 0.3 1.2 0.4 2.4l-0.1 48c0 3-2.2 4.2-4.8 2.7l-41.7-24q-1.1-0.7-1.9-1.6-0.9-0.9-1.5-2-0.6-1.1-1-2.3-0.3-1.1-0.4-2.4l0.1-48c0-3 2.2-4.2 4.8-2.7z"/>
				<path id="Layer" class="s20" d="m306.3 555.2l41.7-24.1q0.4-0.3 0.8-0.4 0.4-0.2 0.8-0.2 0.5-0.1 0.9 0 0.5 0.1 0.9 0.3l8.3 4.8q-0.4-0.2-0.8-0.3-0.5 0-0.9 0-0.5 0.1-0.9 0.2-0.4 0.2-0.8 0.4l-41.7 24.1q-1 0.7-1.9 1.6-0.8 0.9-1.5 1.9-0.6 1.1-0.9 2.3-0.4 1.2-0.4 2.4l0.1 48q0 0.4 0 0.9 0.1 0.4 0.3 0.8 0.2 0.4 0.4 0.7 0.3 0.3 0.7 0.6l-8.4-4.8q-0.4-0.3-0.6-0.6-0.3-0.3-0.5-0.7-0.2-0.4-0.3-0.8 0-0.5 0-0.9l-0.1-48q0-1.2 0.4-2.4 0.4-1.2 1-2.3 0.6-1 1.5-1.9 0.8-0.9 1.8-1.6z"/>
				<path id="Layer" class="s21" d="m356.3 535.9c2.7-1.5 4.8-0.3 4.8 2.7l0.1 48q0 1.2-0.4 2.4-0.3 1.2-1 2.3-0.6 1.1-1.4 2-0.9 0.9-1.9 1.5l-41.7 24.1c-2.6 1.5-4.8 0.3-4.8-2.7l-0.1-48q0-1.2 0.4-2.4 0.3-1.2 0.9-2.3 0.7-1 1.5-1.9 0.9-0.9 1.9-1.6z"/>
				<path id="Layer" class="s3" d="m423 87.4l-23.5-13.6c0-4.9 2.3-7.9 5.7-8.3l6 10.4 6-3.5c3.5 4.4 5.8 10.1 5.8 15z"/>
				<path id="Layer" class="s3" d="m419.8 60.8c0 5.5-3.8 7.7-8.6 5-4.7-2.6-8.6-9.3-8.6-14.8 0-5.5 3.9-7.7 8.6-5 4.8 2.7 8.6 9.4 8.6 14.8z"/>
				<path id="Layer" fill-rule="evenodd" class="s3" d="m427.1 145.4v5l-3-1q-0.1 0.6-0.3 1.1-0.2 0.5-0.4 1-0.2 0.5-0.5 1-0.3 0.4-0.6 0.9l1.7 3.9-3.1 1.8-2.6-3.5q-0.5 0.1-1.1 0.1-0.5 0.1-1.1 0-0.5-0.1-1-0.2-0.6-0.1-1.1-0.3l-0.6 3.1-4.4-2.5-0.6-3.8q-0.6-0.5-1.2-1.1-0.6-0.5-1.1-1.1-0.5-0.5-1-1.1-0.5-0.6-1-1.3l-2.6 0.5-3.1-5.4 1.7-2q-0.3-0.7-0.6-1.4-0.2-0.8-0.5-1.5-0.2-0.8-0.4-1.5-0.1-0.8-0.3-1.6l-3-2.4v-5.1l3 1q0.1-0.5 0.3-1 0.2-0.6 0.4-1 0.2-0.5 0.5-1 0.3-0.5 0.6-0.9l-1.7-3.9 3.1-1.8 2.6 3.4q0.5-0.1 1.1-0.1 0.5 0 1.1 0 0.5 0.1 1 0.2 0.6 0.1 1.1 0.3l0.6-3.1 4.4 2.5 0.6 3.8q0.6 0.5 1.2 1.1 0.6 0.5 1.1 1.1 0.5 0.6 1.1 1.2 0.5 0.6 0.9 1.2l2.6-0.5 3.1 5.4-1.7 2q0.3 0.7 0.6 1.5 0.2 0.7 0.5 1.4 0.2 0.8 0.4 1.6 0.2 0.7 0.3 1.5zm-8.2-2.2q-0.1-2-0.7-3.9-0.6-1.9-1.6-3.7-1-1.7-2.3-3.1-1.4-1.5-3.1-2.6c-4.2-2.4-7.6-0.4-7.6 4.4q0.1 2 0.7 3.9 0.5 1.9 1.5 3.7 1 1.7 2.4 3.1 1.4 1.5 3 2.6c4.2 2.4 7.7 0.4 7.7-4.4z"/>
				<path id="Layer" fill-rule="evenodd" class="s3" d="m335.5 558.3c6.6-3.8 12-0.7 12 6.9 0 2.1-0.6 5.6-2.9 10.8-2.8 6.7-9.1 22.1-9.1 22.1 0 0-6.2-8.2-9.1-11.6q-0.6-0.7-1.2-1.6-0.5-0.9-0.9-1.9-0.3-0.9-0.5-1.9-0.2-1.1-0.2-2.1c0-7.6 5.3-16.9 11.9-20.7zm-6.5 16.5c0 4.2 3 5.9 6.5 3.7q1.5-0.9 2.6-2.1 1.2-1.2 2-2.7 0.9-1.5 1.4-3.1 0.4-1.6 0.5-3.3c0-4.1-2.9-5.8-6.5-3.8q-1.4 1-2.5 2.2-1.2 1.2-2.1 2.7-0.8 1.5-1.3 3.1-0.5 1.6-0.6 3.3z"/>
				<path id="Layer" class="s3" d="m526.1 490.8c0 7.3-6.8 9.3-15.2 4.4q-1.1-0.6-2.1-1.3c-5.5 1.9-8.6 0.8-8.6 0.8 0 0 0.7-1.1 1.2-7.7-3.5-4.5-5.8-9.6-5.8-13.8 0-7.3 6.9-9.3 15.3-4.4 8.4 4.9 15.2 14.7 15.2 22z"/>
				<path id="Layer" class="s3" d="m526.4 420.5q0.2 0.2 0.4 0.5 0.2 0.3 0.3 0.7 0.1 0.3 0.1 0.7v1.5c0 0.9-0.6 1.2-1.4 0.8l-0.9-0.5q0.3 0.2 0.5 0.4 0.3 0.3 0.5 0.6 0.1 0.3 0.2 0.6 0.1 0.4 0.2 0.7v1.6c0 0.9-0.6 1.2-1.4 0.8l-1.6-0.9q0.3 0.1 0.5 0.4 0.3 0.3 0.5 0.6 0.1 0.3 0.2 0.6 0.1 0.3 0.2 0.7v1.6c0 0.8-0.6 1.2-1.4 0.7l-12.6-7.2-2.3-5.7v-12.7l1.2 0.6q0.6-0.2 1.1-0.6 0.6-0.3 1.1-0.7 0.5-0.5 0.9-1 0.4-0.5 0.7-1.1c1.2-2.4 0.7-5.6 1.7-6 1-0.4 3.9 3.3 4.1 6.7q0 0.8 0 1.5-0.1 0.8-0.2 1.5-0.2 0.8-0.4 1.5-0.3 0.7-0.6 1.4l2.5 1.5 4 2.2q0.3 0.2 0.5 0.5 0.3 0.2 0.5 0.5 0.1 0.4 0.2 0.7 0.1 0.3 0.2 0.7v1.6c0 0.8-0.6 1.2-1.4 0.7l1.3 0.8q0.3 0.2 0.6 0.5z"/>
				<path id="Layer" class="s3" d="m498.2 401c0-0.8 0.7-1.2 1.4-0.8l4.2 2.5q0.3 0.2 0.5 0.4 0.3 0.3 0.4 0.6 0.2 0.3 0.3 0.6 0.1 0.3 0.1 0.7v14.3c0 0.8-0.6 1.2-1.3 0.7l-4.2-2.4q-0.3-0.2-0.5-0.4-0.3-0.3-0.5-0.6-0.1-0.3-0.2-0.6-0.1-0.4-0.2-0.7z"/>
				<path id="Layer" class="s3" d="m331.5 492.4c2.8-1.5 5.1-1.2 6.4 0.6q0.5-1.2 1.2-2.4 0.6-1.1 1.4-2.1 0.9-1.1 1.8-1.9 1-0.9 2.1-1.6c4.1-2.4 7.5-0.5 7.5 4.3 0 9.5-14 26.6-14 26.6 0 0-13.9-1.1-13.9-10.5q0.1-2 0.7-3.8 0.5-1.9 1.5-3.6 1-1.7 2.3-3.1 1.4-1.4 3-2.5z"/>
				<path id="Layer" fill-rule="evenodd" class="s3" d="m420.2 741.8c0 0-3.7 8.2-13.9 2.3-10.2-5.8-13.9-18.3-13.9-18.3 0 0 3.7-8.3 13.9-2.4 10.2 5.9 13.9 18.4 13.9 18.4zm-13.9-0.3c3.7 2.1 6.6 0.4 6.6-3.8q-0.1-1.8-0.6-3.4-0.5-1.7-1.3-3.2-0.9-1.5-2.1-2.7-1.2-1.3-2.6-2.2c-3.7-2.2-6.7-0.4-6.7 3.8q0.1 1.7 0.6 3.4 0.5 1.6 1.4 3.1 0.9 1.5 2 2.7 1.2 1.3 2.7 2.2z"/>
				<path id="Layer" class="s3" d="m407.9 730.4q0.8 0.8 1.3 1.7 0.5 0.9 0.9 2 0.3 1 0.3 2.1c0 2.6-1.8 3.7-4.1 2.4q-0.9-0.6-1.7-1.4-0.7-0.8-1.3-1.7-0.5-1-0.8-2-0.3-1-0.4-2.1c0-2.6 1.9-3.7 4.2-2.4q0.9 0.6 1.6 1.4z"/>
				<path id="Layer" class="s21" d="m651.9 585.5c1.2 2 2.3 2.4 2.9 1.2 0.7-1.2-2-2.9-2-2.9l-0.3-3c0 0 2.8-2 3.6-1.9 0.8 0.1 1.7 2.3 1.8 5.9 0.1 3.6-1.7 7.8-3.6 8.4-1.8 0.6-8.2-1.4-8.2-1.4-2.2 0.1-2.4 9.2-2.4 9.2l-1.3 0.3c0 0 0-7.8-0.9-9.9-0.9-2-2.9-4.1-2.7-6.1 0.1-2.1 2.7-5.9 2.7-5.9 4.8 0 9.1 4.2 10.4 6.1z"/>
				<path id="Layer" class="s22" d="m667.7 508.2c0 0-1 9.9-2.2 15.1-1.2 5.2-4.9 12-6.2 15.3-1.3 3.3-2.8 11.7-4.4 17.5q-0.6 2.4-1.1 4.8-0.5 2.4-1 4.8-0.4 2.3-0.7 4.8-0.3 2.4-0.5 4.8c0 2 0.4 5.2 1 5.5l0.2 3c0 0 2.7 1.8 2 2.9-0.6 1.2-1.7 0.8-2.9-1.1-1.3-2-5.6-6.2-10.4-6.2 0-0.5 1.4-6 1.2-10.5-0.2-4.4-2.7-17.4-1.8-21.5 0.9-4 6.2-14.9 7.4-19 1.2-4-0.2-23.4-0.2-23.4z"/>
				<path id="Layer" class="s23" d="m667.7 482.6l3.9 19.3c0 0-3.2 18.5-4.3 23.3-1.1 4.8-9.9 22-11 33.7q-0.2 2.5-0.4 5-0.1 2.5-0.1 5 0 2.5 0 5 0.1 2.5 0.3 5c-10 10.5-18.4 1.5-18.4 1.5 0 0 1.1-17.3 2.3-28 1.1-9.3 6.4-18.9 7.6-23.7 1.3-4.7 0.3-32.5 0-33.8q-0.4-1.9-0.5-3.8-0.2-2 0-3.9 0.1-2 0.6-3.9 0.4-1.9 1.1-3.7z"/>
				<path id="Layer" class="s21" d="m655.4 579.6q-0.3 0.3-0.7 0.6-0.4 0.4-0.7 0.7-0.4 0.3-0.8 0.6c-1.2-6.3-3.1-20.6 1.4-32.4 6-15.5 9.7-26.5 9.8-32.4 0-5.9-2.8-10.4-3.4-11.7q-0.8-1.9-1.4-3.9-0.6-2-0.8-4.1-0.3-2-0.2-4.1 0.1-2.1 0.4-4.1c0.4-2.1 4-3.1 9.3-3.6l3.3 16.6c0 0-3.2 18.6-4.3 23.3-1.1 4.8-9.9 22-11 33.8q-0.2 2.5-0.4 5-0.1 2.5-0.1 5 0 2.5 0 5 0.1 2.5 0.3 5-0.3 0.3-0.7 0.7z"/>
				<path id="Layer" class="s21" d="m682.2 608.4c2 2.7 4.3 2.7 5.3 1.4 1-1.2-1-3.5-1-3.5 0 0 12.2-0.9 13 0.7 0.7 1.7-6.8 9.7-10.6 10.4-3.9 0.7-7.9-2.4-9.7-4.4-1.8-2-5.4-3.2-6.6-2.6-1.2 0.6-1.6 9-1.6 9h-1.1q0-1.7-0.2-3.3-0.1-1.6-0.5-3.2-0.3-1.7-0.8-3.2-0.5-1.6-1.1-3.1-0.4-0.7-0.6-1.4-0.2-0.7-0.2-1.5 0-0.7 0.1-1.4 0.2-0.8 0.5-1.4c1-2.3 4-4.7 4-4.7 4.4 2.5 9.1 9.5 11.1 12.2z"/>
				<path id="Layer" class="s22" d="m670.7 532.8c-1.5-7.7-3.3-24.4-3.3-24.4l28-5.3q-0.1 1.7-0.1 3.3-0.1 1.6-0.2 3.3-0.2 1.6-0.3 3.2-0.2 1.7-0.4 3.3c-0.8 4.9-5 26.5-5.9 30.6-0.8 4-2.3 14.6-3.1 22.7-0.9 8.2-2.5 21.3-2 25.6 0.4 4.4 3.1 11.2 3.1 11.2 0 0 2 2.2 1 3.5-1 1.3-3.3 1.2-5.3-1.5-1.9-2.6-6.5-9.4-10.9-12 1.2-1.9 1.5-6 1.3-8.1-0.1-2.4-3-14.8-3.7-20.2-0.7-5.3 2.1-17.2 3.1-20 1-2.7 0.2-7.5-1.3-15.2z"/>
				<path id="Layer" class="s23" d="m668.6 561.4c0.6-4.6 3.4-13.3 2.8-19.8-0.7-6.4-5.5-35.7-5.5-35.7-10.9-9-6.8-26.3-6.8-26.3l25.6-0.6 8.6 8.7c0 0 2.7 14.1 2 23.8-0.6 9.7-4.1 26-7 42.5-2.8 16.4-0.6 46.4-0.6 46.4-10.1 2.3-21.2-4.2-21.2-4.2 0.7-12.1 1.6-30.2 2.1-34.8z"/>
				<path id="Layer" class="s24" d="m649.5 430.2l-4.9 12.3 11.2-1.4 3.7 8.2c0 0-23.5 7.6-27.3 6.2-3.8-1.5-0.9-11 0.8-15.5 1.7-4.5 9.1-25.3 10-26.9 1-1.6 5.4-1.4 5.4-1.4z"/>
				<path id="Layer" class="s25" d="m659.5 449.2c0 0-23.5 7.7-27.4 6.2q-0.3-0.1-0.5-0.3-0.3-0.2-0.5-0.5-0.2-0.2-0.4-0.5-0.1-0.3-0.2-0.7c1.9-1.4 4.2-4.1 6.8-9.8 2.9-6.7 4.6-16.5 5.3-22 0.7-5.4 2.3-4.4 2.3-4.4l3.7-1.2 0.8 14.2-4.9 12.3q-0.2 0.5-0.4 0.9-0.3 0.5-0.5 1-0.2 0.5-0.5 1-0.3 0.4-0.5 0.9l14-3.4z"/>
				<path id="Layer" class="s24" d="m673.2 412l11.5 10.9 1 1.4c0 0 9.3 6.5 10 10.5 0.7 4-5 13-5 13 0 0-3.5 7.9-3.4 15.6 0.1 7.6 3.1 10.9 4.2 13.8 2.6 6.7 2.5 11.1 2.5 11.1-3.8 4.1-16.3 7.4-30.8 4.3-14.5-3.1-15.2-13-15.2-13 3.8-13.3 9-18.4 9.8-22.9 0.8-4.5-9.6-22.7-12.7-30-3.2-7.3-4.1-12.7-0.4-15.8 3.7-3.2 8.9-2.9 8.9-2.9z"/>
				<path id="Layer" class="s25" d="m678.4 493.7c-0.2-10.8 1.4-25.1 1.3-33.5-0.1-12.1-3.8-20.6-4.4-23.8-0.7-3.2 3.8-2.3 3.8-2.3l3-7.8c0 0 2.2-0.9 4.2-1.6 2 1.5 8.9 6.6 9.4 10.1 0.7 4-5 13-5 13 0 0-3.5 7.9-3.4 15.6 0.1 7.6 3.1 10.9 4.2 13.8 2.6 6.7 2.5 11.1 2.5 11.1-2.4 2.5-8.1 4.8-15.6 5.4z"/>
				<path id="Layer" class="s26" d="m753.5 422.1c0.3 0.5 0.1 1-1 1.7-1.1 0.6-3.4 2.1-3.4 2.1q-0.1 0.3-0.2 0.6-0.1 0.3-0.2 0.6-0.2 0.2-0.3 0.5-0.2 0.3-0.3 0.5c-0.8 1-0.6 1.3-0.6 1.7q0 0.3 0 0.5 0 0.3-0.1 0.5 0 0.2-0.1 0.5 0 0.2-0.1 0.4 0 0.1-0.1 0.3 0 0.1 0 0.3 0 0.1 0 0.3 0 0.1 0 0.3-0.1 0.4-0.3 0.8-0.1 0.4-0.3 0.8-0.1 0.3-0.3 0.7-0.2 0.4-0.5 0.7c-0.5 0.5-4.2 2.6-5.4 3.3-1.2 0.6-5.7 4.7-7.6 6.6-2 1.9-13.6 13.5-16.2 15.6-2.6 2.1-7.8 7-9.7 6.6-1.9-0.3-0.1-12.9 0.4-13.8 0.6-0.9 10-7.3 13.3-9.6 3.4-2.3 10.6-7.6 11.5-9.4 0.9-1.8 1.9-5.2 2.8-7.1 0.9-1.8 2.1-3.4 2.5-4.5 0.5-1.1 1.3-1.9 1.9-1.5 0.6 0.4 0.8 1.1 0.4 2.4-0.4 1.3-1.9 4-1.1 3.9 0.7-0.1 2.8-2.1 3.9-2.4q0.5-0.2 1.1-0.4 0.6-0.3 1.1-0.5 0.6-0.3 1.1-0.5 0.5-0.3 1.1-0.6c1.8-0.9 6.1-3.2 6.7-1.9z"/>
				<path id="Layer" class="s24" d="m731.2 435.6q1.2 0.4 2.1 1.1 1 0.7 1.8 1.6 0.8 0.9 1.3 2 0.5 1.1 0.7 2.3c0.1 0.8-18.4 17.8-21.3 20.6-2.9 2.8-8.6 6.3-11.4 5.3-2.7-1-20.9-20.4-25-24.6-4.1-4.3-6-11.7-4-16.4 1.9-4.6 7.6-8.9 13-0.9 5.3 8 18.9 26.6 18.9 26.6 0 0 20.4-14 23.9-17.6z"/>
				<path id="Layer" class="s26" d="m669.1 422.1q-1.7 0.3-3.4 0.3-1.7-0.1-3.4-0.4-1.7-0.4-3.3-1.1c-3-1.4-7.4-5.2-5.3-8 2.1-2.7 4.3-7.1 4.3-10.7-0.1-3.5-2.9-6.7-2.9-12-0.1-5.2 2.9-10.2 6.6-12.3 3.7-2.2 10.5-2.6 16.1-0.2 5.5 2.4 6.1 9.5 6.5 11.4 0.3 1.9-0.3 3.3-0.7 5.2-0.3 2 0.6 4-1.8 8.6-2.3 4.6-4.3 4-5.3 4.2-1.3 0.3-2.3 0.8-3.4 3.6-1.2 2.9-0.7 10.5-0.7 10.5q-1.6 0.6-3.3 0.9z"/>
				<path id="Layer" class="s22" d="m676.5 403.7q0.2 0.6 0.5 1.1 0.3 0.6 0.7 1 0.4 0.5 0.9 0.9-0.3 0.1-0.5 0.1-0.3 0.1-0.6 0.2-0.2 0-0.5 0.1-0.3 0-0.5 0c-1.3 0.3-2.3 0.8-3.4 3.6-1.2 2.9-0.2 10.3-0.7 10.5q-0.8 0.3-1.6 0.5-0.8 0.3-1.6 0.4-0.8 0.2-1.6 0.2-0.8 0.1-1.7 0.1-0.1-0.4-0.2-0.8 0-0.5 0-0.9 0.1-0.4 0.2-0.9 0.2-0.4 0.5-0.7c3.7-5.7 3.2-18.9 3.2-18.9l6.5-4.8q-0.1 0.9-0.1 1.8 0 0.9 0.1 1.8 0 0.8 0 1.7 0.1 0.9 0.1 1.8 0.1 0.6 0.3 1.2z"/>
				<path id="Layer" class="s27" d="m677.7 421.2q0 0.5 0 1.1-0.1 0.6-0.2 1.2-0.1 0.6-0.2 1.1c0.2-6.3-3.1-15.6-3.9-21.2-1.1-7 1.8-8.5 4.1-9.9 2.4-1.3 6.3-6.1 6.3-6.1-1.9 3.7-7.3 8.2-7.3 8.2l0.3 0.3q0.6-0.5 1.2-1 0.6-0.5 1.2-1.1 0.5-0.5 1.1-1 0.6-0.6 1.1-1.2c-0.3 0.6-0.5 1.2-0.7 1.6-0.6 1.8-1.4 5-2 5.1-1.1 0.3-1.5-1.1-1.6-1.1l-0.9 1.3c-3.6 3.7-0.2 11.2 1.4 21.5q0.1 0.6 0.1 1.2z"/>
				<path id="Layer" class="s28" d="m681.4 391.6c-0.2 0.6-0.5 1.2-0.6 1.6-0.7 1.8-1.5 4.9-2 5.1-1.2 0.3-1.6-1.1-1.7-1.1l-0.8 1.3c-3.1 3-1.2 8.7 0.4 16.4 0 0 1.6 5.2 1.5 8.3-0.2 3.2-2.8 7.6-2.6 7.2q0.2-0.6 0.4-1.3 0.3-0.6 0.5-1.2 0.1-0.7 0.3-1.3 0.1-0.6 0.3-1.3c-0.8 2.3-2.8 6.5-6.5 8.2q0.3-0.3 0.5-0.6 0.3-0.2 0.6-0.5 0.2-0.3 0.4-0.5 0.3-0.3 0.5-0.6-0.5 0.5-1.1 0.9-0.6 0.4-1.2 0.8-0.6 0.3-1.3 0.5-0.7 0.3-1.4 0.4c-1.8 0.2-9.8-2.2-16-5.4q-0.2-0.1-0.5-0.3-0.2-0.1-0.4-0.3-0.2-0.2-0.4-0.3-0.2-0.2-0.4-0.4-0.7-1.3-1.1-2.7-0.4-1.3-0.5-2.8-0.1-1.4 0.1-2.8 0.2-1.4 0.7-2.7c0-0.1 0-0.1 0-0.1v0.1q-0.5 1.1-0.7 2.3-0.3 1.2-0.3 2.4-0.1 1.2 0.1 2.4 0.2 1.2 0.6 2.4c-2.4-4.5-1.1-12 1.5-14.6 4.8-4.7 5.1-10.9 4.7-18.2-0.4-7.3 1.3-10.9 3.1-13.5 1.7-2.2 5-5.4 9.2-5.8 8.5-0.9 12.3 2 14.5 4.6 0 0 6.9 7.4-0.4 13.4z"/>
				<path id="Layer" class="s29" d="m682.5 389.4q-0.5 0.6-1 1.2-0.5 0.6-1.1 1.1-0.6 0.6-1.3 1.1l2.3-1.2c-0.2 0.6-0.5 1.2-0.6 1.6-0.7 1.8-1.5 5-2 5.1-1.2 0.3-1.6-1.1-1.7-1.1l-0.8 1.3c-3.1 3-1.2 8.7 0.4 16.4 0 0 1.6 5.2 1.5 8.4-0.2 3.1-2.8 7.5-2.6 7.1q0.2-0.6 0.4-1.2 0.3-0.7 0.5-1.3 0.1-0.6 0.3-1.3 0.1-0.6 0.3-1.3c-0.8 2.3-2.8 6.6-6.5 8.2q0.3-0.3 0.5-0.5 0.3-0.3 0.6-0.6 0.2-0.2 0.4-0.5 0.3-0.3 0.5-0.6-0.5 0.5-1.1 0.9-0.6 0.4-1.2 0.8-0.6 0.3-1.3 0.5-0.7 0.3-1.4 0.4c-1.8 0.2-9.8-2.2-16-5.4q-0.2-0.1-0.5-0.3-0.2-0.1-0.4-0.3-0.2-0.1-0.4-0.3-0.2-0.2-0.4-0.4-0.7-1.3-1.1-2.6-0.4-1.4-0.5-2.8-0.1-1.5 0.1-2.9 0.2-1.4 0.7-2.7c0 0 0-0.1 0-0.1v0.1q-0.5 1.1-0.7 2.3-0.3 1.2-0.3 2.4-0.1 1.2 0.1 2.4 0.2 1.2 0.6 2.4c-2.4-4.5-1.1-11.9 1.5-14.6 3.9-3.8 4.9-8.5 4.9-14.1q0.1 1.4 0.1 2.7 0 1.4-0.2 2.8-0.2 1.3-0.6 2.7-0.4 1.3-0.9 2.5 0.3-0.4 0.5-0.9 0.2-0.5 0.5-1 0.2-0.5 0.4-1 0.2-0.5 0.3-1.1c0 0-0.4 3.7-3.6 9.3-3.3 5.7-2.4 9.5-1.8 10.9q-0.1-0.5-0.2-1.1 0-0.5 0-1.1 0-0.5 0.1-1 0.1-0.6 0.2-1.1c0 0-0.2 5.8 2.6 8.4 0 0-2.2-6.6 1.5-15.1 0 0-3.1 10.9 0.5 16.1l0.1-2c0 0 1.3 2.6 2.4 3.2l0.1-2.5c0 0 0.7 2.3 1.7 3 0.9 0.6 2.4-0.5 3-1.1l-0.9 1.7c0 0 11-0.7 10.6-18.2q0.5 2.5 0.4 5.1 0 2.5-0.7 5-0.7 2.5-2 4.7-1.3 2.2-3 4.1c0 0 3.2-1 5.8-5.3q-0.2 0.7-0.6 1.3-0.3 0.7-0.7 1.4-0.4 0.6-0.8 1.2-0.4 0.6-0.9 1.2 1-0.6 1.9-1.3 0.9-0.8 1.6-1.6 0.7-0.9 1.3-2 0.5-1 0.9-2.1c1.3-4.8-1.6-12.6-1.2-11.8q0.6 1.3 1.1 2.6 0.4 1.3 0.8 2.6 0.3 1.4 0.5 2.7 0.3 1.4 0.3 2.8 0-1.5-0.1-3.1-0.1-1.5-0.3-3.1-0.2-1.5-0.6-3-0.3-1.5-0.8-3c-1.9-6.7-2-14 1.3-17.1 3.2-3.1 6-3.7 7.6-6.4q-0.4 0.7-0.9 1.4z"/>
				<path id="Layer" class="s26" d="m676.9 402.9c-0.2 0.4-2.6 0.6-2.2-3.6 0.4-4.1 3.2-5.1 3.1-2q0 0.7-0.1 1.4-0.1 0.7-0.2 1.4-0.1 0.7-0.2 1.4-0.2 0.7-0.4 1.4z"/>
				<path id="Layer" class="s29" d="m669.6 373.4q1.2-0.1 2.4 0 1.2 0.2 2.4 0.4 1.2 0.3 2.3 0.7-1.2-0.2-2.4-0.2-1.2 0-2.4 0.2-1.2 0.2-2.3 0.6-1.2 0.5-2.2 1.1-2.1 1.5-3.8 3.6-1.7 2-2.9 4.4-1.2 2.3-1.7 4.9-0.6 2.6-0.5 5.3c0.4 10.1-1.2 17.4-3 20.4 0 0 1.7-8.6 1.1-11.2q0 0.8-0.2 1.6-0.1 0.8-0.3 1.6-0.1 0.8-0.3 1.6-0.2 0.8-0.5 1.6c0 0 1.2-6.8 0.7-9.6q-0.1-0.5-0.2-0.9-0.1-0.4-0.2-0.8-0.1-0.4-0.2-0.8-0.1-0.4-0.3-0.8 0.1-2-0.1-4.2c-0.4-7.3 1.3-10.9 3.1-13.5 1.7-2.2 5-5.4 9.1-5.8q1.2-0.2 2.4-0.2z"/>
				<g id="Layer" style="opacity: .5">
					<path id="Layer" class="s29" d="m665 383.5q-0.1 0.2-0.3 0.3-0.1 0.2-0.3 0.3-0.1 0.2-0.2 0.3-0.2 0.2-0.3 0.4-0.3 0.4-0.6 0.9-0.2 0.4-0.5 0.9-0.2 0.5-0.4 1-0.2 0.5-0.4 1-0.1 0.4-0.2 0.7-0.1 0.4-0.2 0.7 0 0.4-0.1 0.7-0.1 0.4-0.1 0.7 0 0.4-0.1 0.8 0 0.4 0 0.8 0 0.4 0 0.9 0 0.4 0 0.8c0 2.2 0.1 4.6 0.1 7.1q0 1.6 0 3.3-0.1 1.7-0.3 3.3-0.2 1.7-0.5 3.3-0.3 1.7-0.7 3.3-0.1 0.5-0.3 1-0.2 0.6-0.4 1.1-0.2 0.5-0.5 0.9-0.2 0.5-0.5 1-0.1 0.2-0.2 0.3-0.1 0.2-0.2 0.4-0.2 0.2-0.3 0.3-0.1 0.2-0.3 0.3 0.2-0.1 0.3-0.3 0.1-0.2 0.2-0.3 0.1-0.2 0.2-0.4 0.1-0.2 0.2-0.4 0.3-0.4 0.5-0.9 0.3-0.5 0.4-1 0.2-0.5 0.4-1.1 0.2-0.5 0.3-1 0.2-0.8 0.3-1.5 0.2-0.8 0.3-1.5 0.2-0.8 0.2-1.5 0.1-0.8 0.2-1.6c0.2-2.2 0.3-4.6 0.3-7 0-2.3 0-4.7 0-7q0-0.4 0-0.8 0-0.4 0-0.8 0-0.4 0-0.8 0.1-0.4 0.1-0.8 0.1-0.4 0.1-0.8 0.1-0.3 0.2-0.7 0.1-0.3 0.2-0.7 0.1-0.3 0.2-0.7 0.1-0.5 0.4-1 0.2-0.5 0.4-1 0.3-0.5 0.6-1 0.3-0.4 0.6-0.9 0.2-0.1 0.3-0.3 0.1-0.2 0.3-0.3 0.1-0.2 0.3-0.4 0.1-0.1 0.3-0.3z"/>
				</g>
				<path id="Layer" class="s29" d="m662.4 424.5q0.2-0.6 0.5-1.3 0.3-0.6 0.5-1.3 0.2-0.7 0.5-1.3 0.2-0.7 0.4-1.3 0.2-0.7 0.4-1.4 0.2-0.7 0.3-1.4 0.2-0.7 0.3-1.4 0.1-0.8 0.2-1.5 0.1-0.4 0.1-0.8 0.1-0.4 0.1-0.8 0-0.4 0-0.8 0-0.4 0-0.8c0-1.1-0.1-2.3-0.2-3.4q-0.2-1.6-0.3-3.1-0.1-1.6-0.1-3.1-0.1-1.6-0.1-3.1 0-1.6 0.1-3.2 0-0.5 0.1-1 0-0.5 0.1-1 0.1-0.5 0.2-1 0.1-0.5 0.2-1 0.1-0.2 0.2-0.3 0-0.2 0.1-0.4 0.1-0.2 0.2-0.3 0.1-0.2 0.2-0.4-0.1 0.2-0.2 0.4-0.1 0.1-0.2 0.3 0 0.2-0.1 0.4-0.1 0.2-0.1 0.4-0.1 0.5-0.2 1-0.1 0.5-0.2 1-0.1 0.5-0.1 1 0 0.5 0 1 0 1.6 0 3.1 0 1.6 0.1 3.1 0.1 1.6 0.2 3.1 0.1 1.5 0.3 3.1c0 1.1 0.2 2.2 0.2 3.3q0 0.4 0 0.9 0 0.4-0.1 0.8 0 0.4 0 0.8-0.1 0.4-0.1 0.8-0.2 0.7-0.3 1.4-0.1 0.7-0.3 1.4-0.2 0.8-0.4 1.5-0.2 0.7-0.4 1.3-0.2 0.7-0.5 1.4-0.2 0.6-0.5 1.3-0.3 0.7-0.5 1.3-0.3 0.7-0.6 1.3z"/>
				<path id="Layer" class="s29" d="m675.9 378.2q-0.4 0-0.8 0-0.4 0.1-0.8 0.2-0.4 0.1-0.8 0.2-0.4 0.1-0.7 0.3-0.4 0.2-0.8 0.3-0.3 0.2-0.7 0.4-0.4 0.2-0.7 0.5-0.3 0.2-0.7 0.5-0.3 0.3-0.7 0.6-0.3 0.3-0.7 0.6-0.3 0.4-0.6 0.7-0.3 0.4-0.6 0.8-0.5 0.7-1 1.5-0.4 0.7-0.9 1.5-0.4 0.8-0.7 1.6-0.4 0.8-0.7 1.7c-0.6 1.8-0.9 3.1-0.9 3.1 0-0.1 0.2-1.3 0.8-3.2q0.2-0.9 0.6-1.7 0.3-0.9 0.7-1.7 0.4-0.8 0.8-1.5 0.5-0.8 1-1.5 0.3-0.4 0.6-0.8 0.3-0.3 0.7-0.7 0.3-0.3 0.7-0.6 0.3-0.4 0.7-0.6 0.4-0.3 0.7-0.5 0.4-0.3 0.7-0.5 0.4-0.2 0.8-0.3 0.4-0.2 0.8-0.4 0.4-0.1 0.7-0.2 0.4-0.1 0.8-0.2 0.5-0.1 0.9-0.1 0.4 0 0.8 0z"/>
				<g id="Layer" style="opacity: .5">
					<path id="Layer" class="s29" d="m679 381.9q-0.2 0.1-0.4 0.2-0.2 0-0.4 0.1-0.2 0.1-0.4 0.2-0.2 0.1-0.4 0.2-0.5 0.3-1 0.7-0.5 0.3-1 0.7-0.4 0.3-0.8 0.7-0.5 0.4-0.8 0.9-0.6 0.6-1.1 1.3-0.4 0.7-0.8 1.4-0.4 0.7-0.7 1.5-0.3 0.8-0.5 1.6-0.2 0.4-0.3 0.9-0.1 0.4-0.2 0.9 0 0.5-0.1 0.9 0 0.5-0.1 1-0.1 1.9-0.2 3.9c0 2.6 0.1 5.2 0.1 7.7q0.1 0.8 0 1.7 0 0.8-0.1 1.6 0 0.9-0.2 1.7-0.1 0.8-0.3 1.7-0.1 0.5-0.2 1.1-0.1 0.6-0.3 1.1-0.2 0.6-0.3 1.2-0.2 0.5-0.4 1.1c-0.3 1.1-0.6 1.7-0.6 1.7 0 0 0.2-0.6 0.6-1.7q0.1-0.6 0.3-1.2 0.2-0.6 0.3-1.1 0.1-0.6 0.3-1.2 0.1-0.6 0.2-1.1 0.1-0.9 0.2-1.7 0.1-0.8 0.2-1.7 0-0.8 0.1-1.6 0-0.9-0.1-1.7c0-2.4-0.2-5-0.1-7.6 0-1.3 0-2.6 0.2-3.9q0-0.5 0.1-0.9 0-0.5 0.1-1 0.1-0.4 0.2-0.9 0.1-0.5 0.2-0.9 0.3-0.8 0.6-1.6 0.3-0.8 0.7-1.5 0.4-0.8 0.9-1.5 0.5-0.7 1.1-1.3 0.4-0.4 0.8-0.8 0.4-0.4 0.9-0.8 0.5-0.4 1-0.7 0.5-0.3 1-0.6 0.2-0.1 0.4-0.2 0.2-0.1 0.4-0.2 0.3-0.1 0.5-0.1 0.2-0.1 0.4-0.2z"/>
				</g>
				<path id="Layer" fill-rule="evenodd" class="s26" d="m289.5 153l-4.5 6.8-3.2-4.5c0 0-2 0-3.8-0.1-1.8-0.1-5.8-0.2-7.3-0.2-1.4 0-4.6 1.2-5.8 1.4-1.1 0.2-2.6-0.8-2.7-1.7-0.1-0.9 2.5-2.5 2.5-2.5q0.1-0.1 0.1-0.2 0-0.1 0.1-0.2 0-0.1 0-0.2 0.1 0 0.1-0.1c0-0.1 0.7-2.3 0.7-2.3 0 0-4 3.3-4.1 3.3-0.1 0-1.1 0.6-1.8 0.1-0.6-0.5 1.4-3.2 2.2-4 0.8-0.7 3.2-2.5 3.2-2.5 0 0-2.2 0.4-2.8 0.5-0.6 0-3.3 1.5-4.3 1.6-1 0.2-1.8-0.1-1.9-0.8 0-0.6 3.1-2.7 4.7-3.3 1.6-0.6 5.7-1.3 5.3-1.6q-0.6-0.5-1.2-1-0.7-0.4-1.3-0.9-0.7-0.4-1.4-0.8-0.6-0.4-1.3-0.8c-1.9-1-2.1-2.9-1.8-3.1 1.1-0.6 1.6-0.2 2.4 0.5 0.8 0.6 4.9 2.3 5.9 3q0.5 0.3 1 0.5 0.5 0.3 1 0.6 0.5 0.3 1 0.5 0.5 0.3 1 0.5 0.4 0.1 0.8 0.2 0.4 0.2 0.8 0.3 0.4 0.2 0.8 0.4 0.4 0.2 0.7 0.4c2.1 1.2 5.6 4 7.6 4.9 2.1 0.9 7.3 5.3 7.3 5.3zm-19.3-1.9q0.4-0.2 0.7-0.5 0.4-0.3 0.8-0.6 0.3-0.3 0.6-0.6-0.3-0.1-0.7-0.2-0.3-0.1-0.7-0.2-0.4 0-0.8 0-0.3 0-0.7 0.1c-0.7 0.2-1.8 1.7-1.8 1.7l-0.3 0.9q0.3 0.1 0.5 0.1 0.3 0 0.6 0 0.2-0.1 0.5-0.1 0.2-0.1 0.5-0.2 0.4-0.2 0.8-0.4z"/>
				<path id="Layer" class="s22" d="m264.8 152q0.1-0.1 0.1-0.2 0-0.1 0.1-0.2 0-0.1 0-0.1c0-0.1 0.8-2.3 0.8-2.3 0 0-4.1 3.3-4.2 3.3-0.1 0-1 0.6-1.7 0.1-0.7-0.5 1.3-3.2 2.1-4 0.9-0.7 3.2-2.5 3.2-2.5 0 0-2.2 0.4-2.8 0.5-0.6 0-3.3 1.5-4.2 1.6-1 0.1-1.8-0.1-1.9-0.8-0.1-0.6 3-2.7 4.6-3.3 1.6-0.7 5.3-1.7 5.3-1.7h0.2c0 0 1.6 0.8 2 1.4 0.3 0.7 0.3 1.3 0.7 1.8 0.4 0.4 1.5 1.5 1.9 1.8 0.3 0.4 1.6 1.7 1.3 2q-0.3-0.1-0.7-0.2-0.3-0.1-0.7-0.2-0.4 0-0.8 0-0.3 0-0.7 0.1c-0.7 0.2-1.8 1.7-1.8 1.7l-0.3 0.9c0 0-2.1 0.5-2.7 0.6l0.2-0.1q0-0.1 0-0.2z"/>
				<path id="Layer" class="s25" d="m284.1 148.2l22 16.5-10.6 11.8-14.8-18.4 3.4-9.9z"/>
				<path id="Layer" class="s30" d="m333.9 349.2c0 0-0.8 5 0 8.1q0.1 0.4 0.2 0.8 0.1 0.5 0.2 0.9 0.1 0.4 0.2 0.9 0 0.4 0.1 0.8c0 2.2-3 4.4-6.7 4-3.7-0.4-7.1-5.1-8-6.3-0.8-1.1-5.2-2.8-6.6-2.9-1.4-0.1-4.5-2-6-5.4-1.5-3.5-0.3-6.8 2.6-7.7 2.8-1 10.7 0.3 10.7 0.3z"/>
				<path id="Layer" class="s30" d="m313.4 355.5c-1.4-0.1-4.5-2-6-5.4q-0.1-0.3-0.2-0.6-0.1-0.3-0.2-0.6-0.1-0.3-0.1-0.6-0.1-0.3-0.1-0.6c2.7 6.1 9.8 7.3 11.5 7.8 2 0.6 3.2 3.2 6 4.9 2.7 1.6 3 0.8 6.5 0q0.5-0.1 1-0.3 0.4-0.2 0.9-0.5 0.4-0.3 0.7-0.6 0.4-0.4 0.7-0.8 0.1 0.3 0.1 0.6 0.1 0.3 0.2 0.6 0 0.4 0.1 0.7 0 0.3 0 0.6c0.1 2.2-2.9 4.4-6.6 4-3.7-0.4-7.2-5.1-8-6.3-0.8-1.1-5.1-2.8-6.5-2.9z"/>
				<path id="Layer" class="s30" d="m292.7 358c0.3 3.4 0.8 9.6-1.5 10-2.2 0.4-10.3-1.7-12.4-2.5-2.2-0.8-5.9-2.1-8.3-1.9q-1.4 0-2.9-0.3-1.4-0.2-2.7-0.7-1.4-0.5-2.6-1.2-1.3-0.7-2.4-1.6c-3.2-2.8-2.6-6.3-1.2-8.6 1.3-2.3 8.1-2.9 10.1-2.9 2 0.1 6.8-0.4 6.8-0.4 0 0 16.8 6.7 17.1 10.1z"/>
				<path id="Layer" class="s30" d="m267.6 363.3q-1.4-0.2-2.7-0.7-1.4-0.5-2.6-1.2-1.3-0.7-2.4-1.6-0.6-0.5-1.1-1-0.4-0.6-0.7-1.3-0.3-0.7-0.5-1.5-0.1-0.7 0-1.5c3.6 6.8 9.9 7.3 13.1 7.3 3.6 0 6.1 0 9.2 1.3q1.1 0.5 2.2 0.8 1.2 0.3 2.4 0.5 1.1 0.2 2.3 0.2 1.2 0.1 2.4 0c1.3-0.2 2.7-0.4 3.7-0.5-0.1 2-0.5 3.7-1.7 3.9-2.2 0.4-10.3-1.7-12.4-2.5-2.1-0.8-5.9-2.1-8.3-1.9q-1.4 0-2.9-0.3z"/>
				<path id="Layer" class="s26" d="m268.8 253.8q1.1 0.6 1.9 1.5 0.8 0.9 1.3 1.9 0.6 1.1 0.8 2.3c1.1 5.3-3.2 10.9-3.2 11.3q0.2 0.4 0.4 0.7 0.2 0.4 0.4 0.7 0.2 0.4 0.4 0.7 0.2 0.4 0.5 0.7c0.3 0.3-1.4 1.1-1.7 0.9q-0.4 0-0.7 0-0.4 0-0.7 0-0.4 0-0.7 0-0.4 0-0.7 0-0.5 0-1 0-0.5 0-1-0.1-0.5 0-1-0.1-0.5-0.1-0.9-0.1-0.3-0.3-0.6-0.5-0.2-0.3-0.5-0.5-0.2-0.3-0.5-0.5-0.2-0.3-0.4-0.5l-2.8-2.8-1-2.2q0-0.6-0.1-1.1 0-0.6 0-1.2 0-0.6 0-1.1 0.1-0.6 0.1-1.2c0.3-1 3.9-5.6 3.9-5.6 0 0 1-2.6 2.1-3.1q0.5-0.2 0.9-0.3 0.4-0.2 0.9-0.3 0.4-0.1 0.9-0.2 0.4-0.1 0.9-0.2 1.1 0.3 2.1 0.9z"/>
				<path id="Layer" class="s22" d="m269.9 271.5q0.2 0.4 0.4 0.7 0.2 0.4 0.5 0.7 0.2 0.4 0.4 0.7c0.3 0.3-1.3 1.2-1.7 1q-0.3-0.1-0.7-0.1-0.3 0-0.7 0-0.3 0-0.7 0-0.3 0-0.7 0.1-0.5 0-0.9-0.1-0.5 0-1 0-0.5-0.1-1-0.2-0.5 0-1-0.1-0.2-0.2-0.5-0.5-0.3-0.2-0.5-0.5-0.3-0.2-0.5-0.5-0.2-0.2-0.5-0.5l-2.7-2.7-1-2.3q-0.1-0.5-0.1-1.1 0-0.6 0-1.1 0-0.6 0-1.2 0-0.6 0.1-1.1 0.1-0.2 0.1-0.3 0.1-0.2 0.2-0.3 0.1-0.1 0.1-0.3 0.1-0.1 0.2-0.3c0 1.4 0 2.9 0.4 3.3 0.8 0.8 2.2 1.9 2.2 2.4 0 0.6 4.4 3.1 4.6 3.2q0.4 0.1 0.8 0.2 0.4 0.1 0.8 0.2 0.4 0.1 0.8 0.1 0.4 0.1 0.8 0.1 0.2 0 0.4-0.1 0.1 0 0.3-0.1 0.2 0 0.4 0 0.2 0 0.3 0 0.2 0.3 0.4 0.7z"/>
				<path id="Layer" class="s21" d="m312.6 242.4c0 0 19.1-4.2 19.9-0.8 0.7 3.3-1.6 15-1.6 15 0 0-0.8 12.8-0.8 20.3 0 7.6-0.2 17.7 1.3 22.5 1.5 4.8 3.6 8.7 3.6 16.4 0 8.8-1.1 38.8-1.1 38.8 0 0-6.8 2.7-13-0.6q-1.3-0.7-2.4-1.8-1-1.1-1.7-2.4-0.6-1.3-0.8-2.8-0.2-1.4 0.1-2.9 0.4-1.5 0.8-3 0.4-1.5 0.6-3 0.3-1.5 0.4-3 0.2-1.6 0.2-3.1c0.2-6.9-1.4-25.1-2.7-29.7-1.3-4.7-6.2-12.3-7.1-19-0.9-6.8-2.2-21.8-2.2-21.8z"/>
				<path id="Layer" class="s23" d="m318.1 250.7c-0.1 7.9-10.2 16.2-10.2 16.2 0 0-7.8 23.2-8.8 26.6-1 3.3-0.4 11.1 0.3 19.7 0.8 8.6-2.3 18.1-3.1 22.3-0.7 4.1-3.6 23.2-3.6 23.2-16.6 1.1-18.5-9.9-18.5-9.9 0 0 1.7-2.3 3.5-8.4 1.8-6 3.2-30.6 3.2-36.9 0-6.2-2.9-19.2-1.7-30q0.4-2.9 0.9-5.8 0.4-2.9 1-5.7 0.6-2.9 1.2-5.7 0.7-2.8 1.4-5.6z"/>
				<path id="Layer" class="s21" d="m294.5 250.7l-1 2.2c0 0-7.1 6.2-7.1 20.8 0 14.6 1.3 30 1.3 33 0 3-2.4 8.1-2.5 11.2-0.1 2.8-1.9 26-5.5 38.2q-1-0.6-1.9-1.4-0.9-0.8-1.6-1.7-0.7-1-1.2-2-0.5-1.1-0.8-2.2c0 0 1.7-2.3 3.5-8.4 1.8-6 3.2-30.6 3.2-36.9 0-6.2-2.9-19.2-1.7-30q0.4-2.9 0.9-5.8 0.4-2.9 1-5.7 0.6-2.9 1.2-5.7 0.7-2.8 1.4-5.6z"/>
				<path id="Layer" class="s24" d="m330 159.4q1.5 0.1 3 0.4 1.5 0.3 3 0.7 1.4 0.4 2.9 0.9c6.9 2.5 7.2 9.4 5.7 16.8-1.5 7.4-12.5 28.9-13.6 31.7-1.1 2.7 0.2 14.7 0.8 18.1 0.6 3.3 2.5 13.8 2.4 15.3 0 1.4-17.7 14-30.2 14.6q-2.7 0.2-5.5-0.1-2.7-0.2-5.4-0.9-2.6-0.6-5.2-1.6-2.5-1.1-4.8-2.5c0 0 4.3-15.1 4.8-16 0.4-1 2.1-27.9 2-33.2-0.2-5.2 1.6-24 4.5-27.8 2.8-3.7 10.3-10.8 11.6-10.8q1.9 0 3.9-0.1 1.9-0.1 3.9-0.3 1.9-0.2 3.8-0.5 1.9-0.4 3.8-0.8c7.9-2 5.5-4.1 5.5-4.1q1.5 0 3.1 0.2z"/>
				<path id="Layer" class="s25" d="m306.1 213.5c-0.9 7.8-6.4 24.4-7.9 29.8-1 3.5-1.7 10.2-2.1 14.2q-1.7-0.3-3.4-0.7-1.7-0.4-3.3-1-1.7-0.6-3.2-1.3-1.6-0.8-3.1-1.7c0 0 4.4-15.2 4.8-16 0.4-0.9 1.8-24.2 2-31.7 5.9-7.6 11.1-14.2 11.1-14.2 0 0 6 14.8 5.1 22.6z"/>
				<path id="Layer" class="s26" d="m306.9 163.3c0.3-1.1 0.8-7.8-0.4-8.9-1.3-1.2-4.4-1.2-5.5-3.7q-0.5-1-0.9-2.1-0.3-1-0.7-2.1-0.3-1-0.5-2.1-0.3-1.1-0.5-2.2c0-1.2 1.3-3.2 0.4-5-0.9-1.8-0.3-5.8 0.7-8.4 1.1-2.7 3.1-7.8 10.8-8.2 7.6-0.4 14.2 1.9 17.1 7.6 3 5.8 2.8 10.3 1.2 14.7-1.5 4.4-3.9 7.7-4 10.1q0 1.1 0.3 2.1 0.2 1 0.7 2 0.4 0.9 1.1 1.8 0.6 0.8 1.4 1.5c0.5 0.5 0.3 3.2-6.9 5.9-7.2 2.7-15.8 0-15.8 0z"/>
				<path id="Layer" class="s22" d="m301 150.8q0.5 0.1 1 0.1 0.5 0 1-0.1 0.5-0.2 0.9-0.4 0.5-0.3 0.8-0.6c0.2 0.5 0.4 0.8 0.7 0.8 1 0 1.6-2.8 1.5-5q0.3-0.5 0.7-1 0.3-0.5 0.7-0.9 0.4-0.5 0.9-0.9 0.4-0.4 0.9-0.8l4.3 2.6c0 0-2.6 13.8-0.4 23q-1.1 0-2.2-0.1-1.1-0.1-2.2-0.2-1-0.2-2.1-0.4-1.1-0.2-2.1-0.5l1.5-3c0.3-1.1 0.8-7.8-0.4-8.9-1.3-1.2-4.3-1.3-5.5-3.7z"/>
				<path id="Layer" class="s31" d="m305.6 119.2c4.6-1.9 14.8-2.6 20.3 3 5.4 5.6 6.2 14.9 2.3 21.8-1.5 3.8-3.5 6.8-3.6 9q-0.4 0.2-0.8 0.3-0.4 0.2-0.8 0.3-0.4 0.1-0.9 0.2-0.4 0.1-0.8 0.2c-4.4 0.6-7.4 0-9.3-2-2-2-2.7-7-4.1-8.4-1.5-1.3-3.9-0.7-4.6-0.7-0.6 0-1.1-1.2-1.1-1.6-0.1-0.5 0.3-4.2-0.6-5.3q-0.3-0.4-0.5-0.8-0.2-0.4-0.3-0.9-0.1-0.5-0.2-0.9 0-0.5 0-1 0.1-0.3 0.2-0.7 0-0.4 0.1-0.7 0-0.4 0-0.8 0.1-0.3 0.1-0.7-0.1-0.4-0.1-0.8-0.1-0.4-0.1-0.7-0.1-0.4-0.2-0.8 0-0.4-0.1-0.7-0.3-0.2-0.4-0.4-0.2-0.2-0.4-0.5-0.1-0.3-0.2-0.5 0-0.3 0-0.6c-0.1-1.9 1.4-3.4 6.1-5.3z"/>
				<path id="Layer" class="s32" d="m328.6 142.9c-1.5 4.3-3.9 7.7-4 10.1q-0.4 0.2-0.8 0.3-0.4 0.2-0.8 0.3-0.4 0.2-0.8 0.2-0.5 0.1-0.9 0.2c-4.3 0.6-7.4 0-9.3-2-2-2-2.7-7-4.1-8.4-1.5-1.3-3.9-0.7-4.6-0.7-0.6 0-1.1-1.2-1.1-1.6q0-0.6 0-1.1 0-0.6 0-1.1 0-0.6-0.1-1.1 0-0.6-0.1-1.1c2.3 1.3 9.5 4.8 16.9 5.6q1.3 0.1 2.6 0.1 1.2 0.1 2.5 0 1.2-0.1 2.5-0.3 1.2-0.1 2.4-0.4-0.1 0.5-0.3 1z"/>
				<path id="Layer" class="s24" d="m280.8 227.9c-0.1 0 2.3-7.2 3.2-11.8 0.9-4.6 1.6-11.1 2.3-20.5 0.8-9.3 2.6-15.2 8.3-21.1 3.6-3.8 8.6 8.5 9.6 12.4 1 3.8 0.4 17.9-0.8 23.4-1.3 5.4-6.4 21.5-9.7 26.2-3.4 4.7-19.1 24.3-19.1 24.3-8.7-1-9-7.7-9-7.7z"/>
				<path id="Layer" class="s25" d="m327.1 161.4c1.1-1 8.4 1.3 10.4 6.6 2 5.3 1.1 15.1-9.2 17.4-20.7 4.7-28.8-13.1-27.4-15.4 2.9-4.8 8.1-3.7 12.5-4q1.3 0 2.6-0.2 1.4-0.2 2.7-0.4 1.3-0.3 2.6-0.7 1.2-0.4 2.5-0.9c1-0.4 1.3-0.2 3.3-2.4z"/>
				<path id="Layer" class="s24" d="m327.1 158.9c1.1-1 8.4 1.3 10.4 6.6 2 5.2 1.1 15.1-9.2 17.4-20.7 4.7-28.8-13.2-27.4-15.4 2.9-4.8 8.1-3.7 12.4-4q1.4-0.1 2.7-0.2 1.4-0.2 2.7-0.5 1.3-0.3 2.6-0.7 1.2-0.3 2.5-0.9c1-0.3 1.3-0.2 3.3-2.3z"/>
				<path id="Layer" class="s25" d="m324.3 173.7c10.1-1.8 7.1-11.4 7.1-11.4 0 0 5.1 10.8-7 12.6q-2.6 0.5-5.1 0.2-2.6-0.2-5-1.1-2.4-0.9-4.5-2.4-2.1-1.5-3.7-3.5c0 0 10.7 7 18.2 5.6z"/>
				<path id="Layer" class="s33" d="m92 577.8c3.6 2.1 6 5.8 13.2 9.5 4.2 2.1 14.3 3.8 13.9-0.9q0-0.1 0-0.2-0.1-0.1-0.1-0.2 0-0.1 0-0.2 0 0-0.1-0.1 0.1 0.2 0.2 0.4 0.1 0.3 0.2 0.5 0.1 0.3 0.2 0.5 0 0.3 0 0.6c0.4 4.6-9.7 2.9-13.8 0.8-7.2-3.6-9.6-7.4-13.2-9.5-0.5-0.3-1-0.5-1.6-0.8v1.1l-7.1-3.4q-0.2-0.3-0.2-0.6-0.1-0.3-0.2-0.6 0-0.4 0-0.7-0.1-0.3-0.1-0.6c1 0.8 6.2 2.9 8.7 4.4z"/>
				<path id="Layer" class="s33" d="m100.6 566.4q0.2 0.6 0.5 1.3 0.2 0.7 0.5 1.3 0.3 0.6 0.7 1.2 0.4 0.6 0.8 1.2 0.3 0.4 0.7 0.8 0.4 0.3 0.8 0.7 0.4 0.3 0.9 0.6 0.4 0.3 0.9 0.6c4.1 1.8 12.3 8.1 12.7 12.3 0.4 4.6-9.7 2.9-13.9 0.8-7.2-3.6-9.6-7.4-13.2-9.5-2.7-1.5-8.5-3.9-8.8-4.5q-0.1-0.6-0.2-1.2 0-0.6 0-1.3 0-0.6 0.1-1.2 0.1-0.6 0.3-1.1c11.1 6.7 13.6-1.3 17.2-2z"/>
				<path id="Layer" class="s33" d="m76.4 583.6c-0.3 2.7 2.5 6.7 2.8 7 1.4 1.8 13.1 14.5 7.2 17.6-6 3.1-16.1-2.2-18.2-6.7-2.2-4.6-1.8-7.6-4.5-10.3-1.6-1.5-3.5-3.7-4.1-6.3q-0.1-0.5-0.1-1.1 0-0.5 0.1-1 0.1-0.5 0.2-1 0.2-0.5 0.4-1c0.4-0.7 3.5 5.7 6.7 6.1 2.8 0.5 7.4-2.4 9.5-3.3z"/>
				<path id="Layer" class="s33" d="m63.7 591.3c2.7 2.6 2.3 5.7 4.5 10.2 2.1 4.5 12.1 9.8 18.1 6.7q0.3-0.1 0.6-0.3 0.2-0.2 0.4-0.5 0.2-0.2 0.4-0.5 0.1-0.3 0.2-0.6 0 0.5 0 0.9-0.1 0.4-0.3 0.7-0.2 0.4-0.5 0.7-0.3 0.3-0.7 0.5c-5.7 3-16-2-18-6.3-2-4.2-1.7-7-4-9.4l-0.1 0.8q-0.6-0.6-1.2-1.2-0.7-0.7-1.2-1.3-0.6-0.7-1-1.4-0.5-0.8-1-1.5l0.2-2.7q0.3 0.7 0.7 1.4 0.4 0.7 0.8 1.4 0.5 0.6 1 1.2 0.5 0.6 1.1 1.2z"/>
				<path id="Layer" class="s34" d="m87.8 474.2v-16.7c0 0 14.9 2 21.1-5.8 0 0 3.8 36.3 1.5 51.5-2.3 15.2-5.3 38.7-6 45.3-0.7 6.7-2.4 17.9 0.8 24.2 0 0-13.5 4.5-21.8-1.9l2.2-30.5z"/>
				<path id="Layer" class="s35" d="m96.4 458.4c0 0-0.8 18.4-2.2 23.6q-0.3 1.2-0.6 2.5-0.2 1.2-0.5 2.4-0.2 1.3-0.4 2.6-0.2 1.2-0.4 2.5c-1.3 10.4-3 27.9-3.5 32.3-1 8.5-4.3 25.1-5.2 30.9-0.9 5.8-3.8 35.2-3.8 35.2 0 0-14.2-0.4-20.4-8.4 0 0 1.9-26 3-34.4 1.1-8.4 3.4-9.4 3.9-15.3 0.5-5.6-2.9-28.7-2.8-43.1 0.1-14.3 5.4-33.9 5.4-33.9 0 0 2.8 6.6 27.5 3.1z"/>
				<path id="Layer" class="s36" d="m96.4 386.9c0 0 8.2 23.8 8 33.5-0.1 9.7 2.5 33.2 2.5 33.2 0 0-1.9 3.7-9.6 5.1q-1.6 0.3-3.2 0.5-1.5 0.2-3.2 0.3-1.6 0-3.2 0-1.6-0.1-3.1-0.3c-1.1-0.2-10.1-43.6-12.4-49.8-2.3-6.3 1.4-23.4 1.4-23.4 0 0 8.4 7.7 15.3 5 7-2.7 7.5-4.1 7.5-4.1z"/>
				<path id="Layer" class="s37" d="m85.6 395c0 0 1.1-3.9 3.4-4.7 2.2-0.9 4.7 2.6 4.7 2.6q0 0.7-0.1 1.3 0 0.7-0.1 1.3-0.1 0.7-0.2 1.4-0.2 0.6-0.3 1.2c1.4 2.4 3.5 8 4.7 16.9 1.1 8.8 5.3 35.6 5.3 35.6l-4.5 6.1-3.9-3.7c0 0-0.5-20.1-1.4-30.6-0.8-9.2-2-18.2-2.3-23.4-2.1-0.9-5.3-4-5.3-4z"/>
				<path id="Layer" class="s22" d="m73.4 371l19.7 8.4c0 0 0.8 10.2-3.9 11.6-4.7 1.3-17-10.6-17-10.6 2.1-2.4 1.2-9.4 1.2-9.4z"/>
				<path id="Layer" class="s38" d="m91.7 380.1h1.2c3.6 6.8 1.9 16 1.9 16l-5.8-5.8c4.7-3.2 2.7-10.2 2.7-10.2z"/>
				<path id="Layer" class="s38" d="m72.2 379.2c0 0 2.1 6.8 16.7 11l-2.3 8.1c0 0-11.8-7.3-17.6-15.8z"/>
				<path id="Layer" class="s23" d="m99.1 379.4c2.2 1.4 9.2 16.2 9.9 22.9 0.8 6.7-0.7 28.1-0.4 35.6 0.3 7.6 6.5 36.9 6.5 36.9-4.3 12.4-7.4 4-7.8 2.1-2.9-15.6-4.2-49.4-6.3-65.7-2.2-16.2-10.2-30.4-10.2-30.4l2.5-2.7z"/>
				<path id="Layer" class="s20" d="m90.8 380.8l3.8-1.4 8.3 13.3-2.5 3.4c0 0 4.4 0.7 5 1 0.6 0.2 0.9 14 0.3 22.6-0.4 4.8-1.5 11.5-2.3 16.5-0.8-9.4-1.6-18.3-2.4-24.9-2.2-16.3-10.2-30.6-10.2-30.6z"/>
				<path id="Layer" class="s23" d="m70.7 380.8c0-0.1 6.3 11.6 10.1 17.5 3.9 5.9 9.9 23.1 10.5 34.1 0.6 11.1 0.2 50-1.7 54.2-1.9 4.2-31.1-5.2-31.1-5.2 0 0 2.9-21.7 5-30.6 2-8.9-3.2-27.3-6.3-32.2-3.1-4.9-6.6-19.2-3.4-22.5 3.1-3.4 15.7-14.9 16.9-15.4z"/>
				<path id="Layer" class="s20" d="m66.6 383.8l4.1-3.1c0 0 6.3 11.7 10.1 17.6 3.9 5.9 9.9 23.1 10.5 34.1 0.1 2.2 0.1 5.4 0 9.2-1.3-4.5-3.8-10.5-4.7-13-3.4-9.7-12.4-19.9-11.7-21.1 0.7-1.2 4.1-4.1 4.1-4.1l-4.7 0.5c0 0-5.6-12.7-7.7-20.1z"/>
				<path id="Layer" class="s39" d="m74.6 373c-1.2 1-4.5-2.5-5.4-4-1-1.6-1.5-3.3 0.3-4.3 1.7-0.9 3.4 1.2 3.4 1.2 0 0 2.9 6 1.7 7.1z"/>
				<path id="Layer" class="s26" d="m90.2 346.4c2.9 1.6 5.4 6.2 6.6 9.3q0.3 0.6 0.5 1.3 0.2 0.7 0.4 1.5 0.1 0.7 0.2 1.4 0 0.7 0 1.5c-0.1 0.7-1.2 1.9-0.7 2.9 0.5 1 0.5 3.9 0.2 5.8-0.3 1.8-1.2 4.5-1.4 6.1-0.1 1.7 0.6 5.9-3.7 6.6-4.3 0.8-14.1-3-17.5-8-3.4-5-7.3-9.1-7.8-15.2-0.5-6.1 1.6-11.4 6.7-14.8 5.1-3.4 11.8-1.1 16.5 1.6z"/>
				<path id="Layer" class="s22" d="m94.4 374.2c-0.1-0.2 1.5 0 2.2-0.6q-0.1 0.3-0.2 0.7-0.1 0.3-0.2 0.6 0 0.3-0.1 0.7 0 0.3-0.1 0.7c-0.1 1.5 0.4 5-2.5 6.2-0.7-2.6 0.9-8.1 0.9-8.3z"/>
				<path id="Layer" class="s22" d="m97.4 370.1c-0.1 0.8-0.4 2-0.7 3 0-1.2-1.3-3.8-2-5.8-0.8-2.5 0.2-2.8 1.3-3.7q0.2-0.3 0.5-0.5 0.2-0.3 0.5-0.5 0.3-0.3 0.5-0.6 0.2-0.2 0.5-0.5c-0.2 0.8-1.2 1.9-0.7 2.8 0.4 0.9 0.4 3.9 0.1 5.8z"/>
				<path id="Layer" class="s31" d="m86.3 341.8c7.5 1.3 11.2 7.3 11.4 9.6q0 0.4 0 0.8-0.1 0.4-0.4 0.8-0.2 0.4-0.5 0.6-0.4 0.3-0.8 0.4-0.1 0.5-0.3 0.9-0.3 0.5-0.6 0.9-0.3 0.4-0.7 0.7-0.4 0.3-0.9 0.4c-2.6 0.8-10.1-0.8-11.5 1.2-1.5 2.1-1.5 3.6-2.6 4.4-1.2 0.9-3 5.9-3 6.4 0 0.4-4-4-7.7-3.4q-0.5-0.9-0.8-1.8-0.4-0.9-0.6-1.9-0.2-1-0.3-1.9-0.1-1-0.1-2c-2.1-15.1 11.9-17.5 19.4-16.1z"/>
				<path id="Layer" class="s32" d="m68.7 365.5q-0.4-0.9-0.8-1.8-0.3-1-0.5-1.9-0.3-1-0.4-2-0.1-1-0.1-1.9c3.8 2.8 10.5 3.7 13.1 4q0 0-0.1 0.1-0.1 0.1-0.2 0.2 0 0.1-0.1 0.2-0.1 0.1-0.2 0.1c-1.2 0.9-3 5.9-3 6.4 0 0.4-4-4.1-7.7-3.4z"/>
				<path id="Layer" class="s26" d="m78.6 440.4c0 0 5.1 0.4 7.4-0.5 2.3-0.9 8.6-2.2 11.8-1 3.3 1.2 8.1 3.6 10 5.8 2.1 2.3 1.1 3.6-0.2 3.6 0 0 2.1 1.4 0.9 2.7-0.6 0.7-2.9 0-2.9 0 0 0 1.4 1.3 0 2q-0.3 0.2-0.7 0.3-0.4 0.1-0.8 0.1-0.4 0-0.8 0-0.4-0.1-0.8-0.2c-0.2-0.1-0.1 1.1-0.7 1.4-1.2 0.6-4.3-0.6-6.3-1.4q-0.9-0.2-1.9-0.4-1-0.2-1.9-0.4-1-0.1-2-0.2-1-0.1-1.9-0.2c-1.9-0.1-5.6-2.3-7.6-2.6q-0.8-0.1-1.6-0.1-0.9 0-1.7 0-0.8 0-1.7 0-0.8 0.1-1.6 0.2z"/>
				<path id="Layer" class="s22" d="m75.1 446.7c3.9-0.2 10.8 2.6 12.9 3.8 2.4 1.3 7.7 1.7 8 1.1 0.4-0.7 3-1 3.4-1.2 0.4-0.1 0.2-2 0-2.4-0.2-0.4 0.8-0.7 1.7-0.6 1 0.2 0.4-2.4 0.4-3.4 0-0.9 0.9 0.3 1.8 0.8 0.9 0.4 4.1 3.5 4.3 3.5 0 0 2.1 1.4 0.9 2.8-0.6 0.7-2.9 0-2.9 0 0 0 1.3 1.3 0 2q-0.3 0.2-0.7 0.2-0.4 0.1-0.8 0.2-0.4 0-0.8-0.1-0.4 0-0.8-0.1c-0.2-0.1-0.1 1.1-0.7 1.3-1.2 0.6-4.3-0.6-6.3-1.3q-0.9-0.3-1.9-0.5-1-0.2-1.9-0.4-1-0.1-2-0.2-1-0.1-2-0.1c-1.8-0.1-5.6-2.3-7.5-2.7q-0.8-0.1-1.6-0.1-0.9 0-1.7 0-0.9 0-1.7 0.1-0.8 0-1.6 0.1z"/>
				<path id="Layer" class="s40" d="m82 440.2h2.2c0 0-3 6.1-1.3 11.9h-3.6q-0.2-0.8-0.3-1.6-0.1-0.8-0.2-1.6 0-0.7 0-1.5 0-0.8 0.1-1.6 0.1-0.9 0.3-1.7 0.2-0.8 0.6-1.5 0.4-0.7 1-1.3 0.5-0.7 1.2-1.1z"/>
				<path id="Layer" class="s20" d="m82.9 439.7c0 0-4 8-1.4 13.9 0 0-26.4 0.2-33.2-1.6-2.8-0.7-5.5-1.2-6.8-2.7-1.7-2.2-1.4-5.6-1.2-8.7 0.4-5.4 4.5-23.7 6.9-30.9 2.3-7.2 4.4-17 13.3-15 8.9 2 7.1 17.4 4.1 23.9-2.9 6.6-9 19.8-9 19.8z"/>
				<path id="Layer" class="s26" d="m157.5 405l7.1-2.4c0 0 1-5.3 1.4-6.1 0.3-0.8 5.6-3.2 6.1-3.5 0.6-0.4 2.4-0.6 2.6 0.4 0 0 3.1-1.8 5.3-3 2.2-1.2 5.5-2.8 6.3-1.4 0.9 1.3 0.1 1.7-1.7 2.9-1.9 1.2-6.4 4-6.4 4l0.9 0.3c0 0 3.8-2 4.6-2q0.4 0 0.7 0.2 0.3 0.2 0.5 0.4 0.2 0.3 0.4 0.6 0.1 0.3 0.1 0.6 0 0.4 0 0.7 0 0.3 0 0.6-0.1 0.3-0.1 0.6-0.1 0.4-0.2 0.7c-0.1 0.2 1.5 0.3 1.3 1.6q0 0.4-0.1 0.7-0.1 0.3-0.3 0.6-0.2 0.3-0.4 0.6-0.2 0.3-0.5 0.5-0.2 0.2-0.4 0.3-0.3 0.1-0.5 0.2-0.3 0.2-0.6 0.3-0.2 0-0.5 0.1 0.1 0.1 0.3 0.2 0.2 0 0.3 0.1 0.2 0.1 0.4 0.1 0.1 0 0.3 0.1c0.5 0 2.1 0.6 1.8 1.6-0.4 1.1-1 1.8-3 1.8q-0.8 0-1.6 0.1-0.7 0.1-1.4 0.3-0.8 0.2-1.5 0.5-0.7 0.3-1.3 0.7c-1.1 0.9-5 1.2-6.8 1.2q-0.8 0-1.7 0.2-0.8 0.1-1.6 0.3-0.9 0.3-1.7 0.6-0.8 0.3-1.5 0.7c-2 1-3.6 1.8-3.6 1.8z"/>
				<path id="Layer" class="s22" d="m170.2 398.6c0 0-1.8 0.6-2 1.6-0.3 1 0.9 2.4 0.8 3.7q0 0.4 0.1 0.7 0 0.3 0.2 0.6 0.2 0.4 0.4 0.6 0.2 0.3 0.5 0.5c-0.6 0.9 0.6 3.1 2.3 3.1q0.4-0.1 0.8-0.2 0.4 0 0.8-0.2 0.4-0.1 0.7-0.2 0.4-0.2 0.8-0.4 0.1-0.4 0.1-0.8 0.1-0.5 0-0.9 0-0.5-0.1-0.9-0.1-0.5-0.2-0.9c-0.8-1-1.9-0.2-0.5-1.8 1.4-1.6 2.8-2.8 2.6-4.7q-0.1-0.3-0.1-0.7 0-0.3 0.1-0.7 0.1-0.3 0.3-0.6 0.1-0.3 0.4-0.6l0.9 0.4c0 0 1.7-0.9 3.1-1.5 0.2 0.3 0.4 0.9 0.1 1.3-0.5 0.6-2.2 1.8-1.7 3q0 0.2 0.1 0.4 0.1 0.2 0.2 0.4 0.1 0.2 0.3 0.4 0.1 0.2 0.3 0.3c0.1 0.1-2.1 1-1.3 2.2 0.9 1.1 2.9 0.8 2.9 0.8q0.1 0 0.2 0.1 0.1 0 0.2 0.1 0.1 0 0.2 0 0.1 0.1 0.2 0.1c-0.8 0.2-2.3 0.7-2.6 1.4-0.5 1-0.4 2 0.1 2.3q-0.5 0.1-1 0.2-0.6 0.2-1.1 0.4-0.5 0.1-0.9 0.4-0.5 0.2-1 0.5c-1.1 0.9-5 1.2-6.8 1.2q-0.8 0-1.7 0.2-0.8 0.1-1.6 0.3-0.8 0.3-1.6 0.6-0.8 0.3-1.6 0.7c-2 1-3.6 1.8-3.6 1.8l-0.6-2c2.3-1.7 5.5-5.6 5.4-6.3q-0.1-0.4-0.2-0.8 0-0.4-0.1-0.7-0.1-0.4-0.2-0.8-0.1-0.3-0.2-0.7c-0.1-0.2 0.4-1.8 0.7-3.5 0.7-0.3 1.9-0.7 3-1.1q0.2-0.1 0.5-0.3 0.2-0.2 0.2-0.5 0.1-0.3 0-0.6 0-0.3-0.3-0.5c-0.1-0.1 2.6 0.8 2.7 0.8 0.8 0 3.5-1.8 3.5-1.8q-0.4 0.3-0.8 0.6-0.4 0.3-0.8 0.5-0.4 0.3-0.7 0.6-0.4 0.3-0.7 0.6-0.2 0.2-0.4 0.4-0.2 0.1-0.4 0.3-0.2 0.2-0.4 0.3-0.3 0.1-0.5 0.3z"/>
				<path id="Layer" class="s40" d="m161.9 403l2.2-0.8 3 11.1-3 1-2.2-11.3z"/>
				<path id="Layer" class="s23" d="m109 402.3c-0.7-6.5-7.2-20.5-9.7-22.7q1.3 0.4 2.6 0.9 1.2 0.5 2.4 1.2 1.2 0.7 2.3 1.6 1 0.8 2 1.8c2.2 2.4 16.2 17.6 18.8 19.7 2.6 2.2 7.1 5.6 7.1 5.6 0 0 5.9-1.9 11.9-3.3 6-1.5 15.8-4.6 15.8-4.6l4 13.7c0 0-21.5 7.7-27.4 9.9-5.9 2.3-9.7 0.9-14-2.7-3.1-2.7-11.5-9.5-15.6-12.8q0.1-1 0.1-2.1 0-1-0.1-2.1 0-1-0.1-2.1 0-1-0.1-2z"/>
				<path id="Layer" class="s21" d="m109 402.3c-0.4-3.3-2.2-8.5-4.3-13.1q0.6 0.4 1.2 0.9 0.6 0.6 1.1 1.1 0.6 0.6 1.1 1.1 0.5 0.6 0.9 1.3c3.8 5.3 8.1 12.7 12 18 3.6 5 10.8 9.8 12 15.1-3 0.1-5.5-1-8.2-3.3-3.2-2.7-11.6-9.5-15.6-12.8q0-1 0-2.1 0-1 0-2.1 0-1-0.1-2.1 0-1-0.1-2z"/>
				<path id="Layer" class="s41" d="m540.3 313.9q1 0.6 2 1.3 1 0.6 2 1.3 1 0.7 1.9 1.4c1.3 1 6.1 4.8 5.5 6.1-0.7 1.3-12.9 2.5-16.2 1.2-3.4-1.3-4.5-6.2-5.3-7.7-0.7-1.5-5-4.4-5-4.4l0.4 4.4-0.3 0.7-0.7-0.3-1.7-6.3q-0.8-0.5-1.4-1.2-0.7-0.8-1.1-1.6-0.4-0.9-0.6-1.8-0.2-1-0.2-1.9c0.3-2.5 3.5-4.5 3.6-4q0 0.8 0.1 1.6 0.1 0.8 0.3 1.6 0.2 0.8 0.5 1.6 0.2 0.7 0.6 1.4c1.3 2.7 8.2 10.9 9.8 12.2 1.6 1.3 4.8 1.7 5.8-0.9 1-2.6-2.1-5.9-2.1-5.9q1 0.6 2.1 1.2z"/>
				<path id="Layer" class="s41" d="m508.3 350.7c-1.6 0.1-11.6-3.6-12.9-5.8-1.3-2.3-1.6-10.9-2.2-13.8-0.6-2.9-1.7-6.9-1.3-10.2q0.1-0.8 0.4-1.4 0.2-0.7 0.6-1.3 0.4-0.6 1-1.1 0.5-0.5 1.1-0.9l0.2 1.3q-0.3 0.4-0.5 0.8-0.2 0.5-0.3 1-0.1 0.5-0.2 1-0.1 0.5-0.1 1 0 1.7 0.1 3.5 0 1.8 0.2 3.5 0.2 1.8 0.5 3.5 0.3 1.8 0.7 3.5c1.2 4.8 5.4 4.8 8.4 4.8 3-0.1 2.4-2.2 2.4-2.2 2.9 3.5 3.5 12.7 1.9 12.8z"/>
				<path id="Layer" class="s26" d="m510.6 222.1c1.2-5.5 20.2-11.4 20.2-11.4 0 0 4.4 11.2 5.1 19.8 0.8 8.7-1.6 26.8-2.2 32.7-0.5 5.9 0 12.1-0.2 16.3-0.2 4.1 0 21.1 0.6 23.4 0.6 2.3 3.1 9.1 4.1 9.8 0 0 3.1 3.3 2.1 5.9-1 2.6-4.2 2.2-5.8 0.9-1.6-1.3-8.5-9.5-9.8-12.2q-0.4-0.7-0.6-1.4-0.3-0.8-0.5-1.6-0.2-0.7-0.3-1.5-0.1-0.8-0.1-1.6 0.1-0.1 0.3-0.1 0.2-0.1 0.3-0.2 0.1-0.2 0.2-0.3 0.1-0.2 0.2-0.4c0.4-1.5-2.7-11.4-6-19.5-3.2-8.2 0.2-13.2 0.8-15.5 0.7-2.3-1-7.9-3.4-13.9-2.4-6-6.3-23.8-5.1-29.2z"/>
				<path id="Layer" class="s26" d="m486.5 221.1c0-4.6 5.6-5.1 11.4-4.6 5.7 0.4 13.8 5.6 13.8 12.8-0.1 7.3-1.7 41.5-2.3 45.2-0.6 3.6-3.9 9.8-4.5 12.5-0.7 2.7-1.6 19.6-1.8 25.3q0 2.4 0.1 4.8 0.1 2.4 0.2 4.8 0.2 2.4 0.5 4.8 0.2 2.3 0.6 4.7 0.1 0.9 0.3 1.7 0.1 0.8 0.4 1.6 0.2 0.8 0.5 1.6 0.4 0.8 0.7 1.6c0.3 0.5 0.6 2.1-2.4 2.2-3 0-7.2 0-8.4-4.8q-0.4-1.7-0.7-3.5-0.3-1.7-0.5-3.5-0.2-1.7-0.2-3.5-0.1-1.8-0.1-3.5 0-0.5 0.1-1 0.1-0.5 0.2-1 0.1-0.5 0.3-1 0.2-0.4 0.5-0.8l-0.2-1.3c0.6-1.3-2-11.1-4-17.4-1.9-6.3-1.7-13.5 1.1-18.2 2.8-4.8 3.3-8 1-17.1-2.3-9-6.5-37.8-6.6-42.4z"/>
				<path id="Layer" class="s22" d="m492.1 280.6c2.7-4.8 3.3-8 1-17.1-2.3-9-6.5-37.8-6.6-42.4 0-3.4 2.9-4.5 6.6-4.7q-0.5 1.9-0.8 3.8-0.4 1.9-0.6 3.8-0.2 2-0.3 3.9-0.2 2-0.1 3.9c0.5 10.2 5.7 34.9 6.1 41.8 0.4 6.9-5 10.9-5.3 18.4-0.4 7.4 4.2 22.9 4.3 25.4 0 1.3-1.2 4.4-2.3 7.1-0.1-1.3-0.1-2.5 0-3.2q0-0.5 0.1-1 0-0.5 0.2-1 0.1-0.5 0.3-1 0.2-0.4 0.5-0.8l-0.2-1.3c0.6-1.3-2-11.2-4-17.4-1.9-6.3-1.7-13.5 1.1-18.2z"/>
				<path id="Layer" class="s22" d="m523.2 301.2q0.1-0.1 0.3-0.1 0.2-0.1 0.3-0.2 0.1-0.2 0.2-0.3 0.1-0.2 0.2-0.4c0.4-1.5-2.7-11.4-6-19.5-3.2-8.2 0.2-13.2 0.8-15.5 0.7-2.3-1-7.9-3.4-13.9-2.4-6-6.3-23.8-5.1-29.2 0.7-2.7 5.5-5.5 10.3-7.7 4.2 15.4 4.3 44.6 3.4 49-1.1 5.3-0.9 16.6 1.7 24 2.5 7.4 1 13.1 1.1 15.7 0.1 2.5 0.7 2.3 2.8 7.5q0.2 0.5 0.4 1.1 0.1 0.6 0.2 1.1 0.1 0.6 0.2 1.2 0 0.6 0 1.2-0.8-0.9-1.6-1.9-0.8-0.9-1.5-1.9-0.8-1-1.5-2-0.7-1-1.4-2.1-0.3-0.7-0.5-1.4-0.3-0.8-0.5-1.6-0.2-0.7-0.3-1.5-0.1-0.8-0.1-1.6z"/>
				<path id="Layer" class="s42" d="m533 215c0 0 4.7 9.2 3.5 24.3-0.7 7.3-0.6 11.4-1.4 13.8-0.2 0.3-2.6 2.1-5.8 3.3-6.3 2.5-26.9 9.6-31.4 9.2-4.5-0.5-5.4-2.1-5.4-2.1 0 0-4-23.4-5.2-29.6-1.3-6.1-1.2-13.3-0.2-16.1 1-2.8 14.8-5.3 14.8-5.3 0 0 26.4-11.7 31.1 2.5z"/>
				<path id="Layer" class="s41" d="m501.9 212.5c0 0 26.4-11.7 31.1 2.5q0.2 0.4 0.3 0.7 0.2 0.4 0.3 0.8 0.2 0.4 0.3 0.7 0.2 0.4 0.3 0.8-1.2 0.9-2.5 1.6-1.3 0.8-2.7 1.4-1.3 0.6-2.8 1-1.4 0.5-2.9 0.8c-10 2-25.9 2.1-28 5.8-1.8 3.4 2.6 24.9 3.4 36.9q-0.1 0-0.3 0-0.1 0-0.2 0-0.1 0-0.2 0-0.1 0-0.2 0c-4.5-0.4-5.4-2-5.4-2 0 0-4-23.5-5.2-29.6-1.2-6.1-1.2-13.3-0.1-16.1 1-2.8 14.8-5.3 14.8-5.3z"/>
				<path id="Layer" class="s29" d="m487.6 154q0-0.6 0.1-1.2 0-0.6 0-1.2 0.1-0.6 0.2-1.2 0-0.6 0.1-1.2c0.4-3.4 2.1-7.6 3.1-10.5 0.9-2.9 1.3-8.3 1.5-10.4 0.2-2.1 9.6-10.6 9.6-10.6l17.9 1.3q0.2 0.5 0.3 1.1 0.1 0.6 0.2 1.1 0 0.6-0.1 1.2-0.1 0.5-0.2 1.1c-0.6 3-5.4 23.9-4 26.6 1.4 2.6-28.7 3.9-28.7 3.9z"/>
				<path id="Layer" class="s22" d="m515 139.1c0 0 8.4 20.9 7.7 24.1-0.7 3.2-10.2 0.5-15.8-5.5-5.5-6-9.7-15.3-8.8-18.5 0.9-3.1-0.4-7.4-0.4-7.4z"/>
				<path id="Layer" class="s22" d="m497.7 131.8l17.4 7.3c0 0 0.7 1.8 1.7 4.4q-0.7 0.1-1.4 0.2-0.7 0-1.3-0.1-0.7 0-1.4-0.2-0.7-0.1-1.3-0.3c-3.6-1.3-8.9-4.4-9.8-3.4q-0.3 0.4-0.5 0.8-0.1 0.5-0.2 0.9 0 0.5 0.1 1 0.2 0.4 0.4 0.8c0.7 0.9 4.9 6.1 8.3 8.1l8.9 8.8-3.6-11.9c0 0 0.8-3.1 0.8-3.7 0-0.2 0.6-0.3 1.3-0.3 2.4 6.4 6.1 16.8 5.6 19-0.7 3.1-10.2 0.5-15.7-5.5-5.6-6-9.7-15.4-8.8-18.5 0.9-3.2-0.5-7.4-0.5-7.4z"/>
				<path id="Layer" class="s21" d="m521.7 142l2.1-1.8q1.2 0.6 2.3 1.3 1 0.8 1.9 1.7 0.8 1 1.5 2.1 0.6 1.1 1.1 2.4c1.5 5.3 5.5 19.3 7 22.3 1.6 3 6.7 11.5 6.7 11.5l-6.1 3.4z"/>
				<path id="Layer" class="s23" d="m518.5 214.8c0 0-1.1 7.9-7 8.7-21.5 2.8-25.7-1.2-25.7-1.2q0-1.7 0.3-3.4 0.3-1.7 0.8-3.4 0.5-1.7 1.3-3.2 0.8-1.6 1.7-3.1c2.9-4.4 6.7-11.8 6.8-13.5 0.1-1.7 11.6 0.8 11.6 0.8l19.3-4c0 0 3.2 9.2 3.5 11.1 0.3 1.9 3.8 11.5 3.8 11.5 0 0-4.5 3.5-7.1 4.2-1.7 0.5-7.4 4.2-9.3-4.5z"/>
				<path id="Layer" class="s21" d="m496.7 195.7c0.1-1.6 11.5 0.8 11.5 0.8l19.4-4c0 0 3.2 9.2 3.5 11.1 0.3 1.9 3.8 11.5 3.8 11.5 0 0-4.5 3.5-7.1 4.2-1.7 0.5-7.4 4.2-9.3-4.5 0 0 0 0.3-0.1 0.8l-1.4-12.2c0 0-10 6-14.7 6.6-4.3 0.5-12.2 6.9-13.6 13.7q-0.4-0.1-0.8-0.2-0.4-0.2-0.8-0.3-0.3-0.2-0.7-0.4-0.3-0.2-0.7-0.5 0.1-1.7 0.4-3.4 0.2-1.7 0.8-3.4 0.5-1.7 1.3-3.2 0.7-1.6 1.7-3.1c2.9-4.3 6.7-11.8 6.8-13.5z"/>
				<path id="Layer" class="s23" d="m500.2 150c0 0 16.3 12.7 23.6 33.1 0 0 7.8-17.6-7-36.2l-1.7-7.5 8.8 0.8c0 0 1.6 8 3 12.5 1.4 4.4 8.7 14.7 8.9 20.8 0.3 6.1-8.2 20-8.2 20l-23.8 6.9-14.4-36.5-4.6-7.9 11.4-13.7z"/>
				<path id="Layer" class="s36" d="m515.6 148.1l0.8-2.5 0.3 1.4c14.9 18.5 7 36.1 7 36.1-5.7-16.3-17.2-27.6-21.7-31.6 2.3-0.3 5.9-0.8 7.3 0.2 2 1.5 10.5 10.4 10.5 10.4z"/>
				<path id="Layer" class="s43" d="m516.7 147l-1.7-7.6 2.1 0.1 5 7.4-2.1 2.4 4.2 1.3q1 1.9 1.8 3.9 0.8 1.9 1.3 3.9 0.6 2.1 1 4.1 0.3 2.1 0.5 4.2c0.5 8.9-5 16.4-5 16.4 0 0 7.8-17.6-7.1-36.1z"/>
				<path id="Layer" class="s21" d="m532.7 183.8q-0.6 1.3-1.2 2.5-0.6 1.2-1.3 2.4-0.6 1.3-1.3 2.4-0.7 1.2-1.4 2.4l-23.7 6.9-12-30.3 6.6-3.8q0.8 0.9 1.5 1.8 0.7 1 1.3 2 0.6 1 1 2.1 0.5 1.1 0.8 2.3c1.3 5.2 2.9 9 9.4 10 6.4 1 18.9-2.9 18.9-2.9 0 0 0.5 0.9 1.4 2.2z"/>
				<path id="Layer" class="s21" d="m542.5 178.7q0.3 0.3 0.6 0.7 0.3 0.3 0.6 0.7 0.3 0.3 0.5 0.7 0.3 0.4 0.5 0.7c0.5 0.8 2.2 8.2-0.1 9.8-2.2 1.7-15.5 1.3-15.5 1.3z"/>
				<path id="Layer" class="s23" d="m529.2 182.5c0 0 4 5.1 4 10.3 0 0-10.6 5.4-17.9 10-7.4 4.7-13.3 8.2-16.4 4.8-3.1-3.4-9.1-22.1-11-28.9-1.9-6.9-6.5-19.1-3.1-22.7 3.3-3.5 11.2-1.1 13.7 9.6 2.5 10.7 7.6 28.6 7.6 28.6z"/>
				<path id="Layer" class="s43" d="m494.8 144.3l1.4-2 4 7.7c0 0 16.3 12.7 23.5 33.1 0 0-8-10.7-15.1-16.6q-1.1-0.8-2-1.7-1-0.8-2-1.7-1-0.9-1.9-1.9-0.9-0.9-1.8-1.9l1.5-4-3.6 0.7z"/>
				<path id="Layer" class="s44" d="m515.9 185.9l1.3 2.8-1.2 0.5-4.3 4.8q-0.1 0.2-0.2 0.5-0.1 0.2-0.2 0.5-0.1 0.2-0.2 0.5-0.1 0.2-0.1 0.5c-0.4 1.3-2.9 1.4-3.7 1.1q-0.3-0.1-0.6-0.2-0.4-0.1-0.7-0.2-0.3-0.1-0.6-0.3-0.3-0.1-0.7-0.3c-1.5-0.7-1.3-1.4-1.4-3q-0.1-0.5-0.1-1 0-0.5 0-1 0.1-0.5 0.2-1 0.1-0.5 0.3-1 0.1-0.2 0.3-0.5 0.2-0.3 0.4-0.5 0.2-0.3 0.4-0.5 0.2-0.3 0.4-0.5z"/>
				<path id="Layer" class="s45" d="m504.1 188.4c0.8 0.5 1.3 2.1 1.8 2.6 0.9 0.7 1.3 0.5 2.3 1.1q0.4 0.1 0.7 0.3 0.3 0.1 0.7 0.2 0.3 0.1 0.7 0.1 0.3 0.1 0.7 0.1 0.5-0.3 1-0.7 0.5-0.3 1-0.7 0.5-0.4 1-0.8 0.5-0.5 1-0.9 0.2-0.2 0.4-0.4 0.3-0.2 0.5-0.3 0.3-0.2 0.6-0.4 0.2-0.1 0.5-0.2l0.1 0.2-1.1 0.6-4.3 4.7q-0.1 0.3-0.2 0.5-0.1 0.3-0.2 0.5-0.1 0.3-0.2 0.5-0.1 0.3-0.1 0.5c-0.4 1.3-2.9 1.4-3.7 1.2q-0.3-0.1-0.6-0.2-0.4-0.2-0.7-0.3-0.3-0.1-0.6-0.2-0.4-0.2-0.7-0.3c-1.5-0.7-1.3-1.5-1.4-3q-0.1-0.5-0.1-1.1 0-0.5 0-1 0.1-0.5 0.2-1 0.1-0.5 0.3-0.9 0-0.1 0.1-0.2 0-0.1 0.1-0.2 0-0.1 0.1-0.1 0.1-0.1 0.1-0.2z"/>
				<path id="Layer" class="s46" d="m516 189.2c-0.4-1.4-1.2-3.4-1.2-3.4l1.4-0.2 1.5 2.7z"/>
				<path id="Layer" class="s30" d="m516.6 188.9c-0.5-1.9-1.2-3.5-1.2-3.5l12.3-2.1z"/>
				<path id="Layer" class="s44" d="m529.7 182q-0.2-0.3-0.3-0.7-0.1-0.4 0-0.8 0-0.4 0.2-0.7 0.2-0.4 0.5-0.6c1.5-1.4 5.3-5.2 6.8-5.3 1.6 0 4.6 2.8 5.5 4.4 0.9 1.5 0.8 4.5-0.4 4.6l-1.6 0.2q-0.7 0.7-1.5 1.4-0.8 0.6-1.6 1.3-0.8 0.6-1.7 1.2-0.8 0.6-1.7 1.1c-0.4-1.2-1.9-4.6-4.2-6.1z"/>
				<path id="Layer" class="s45" d="m533.4 187l1.1-0.7c2.9-1.7 3-2.4 5.2-4.4 1.2-1.1 2-2.6 2.8-3.4 0.8 1.5 0.7 4.4-0.5 4.5l-1.6 0.2q-0.7 0.7-1.5 1.4-0.8 0.6-1.6 1.3-0.8 0.6-1.7 1.2-0.8 0.6-1.7 1.1-0.1-0.5-0.5-1.2z"/>
				<path id="Layer" class="s46" d="m529.8 183.4q-0.1-0.1-0.1-0.2-0.1-0.1-0.2-0.2 0-0.2-0.1-0.3-0.1-0.1-0.2-0.2l0.5-0.5c2.9 1.9 4.4 6.6 4.4 6.6l-1.3 1.1q-0.3-0.8-0.6-1.6-0.3-0.9-0.7-1.7-0.3-0.8-0.8-1.5-0.4-0.8-0.9-1.5z"/>
				<path id="Layer" class="s38" d="m515.6 139.3c0 0 8.6 12.8 8.5 13.2 0 0.5-8.5-4.4-8.5-4.4-0.3-3.6-3-8.8-3-8.8z"/>
				<path id="Layer" class="s38" d="m498.2 138.4c0 0 3.7 8.6 11.1 13.3 0 0-4.7 8.3-5.3 8.4-0.7 0-8.4-14.5-9-18.2z"/>
				<path id="Layer" class="s26" d="m519.3 138.5c-0.9 3.9-3.2 4.5-7.2 3.7-3.9-0.7-8.4-3.5-11.2-6.2-2.8-2.8-6-7.4-6.7-10.1-0.7-2.7-3.3-10.2 3.3-14.9 6.6-4.7 13.6-1.6 17.3 1.5 3.6 3 5.2 8.2 5.6 10q0.1 0.4 0.1 0.8 0.1 0.3 0 0.7 0 0.3-0.1 0.7-0.1 0.3-0.3 0.7l0.2 0.8c1.5 2 0.7 6.1 0.5 6.8-0.5 1.5-1 4-1.5 5.5z"/>
				<path id="Layer" class="s22" d="m518.5 135.1q0.2-0.1 0.4-0.2 0.2-0.1 0.4-0.2 0.2-0.1 0.4-0.3 0.2-0.1 0.3-0.3c0.5-0.7-0.8-2.4-1.2-3.2q-0.3-0.4-0.5-0.8-0.2-0.5-0.4-0.9-0.2-0.5-0.3-0.9-0.1-0.5-0.2-1c-0.1-1 2.2-2.8 3.1-3.5q0 0.2 0 0.4 0 0.2-0.1 0.4 0 0.2-0.1 0.4-0.1 0.2-0.2 0.4l0.2 0.8c1.5 2 0.7 6.1 0.5 6.8-0.5 1.5-1 4-1.5 5.5q-0.1 0.5-0.3 1-0.2 0.6-0.4 1-0.3 0.5-0.7 0.8-0.4 0.4-0.9 0.7c1.2-2.4 1.5-6.9 1.5-6.9z"/>
				<path id="Layer" class="s26" d="m497.5 111c5.2-3.8 10.8-2.6 14.7-0.4l4.1 8 0.2 2.5c0 0-5.1 0.1-6.9 2.5-1.9 2.3-3.9 4.4-4.8 6-1 1.6-1.7 3.9 0.5 6.8q0.6 0.8 1.2 1.5 0.7 0.7 1.3 1.4 0.7 0.7 1.4 1.3 0.7 0.7 1.4 1.3-1.3-0.5-2.6-1.1-1.3-0.6-2.6-1.3-1.2-0.8-2.3-1.7-1.2-0.8-2.2-1.8c-2.8-2.7-6-7.4-6.7-10.1-0.7-2.7-3.3-10.2 3.3-14.9z"/>
				<path id="Layer" class="s28" d="m499.3 129c-1.8-0.6-2.7-0.7-3-0.6l-0.5 0.6c0 0-0.9-0.2-0.7 4.2q0 0.9-0.1 1.9-0.1 0.9-0.4 1.8-0.4 0.9-0.9 1.8-0.5 0.8-1.2 1.5 0.3-0.9 0.5-1.8 0.2-0.9 0.3-1.8 0.1-0.9 0.2-1.8 0.1-1 0-1.9-0.1 0.7-0.3 1.5-0.3 0.7-0.5 1.4-0.2 0.7-0.5 1.4-0.3 0.7-0.6 1.4-0.4 0.8-0.8 1.6-0.4 0.8-0.7 1.7-0.3 0.8-0.6 1.7-0.3 0.8-0.6 1.7c-0.4 2-0.9 3.9-0.9 3.9q0.1-1 0.1-1.9 0.1-0.9 0.2-1.9 0.1-0.9 0.3-1.8 0.2-1 0.4-1.9c0.5-2.3 3.3-7.7 3-11.1-0.6-5.6-2.6-12.8 3.1-19.2 3.6-4.1 10.1-5.7 16.1-3.4 6.2 2.4 7.9 6.4 9 11 0 0-1.6-0.5-3.8 2q-0.8-0.1-1.5-0.1-0.8 0-1.6 0.2-0.8 0.1-1.5 0.4-0.7 0.3-1.4 0.7c-3.3 1.8-4.9 8.9-11.1 6.8z"/>
				<path id="Layer" class="s29" d="m498.1 128.7q0.1-0.1 0.1-0.1 0 0 0.1 0 0 0 0.1 0 0 0 0 0.1c2 0.2 3.9 0.2 5.9-2.2 2-2.4 4.4-6.5 7.7-7 3.4-0.6 4.5 1.3 4.5 1.3 0 0-0.1 0.1-0.2 0.2q-0.7-0.1-1.5-0.1-0.8 0-1.6 0.2-0.7 0.2-1.4 0.4-0.8 0.3-1.4 0.7c-3.4 1.8-4.9 8.9-11.1 6.8q-0.7-0.2-1.2-0.3z"/>
				<path id="Layer" class="s29" d="m505.9 121.8q-0.3 0.5-0.6 1-0.3 0.5-0.7 1-0.3 0.5-0.7 0.9-0.3 0.5-0.7 0.9-0.5 0.7-1.2 1.2-0.7 0.5-1.4 0.8-0.8 0.3-1.6 0.5-0.8 0.1-1.6 0.1l-1.3-0.6c0 0 5-1.1 6.4-2.2q0.5-0.4 0.9-0.9 0.5-0.4 0.9-0.8 0.4-0.5 0.8-0.9 0.4-0.5 0.8-1z"/>
				<path id="Layer" class="s29" d="m510.9 111.3q-0.8-0.8-1.8-1.5-1-0.6-2-1.1-1-0.5-2.1-0.9-1.1-0.4-2.3-0.6 1.1-0.2 2.1-0.2 1.1-0.1 2.2 0 1 0.1 2.1 0.4 1 0.2 2 0.6c6.3 2.4 7.9 6.4 9 11 0 0-1.5-0.4-3.7 1.9-0.3-1.2-2.2-6.8-5.5-9.6z"/>
				<path id="Layer" class="s26" d="m501.4 133c0.2 0.7 0 1.8-0.7 1.9-0.7 0.1-3.8-2.1-4.7-3.5-0.8-1.3-1.6-3.8 0.5-3.8 2.2 0 3.8 2.1 4.9 5.4z"/>
				<path id="Layer" class="s29" d="m497.4 111.8q-0.2 0.3-0.4 0.5-0.2 0.2-0.4 0.5-0.2 0.3-0.4 0.5-0.7 1.1-1.3 2.4-0.6 1.2-1 2.5-0.5 1.3-0.7 2.6-0.2 1.4-0.2 2.7 0 0.4 0 0.7 0 0.3 0 0.6 0 0.3 0 0.6 0.1 0.3 0.1 0.6-0.1-0.3-0.1-0.6-0.1-0.3-0.1-0.6 0-0.3-0.1-0.6 0-0.3 0-0.6 0-0.7 0-1.4 0-0.7 0.1-1.4 0.1-0.7 0.3-1.4 0.1-0.7 0.3-1.3 0.2-0.7 0.5-1.3 0.3-0.7 0.6-1.3 0.3-0.6 0.7-1.2 0.4-0.6 0.8-1.1 0.2-0.3 0.4-0.5 0.2-0.2 0.4-0.5 0.2-0.2 0.4-0.4 0.3-0.2 0.5-0.4-0.2 0.2-0.4 0.4z"/>
				<path id="Layer" class="s3" d="m646 312.9c0 6.2-4.4 13.8-9.8 16.9l-86 49.7c-5.3 3-9.7 0.5-9.7-5.7v-218.9c0-6.2 4.4-13.8 9.7-16.9l86-49.6c5.4-3.1 9.8-0.6 9.8 5.6z"/>
				<path id="Layer" class="s3" d="m646 312.9c0 6.2-4.4 13.8-9.8 16.9l-86 49.7c-5.3 3-9.7 0.5-9.7-5.7v-218.9c0-6.2 4.4-13.8 9.7-16.9l86-49.6c5.4-3.1 9.8-0.6 9.8 5.6z"/>
				<path id="Layer" class="s47" d="m646 312.9c0 6.2-4.4 13.8-9.8 16.9l-86 49.7c-5.3 3-9.7 0.5-9.7-5.7v-218.9c0-6.2 4.4-13.8 9.7-16.9l86-49.6c5.4-3.1 9.8-0.6 9.8 5.6z"/>
				<path id="Layer" class="s5" d="m544.1 374.5v-218.9c0-5.3 3.9-12.1 8.5-14.7l86-49.7q0.4-0.2 0.7-0.4 0.4-0.2 0.8-0.3 0.4-0.1 0.8-0.2 0.4-0.1 0.8-0.1c2.6 0 2.9 3.1 2.9 4.4v218.9c0 5.3-3.9 12.1-8.5 14.7l-86 49.7q-0.4 0.2-0.7 0.4-0.4 0.1-0.8 0.3-0.4 0.1-0.8 0.2-0.4 0-0.8 0.1c-2.6 0-2.9-3.1-2.9-4.4z"/>
				<path id="Layer" class="s3" d="m542.8 379.8l-9.1-5.2c-1.8-1-3-3.2-3-6.3v-218.9c0-6.2 4.4-13.8 9.8-16.9l86-49.6c2.5-1.5 4.8-1.7 6.5-0.9l9.9 5.6c-1.7-0.9-4.1-0.7-6.7 0.8l-86 49.6c-5.3 3.1-9.7 10.7-9.7 16.9v218.9c0 2.8 0.9 4.8 2.3 6z"/>
				<path id="Layer" class="s48" d="m542.8 379.8l-9.1-5.2c-1.8-1-3-3.2-3-6.3v-218.9c0-6.2 4.4-13.8 9.8-16.9l86-49.6c2.5-1.5 4.8-1.7 6.5-0.9l9.9 5.6c-1.7-0.9-4.1-0.7-6.7 0.8l-86 49.6c-5.3 3.1-9.7 10.7-9.7 16.9v218.9c0 2.8 0.9 4.8 2.3 6z"/>
				<path id="Layer" class="s15" d="m607.3 164.4q-0.1 1.1-0.4 2.1-0.3 1-0.9 2-0.5 0.9-1.3 1.7-0.7 0.8-1.6 1.4l-9.4 5.5c-2.3 1.3-4.2 0.2-4.2-2.5v-36.7q0-1 0.3-2.1 0.4-1 0.9-2 0.5-0.9 1.3-1.7 0.7-0.8 1.7-1.4l9.4-5.5c2.3-1.3 4.2-0.2 4.2 2.5z"/>
				<path id="Layer" class="s15" d="m593.7 175.8c-1.8 1-3.2 0.2-3.2-1.8v-3q0.1-0.8 0.3-1.6 0.2-0.8 0.6-1.5 0.5-0.7 1-1.3 0.6-0.6 1.3-1l9.4-5.5c1.7-1 3.1-0.1 3.1 1.9v3q0 0.8-0.3 1.6-0.2 0.8-0.6 1.5-0.4 0.7-1 1.3-0.5 0.6-1.2 1z"/>
				<path id="Layer" class="s15" d="m593.7 160.3c-1.8 1-3.2 0.2-3.2-1.8v-21.2q0.1-0.8 0.3-1.6 0.2-0.7 0.6-1.5 0.5-0.7 1-1.3 0.6-0.6 1.3-1l9.4-5.4c1.7-1 3.1-0.2 3.1 1.8v21.1q0 0.8-0.3 1.6-0.2 0.8-0.6 1.5-0.4 0.7-1 1.3-0.5 0.6-1.2 1.1z"/>
				<path id="Layer" class="s15" d="m602.6 136.4q-0.4 1.1-1 2.2-0.6 1-1.4 1.9-0.8 0.9-1.9 1.6c-2.5 1.4-4.6 0.3-4.6-2.7q0.1-1.2 0.4-2.4 0.4-1.2 1-2.2 0.6-1.1 1.4-1.9 0.8-0.9 1.8-1.6c2.6-1.5 4.7-0.3 4.7 2.7q-0.1 1.2-0.4 2.4z"/>
				<path id="Layer" class="s15" d="m600.9 136.5q-0.2 0.7-0.6 1.3-0.3 0.7-0.8 1.2-0.5 0.5-1.1 0.9c-1.6 0.9-2.8 0.2-2.8-1.6q0-0.7 0.2-1.4 0.3-0.7 0.6-1.3 0.4-0.6 0.9-1.2 0.5-0.5 1.1-0.9c1.5-0.8 2.7-0.1 2.7 1.6q0 0.7-0.2 1.4z"/>
				<path id="Layer" class="s15" d="m600.9 149.8q-0.2 0.7-0.6 1.3-0.3 0.6-0.8 1.1-0.5 0.6-1.1 0.9c-1.6 0.9-2.8 0.2-2.8-1.5q0-0.8 0.2-1.4 0.3-0.7 0.6-1.4 0.4-0.6 0.9-1.1 0.5-0.5 1.1-0.9c1.5-0.9 2.7-0.2 2.7 1.6q0 0.7-0.2 1.4z"/>
				<path id="Layer" class="s15" d="m600.1 149.8q-0.1 0.5-0.4 1-0.2 0.4-0.6 0.8-0.3 0.3-0.7 0.6c-1.1 0.6-2 0.1-2-1.1q0-0.5 0.2-1 0.1-0.5 0.4-0.9 0.2-0.5 0.6-0.8 0.3-0.4 0.8-0.7c1-0.6 1.9-0.1 1.9 1.1q0 0.5-0.2 1z"/>
				<path id="Layer" class="s3" d="m238.9 563.2c0 6.2-4.4 13.8-9.8 16.9l-86 49.6c-5.4 3.1-9.8 0.6-9.8-5.6v-218.9c0-6.2 4.4-13.8 9.8-16.9l86-49.7c5.4-3.1 9.7-0.5 9.7 5.7z"/>
				<path id="Layer" class="s3" d="m238.9 563.2c0 6.2-4.4 13.8-9.8 16.9l-86 49.6c-5.4 3.1-9.8 0.6-9.8-5.6v-218.9c0-6.2 4.4-13.8 9.8-16.9l86-49.7c5.4-3.1 9.7-0.5 9.7 5.7z"/>
				<path id="Layer" class="s47" d="m238.9 563.2c0 6.2-4.4 13.8-9.8 16.9l-86 49.6c-5.4 3.1-9.8 0.6-9.8-5.6v-218.9c0-6.2 4.4-13.8 9.8-16.9l86-49.7c5.4-3.1 9.7-0.5 9.7 5.7z"/>
				<path id="Layer" class="s5" d="m137 624.7v-218.9c0-5.3 3.9-12 8.5-14.7l86-49.6q0.4-0.2 0.7-0.4 0.4-0.2 0.8-0.3 0.4-0.1 0.8-0.2 0.4-0.1 0.8-0.1c2.6 0 2.9 3.1 2.9 4.4v218.9c0 5.3-3.9 12-8.5 14.7l-86 49.6q-0.4 0.2-0.7 0.4-0.4 0.2-0.8 0.3-0.4 0.1-0.8 0.2-0.4 0.1-0.8 0.1c-2.6 0-2.9-3.1-2.9-4.4z"/>
				<path id="Layer" class="s3" d="m135.6 630l-9.1-5.1c-1.9-1-3-3.2-3-6.4v-218.9c0-6.2 4.4-13.8 9.8-16.9l86-49.6c2.5-1.5 4.8-1.7 6.5-0.9l10 5.7c-1.7-0.9-4.1-0.8-6.7 0.7l-86 49.7c-5.4 3.1-9.8 10.7-9.8 16.9v218.9c0 2.8 0.9 4.8 2.3 5.9z"/>
				<path id="Layer" class="s49" d="m135.6 630l-9.1-5.1c-1.9-1-3-3.2-3-6.4v-218.9c0-6.2 4.4-13.8 9.8-16.9l86-49.6c2.5-1.5 4.8-1.7 6.5-0.9l10 5.7c-1.7-0.9-4.1-0.8-6.7 0.7l-86 49.7c-5.4 3.1-9.8 10.7-9.8 16.9v218.9c0 2.8 0.9 4.8 2.3 5.9z"/>
				<path id="Layer" class="s15" d="m200.1 414.6q0 1.1-0.3 2.2-0.4 1-0.9 1.9-0.5 1-1.3 1.8-0.7 0.8-1.7 1.4l-9.4 5.4c-2.3 1.3-4.2 0.2-4.2-2.4v-36.7q0.1-1.1 0.4-2.1 0.3-1.1 0.9-2 0.5-1 1.3-1.8 0.7-0.8 1.6-1.4l9.4-5.4c2.3-1.3 4.2-0.2 4.2 2.4z"/>
				<path id="Layer" class="s15" d="m186.5 426.1c-1.7 1-3.1 0.2-3.1-1.8v-3q0-0.8 0.3-1.6 0.2-0.8 0.6-1.5 0.4-0.7 1-1.3 0.5-0.6 1.2-1.1l9.4-5.4c1.8-1 3.2-0.2 3.2 1.8v3q-0.1 0.8-0.3 1.6-0.2 0.8-0.6 1.5-0.5 0.7-1 1.3-0.6 0.6-1.3 1.1z"/>
				<path id="Layer" class="s15" d="m186.5 410.6c-1.7 1-3.1 0.1-3.1-1.9v-21.1q0-0.8 0.3-1.6 0.2-0.8 0.6-1.5 0.4-0.7 1-1.3 0.6-0.6 1.2-1l9.5-5.5c1.7-1 3.1-0.2 3.1 1.8v21.2q-0.1 0.8-0.3 1.6-0.2 0.8-0.6 1.5-0.4 0.7-1 1.3-0.6 0.6-1.2 1z"/>
				<path id="Layer" class="s15" d="m195.5 386.6q-0.4 1.2-1 2.2-0.6 1.1-1.4 2-0.9 0.8-1.9 1.5c-2.5 1.5-4.6 0.3-4.6-2.7q0.1-1.2 0.4-2.3 0.4-1.2 1-2.2 0.6-1.1 1.4-2 0.8-0.8 1.8-1.5c2.6-1.5 4.7-0.3 4.7 2.7q-0.1 1.2-0.4 2.3z"/>
				<path id="Layer" class="s15" d="m193.8 386.8q-0.2 0.7-0.6 1.3-0.4 0.6-0.9 1.1-0.5 0.6-1.1 1c-1.5 0.8-2.7 0.1-2.7-1.6q0-0.8 0.2-1.4 0.2-0.7 0.6-1.4 0.3-0.6 0.8-1.1 0.5-0.5 1.1-0.9c1.6-0.9 2.8-0.2 2.8 1.6q0 0.7-0.2 1.4z"/>
				<path id="Layer" class="s15" d="m193.8 400q-0.2 0.7-0.6 1.4-0.4 0.6-0.9 1.1-0.5 0.5-1.1 0.9c-1.5 0.9-2.7 0.2-2.7-1.6q0-0.7 0.2-1.4 0.2-0.7 0.6-1.3 0.3-0.6 0.8-1.2 0.5-0.5 1.1-0.9c1.6-0.9 2.8-0.1 2.8 1.6q0 0.7-0.2 1.4z"/>
				<path id="Layer" class="s15" d="m193 400.1q-0.2 0.5-0.4 0.9-0.3 0.5-0.6 0.8-0.4 0.4-0.8 0.7c-1.1 0.6-2 0.1-2-1.2q0.1-0.5 0.2-1 0.1-0.4 0.4-0.9 0.3-0.4 0.6-0.8 0.4-0.4 0.8-0.6c1.1-0.7 2-0.2 2 1.1q-0.1 0.5-0.2 1z"/>
			</g>
		</g>
	</g>
</svg>