<svg width="16" height="16" viewBox="0 0 16 16" xmlns="http://www.w3.org/2000/svg" id="" class="Graphic-SVG SVG SVG--inline d-inline-block FooterV2__social-icon mr-4 c-bw-11 lazyloaded" preserveAspectRatio="xMidYMid meet" xmlns:xlink="http://www.w3.org/1999/xlink"><path d="M12 16H4c-2.056 0-4-1.944-4-4V4c0-2.056 1.944-4 4-4h8c2.056 0 4 1.944 4 4v8c0 2.056-1.944 4-4 4zM4 2c-.935 0-2 1.065-2 2v8c0 .953 1.047 2 2 2h8c.935 0 2-1.065 2-2V4c0-.935-1.065-2-2-2H4zm8.639 1.281A.96.96 0 1 1 11.28 4.64a.96.96 0 0 1 1.36-1.36zM8 12c-2.206 0-4-1.794-4-4s1.794-4 4-4 4 1.794 4 4-1.794 4-4 4zm0-6c-1.103 0-2 .897-2 2s.897 2 2 2 2-.897 2-2-.897-2-2-2z" fill="#ffffff" fill-rule="evenodd"></path></svg>