<svg xmlns="http://www.w3.org/2000/svg" viewBox="0 0 311.53 266.24"><defs><style>.cls-1,.cls-5{fill:#b2d3ea;}.cls-1{opacity:0.4;}.cls-2{fill:#387ddd;}.cls-3{fill:#d4ecff;}.cls-4{fill:#fff;}.cls-6{fill:#0b29aa;}.cls-7{fill:#1d80ff;}.cls-8{fill:#0b53d3;}.cls-9{fill:#e8a200;}.cls-10{fill:#fdd762;}.cls-11{fill:#f2b42a;}.cls-12{fill:#eead00;}</style></defs><g id="Слой_2" data-name="Слой 2"><g id="Слой_1-2" data-name="Слой 1"><path class="cls-1" d="M171.05,265.31l-80-46.17c-2.38-1.37-2.08-3.77.67-5.36L220.68,139c2.74-1.59,6.9-1.76,9.27-.39l80,46.17c2.38,1.37,2.08,3.77-.66,5.36L180.33,264.93C177.58,266.51,173.43,266.68,171.05,265.31Z"/><path class="cls-2" d="M212.88,43.67,142.79,1.57a9.4,9.4,0,0,0-8.95-.78h0L127.18,3.2h5.08A19.46,19.46,0,0,0,130,9L93,179c-2.1,9.63,1.82,20.82,8.76,25l70.09,42.1a11.54,11.54,0,0,0,2.24,1l-2.77,4.22,5.88-2h0c3.45-1.55,6.25-5.3,7.43-10.67l37-170C223.74,59,219.82,47.84,212.88,43.67Z"/><path class="cls-3" d="M162,250.73l-70.09-42.1c-6.94-4.17-10.87-15.36-8.77-25l37.06-170C122.3,4,129.63-.4,136.57,3.77l70.09,42.11c6.94,4.17,10.87,15.35,8.77,25l-37.06,170C176.27,250.47,168.94,254.9,162,250.73Z"/><path class="cls-4" d="M162.12,245.89,93.68,204.77c-5.4-3.24-8.45-11.94-6.82-19.42l36.86-169c1.63-7.48,7.33-10.93,12.73-7.68l68.44,41.11c5.4,3.24,8.45,11.94,6.82,19.43l-36.86,169C173.22,245.69,167.52,249.13,162.12,245.89Z"/><path class="cls-3" d="M156.45,43.82l-7.81-4.51a2.23,2.23,0,0,1-.95-2.31h0a1.09,1.09,0,0,1,1.67-.8l7.81,4.51a2.23,2.23,0,0,1,1,2.31h0A1.09,1.09,0,0,1,156.45,43.82Z"/><path class="cls-3" d="M175.05,54.56l-11.52-6.65a2.23,2.23,0,0,1-.95-2.31h0a1.09,1.09,0,0,1,1.67-.8l11.52,6.65a2.23,2.23,0,0,1,.95,2.31h0A1.09,1.09,0,0,1,175.05,54.56Z"/><path class="cls-3" d="M142.84,80.27,135,75.76a2.24,2.24,0,0,1-.95-2.31h0a1.09,1.09,0,0,1,1.67-.8l7.81,4.51a2.23,2.23,0,0,1,.95,2.31h0A1.09,1.09,0,0,1,142.84,80.27Z"/><path class="cls-3" d="M159.42,89.84,147.9,83.19a2.23,2.23,0,0,1-1-2.31h0a1.09,1.09,0,0,1,1.67-.8l11.52,6.65a2.23,2.23,0,0,1,1,2.31h0A1.09,1.09,0,0,1,159.42,89.84Z"/><path class="cls-3" d="M133.42,37.9l-4.88-2.81a2.25,2.25,0,0,1-1-2.31h0a1.09,1.09,0,0,1,1.68-.8l4.87,2.81a2.25,2.25,0,0,1,1,2.32h0A1.08,1.08,0,0,1,133.42,37.9Z"/><path class="cls-3" d="M148.45,54l-14.91-8.61a2.23,2.23,0,0,1-.95-2.31h0a1.09,1.09,0,0,1,1.67-.8l14.91,8.61a2.23,2.23,0,0,1,1,2.31h0A1.09,1.09,0,0,1,148.45,54Z"/><path class="cls-3" d="M135.41,61.21l-4.87-2.81a2.25,2.25,0,0,1-1-2.32h0a1.08,1.08,0,0,1,1.67-.79l4.88,2.81a2.25,2.25,0,0,1,1,2.31h0A1.09,1.09,0,0,1,135.41,61.21Z"/><path class="cls-3" d="M161.93,106.06l-13-7.53a2.21,2.21,0,0,1-1-2.31h0a1.09,1.09,0,0,1,1.67-.8l13,7.53a2.23,2.23,0,0,1,.95,2.31h0A1.09,1.09,0,0,1,161.93,106.06Z"/><path class="cls-3" d="M130.66,73.24l-3.13-1.81a2.22,2.22,0,0,1-1-2.31h0a1.08,1.08,0,0,1,1.67-.8l3.13,1.81a2.23,2.23,0,0,1,1,2.31h0A1.09,1.09,0,0,1,130.66,73.24Z"/><path class="cls-3" d="M128.41,86.7l-3.89-2.24a2.23,2.23,0,0,1-1-2.31h0a1.09,1.09,0,0,1,1.67-.8l3.89,2.24a2.25,2.25,0,0,1,1,2.32h0A1.08,1.08,0,0,1,128.41,86.7Z"/><path class="cls-3" d="M143.54,95.44l-10.26-5.92a2.23,2.23,0,0,1-.95-2.31h0a1.09,1.09,0,0,1,1.67-.8l10.25,5.92a2.24,2.24,0,0,1,1,2.31h0A1.09,1.09,0,0,1,143.54,95.44Z"/><path class="cls-3" d="M130.39,95.23,123,91a2.25,2.25,0,0,1-1-2.32h0a1.08,1.08,0,0,1,1.67-.79l7.37,4.25a2.22,2.22,0,0,1,1,2.31h0A1.09,1.09,0,0,1,130.39,95.23Z"/><path class="cls-3" d="M173.11,112.54l-4.74-2.73a2.23,2.23,0,0,1-1-2.31h0a1.09,1.09,0,0,1,1.67-.8l4.73,2.73a2.23,2.23,0,0,1,1,2.31h0A1.09,1.09,0,0,1,173.11,112.54Z"/><path class="cls-3" d="M153.56,71.69l-13-7.52a2.25,2.25,0,0,1-.95-2.32h0a1.08,1.08,0,0,1,1.67-.79l13,7.52a2.23,2.23,0,0,1,.95,2.31h0A1.09,1.09,0,0,1,153.56,71.69Z"/><path class="cls-3" d="M154.75,65,132,51.88a2.23,2.23,0,0,1-.95-2.31h0a1.09,1.09,0,0,1,1.67-.8l22.71,13.11a2.23,2.23,0,0,1,.95,2.31h0A1.09,1.09,0,0,1,154.75,65Z"/><path class="cls-3" d="M142.06,72.43l-13-7.52a2.23,2.23,0,0,1-.95-2.31h0a1.09,1.09,0,0,1,1.67-.8l13,7.52a2.25,2.25,0,0,1,.95,2.32h0A1.09,1.09,0,0,1,142.06,72.43Z"/><path class="cls-3" d="M163.44,77.39l-4.73-2.73a2.24,2.24,0,0,1-1-2.31h0a1.09,1.09,0,0,1,1.67-.8l4.74,2.73a2.25,2.25,0,0,1,1,2.32h0A1.09,1.09,0,0,1,163.44,77.39Z"/><path class="cls-3" d="M198.78,67.4l-4.73-2.73a2.23,2.23,0,0,1-1-2.31h0a1.09,1.09,0,0,1,1.67-.8l4.73,2.73a2.23,2.23,0,0,1,.95,2.32h0A1.08,1.08,0,0,1,198.78,67.4Z"/><path class="cls-3" d="M141.69,87l-15.67-9a2.23,2.23,0,0,1-1-2.31h0a1.09,1.09,0,0,1,1.67-.8l15.66,9a2.23,2.23,0,0,1,1,2.31h0A1.09,1.09,0,0,1,141.69,87Z"/><path class="cls-3" d="M141.55,35.22,130,28.57a2.23,2.23,0,0,1-.95-2.31h0a1.09,1.09,0,0,1,1.67-.8l11.51,6.65a2.24,2.24,0,0,1,1,2.31h0A1.09,1.09,0,0,1,141.55,35.22Z"/><path class="cls-3" d="M128.34,101.43,115,93.73a2.23,2.23,0,0,1-1-2.31h0a1.09,1.09,0,0,1,1.67-.8l13.33,7.7a2.24,2.24,0,0,1,1,2.31h0A1.09,1.09,0,0,1,128.34,101.43Z"/><path class="cls-3" d="M136.33,144l-7.81-4.51a2.25,2.25,0,0,1-1-2.32h0a1.09,1.09,0,0,1,1.67-.79l7.81,4.51a2.23,2.23,0,0,1,.95,2.31h0A1.09,1.09,0,0,1,136.33,144Z"/><path class="cls-3" d="M154.93,154.69l-11.51-6.64a2.25,2.25,0,0,1-1-2.32h0a1.09,1.09,0,0,1,1.68-.79l11.51,6.64a2.25,2.25,0,0,1,.95,2.32h0A1.09,1.09,0,0,1,154.93,154.69Z"/><path class="cls-3" d="M122.72,180.4l-7.81-4.51a2.23,2.23,0,0,1-1-2.31h0a1.09,1.09,0,0,1,1.67-.8l7.81,4.51a2.25,2.25,0,0,1,1,2.32h0A1.09,1.09,0,0,1,122.72,180.4Z"/><path class="cls-3" d="M139.3,190l-11.51-6.65a2.25,2.25,0,0,1-1-2.31h0a1.09,1.09,0,0,1,1.68-.8L140,186.87a2.23,2.23,0,0,1,.95,2.31h0A1.09,1.09,0,0,1,139.3,190Z"/><path class="cls-3" d="M113.3,138l-4.88-2.82a2.23,2.23,0,0,1-1-2.31h0a1.09,1.09,0,0,1,1.67-.8l4.88,2.82a2.23,2.23,0,0,1,1,2.31h0A1.09,1.09,0,0,1,113.3,138Z"/><path class="cls-3" d="M128.33,154.1l-14.9-8.6a2.24,2.24,0,0,1-1-2.31h0a1.09,1.09,0,0,1,1.68-.8l14.9,8.6a2.25,2.25,0,0,1,.95,2.32h0A1.08,1.08,0,0,1,128.33,154.1Z"/><path class="cls-3" d="M115.3,161.35l-4.88-2.82a2.22,2.22,0,0,1-1-2.31h0a1.08,1.08,0,0,1,1.67-.8l4.88,2.82a2.23,2.23,0,0,1,1,2.31h0A1.09,1.09,0,0,1,115.3,161.35Z"/><path class="cls-3" d="M141.81,206.19l-13-7.52a2.23,2.23,0,0,1-1-2.31h0a1.09,1.09,0,0,1,1.67-.8l13,7.52a2.25,2.25,0,0,1,.95,2.32h0A1.09,1.09,0,0,1,141.81,206.19Z"/><path class="cls-3" d="M110.54,173.37l-3.13-1.81a2.23,2.23,0,0,1-1-2.31h0a1.09,1.09,0,0,1,1.67-.8l3.13,1.81a2.23,2.23,0,0,1,.95,2.31h0A1.09,1.09,0,0,1,110.54,173.37Z"/><path class="cls-3" d="M108.29,186.84l-3.89-2.24a2.25,2.25,0,0,1-1-2.32h0a1.08,1.08,0,0,1,1.67-.79l3.89,2.24A2.23,2.23,0,0,1,110,186h0A1.09,1.09,0,0,1,108.29,186.84Z"/><path class="cls-3" d="M123.42,195.57l-10.25-5.91a2.25,2.25,0,0,1-1-2.32h0a1.08,1.08,0,0,1,1.67-.79l10.26,5.91a2.25,2.25,0,0,1,1,2.32h0A1.09,1.09,0,0,1,123.42,195.57Z"/><path class="cls-3" d="M110.27,195.37l-7.37-4.26a2.22,2.22,0,0,1-1-2.31h0a1.08,1.08,0,0,1,1.67-.8l7.37,4.26a2.23,2.23,0,0,1,1,2.31h0A1.09,1.09,0,0,1,110.27,195.37Z"/><path class="cls-3" d="M153,212.68,148.26,210a2.24,2.24,0,0,1-1-2.32h0a1.08,1.08,0,0,1,1.67-.79l4.74,2.73a2.23,2.23,0,0,1,.95,2.31h0A1.09,1.09,0,0,1,153,212.68Z"/><path class="cls-3" d="M133.44,171.82l-13-7.52a2.23,2.23,0,0,1-1-2.31h0a1.09,1.09,0,0,1,1.67-.8l13,7.52a2.25,2.25,0,0,1,1,2.32h0A1.08,1.08,0,0,1,133.44,171.82Z"/><path class="cls-3" d="M134.63,165.13,111.92,152a2.25,2.25,0,0,1-1-2.32h0a1.08,1.08,0,0,1,1.67-.79L135.35,162a2.23,2.23,0,0,1,1,2.31h0A1.09,1.09,0,0,1,134.63,165.13Z"/><path class="cls-3" d="M121.94,172.57l-13-7.52a2.23,2.23,0,0,1-1-2.31h0a1.09,1.09,0,0,1,1.67-.8l13,7.52a2.22,2.22,0,0,1,1,2.31h0A1.08,1.08,0,0,1,121.94,172.57Z"/><path class="cls-3" d="M143.32,177.53l-4.73-2.73a2.25,2.25,0,0,1-1-2.32h0a1.08,1.08,0,0,1,1.67-.79l4.73,2.73a2.22,2.22,0,0,1,1,2.31h0A1.08,1.08,0,0,1,143.32,177.53Z"/><path class="cls-3" d="M121.57,187.12l-15.66-9a2.24,2.24,0,0,1-1-2.31h0a1.09,1.09,0,0,1,1.68-.8l15.66,9a2.24,2.24,0,0,1,.95,2.31h0A1.09,1.09,0,0,1,121.57,187.12Z"/><path class="cls-3" d="M121.44,135.36l-11.52-6.65a2.24,2.24,0,0,1-1-2.31h0a1.09,1.09,0,0,1,1.67-.8l11.52,6.65a2.23,2.23,0,0,1,1,2.31h0A1.09,1.09,0,0,1,121.44,135.36Z"/><path class="cls-3" d="M108.22,201.57l-13.34-7.7a2.24,2.24,0,0,1-.95-2.31h0a1.09,1.09,0,0,1,1.67-.8l13.34,7.7a2.23,2.23,0,0,1,1,2.31h0A1.09,1.09,0,0,1,108.22,201.57Z"/><path class="cls-5" d="M178.6,153,189,109.68l-18.17-13a160.19,160.19,0,0,0-28.41-16.4l-19.24-8.56L112.79,115s-8.61,31.15,21.27,67.71C172.05,185.29,178.6,153,178.6,153Z"/><path class="cls-6" d="M154.77,58a188.78,188.78,0,0,0-33.4-19.28L98.75,28.66,91.5,31.48l5.83,3.12L86.59,79.55s-10.12,36.61,25,79.6A62.09,62.09,0,0,0,129.39,158l-.18.71,6.52-2.55c.61-.22,1.2-.45,1.79-.69l.13-.06h0C159.5,146.26,164,124.22,164,124.22l12.16-50.88Z"/><path class="cls-7" d="M121.37,38.72,98.75,28.66,91.5,31.48l5.83,3.12-3.9,16.31,40.33,26.22,35.12-1,7.25-2.82L154.77,58A188.78,188.78,0,0,0,121.37,38.72Z"/><path class="cls-7" d="M132,50.75,139.33,48a181.68,181.68,0,0,0-18-9.24L98.75,28.66,91.5,31.48l5.83,3.12-.23,1C111.21,41.75,132,50.75,132,50.75Z"/><path class="cls-7" d="M133.58,44.73,120,49.81l11.38,6.57,13.48-5.05C141.13,49,137.38,46.77,133.58,44.73Z"/><path class="cls-8" d="M156.72,127.05l12.16-50.89L147.52,60.82a189.69,189.69,0,0,0-33.39-19.28L91.5,31.48,79.34,82.37S69.22,119,104.35,162C149,165.05,156.72,127.05,156.72,127.05Z"/><path class="cls-7" d="M107.18,156.44C91.31,136.29,86,118,84.38,106c-1.82-13.4.41-22,.43-22.07L95.43,39.44l16.39,7.28a183.49,183.49,0,0,1,32.39,18.71l18.27,13.11-11.27,47.19-.05.19a42.19,42.19,0,0,1-8.25,16.14C134.6,152.14,122.59,157,107.18,156.44Z"/><path class="cls-4" d="M112.72,61.73a2.59,2.59,0,0,0,1.07,3,1.57,1.57,0,0,0,2.35-1,2.6,2.6,0,0,0-1.06-3A1.58,1.58,0,0,0,112.72,61.73Z"/><path class="cls-4" d="M107.21,58.55a2.59,2.59,0,0,0,1.07,3,1.57,1.57,0,0,0,2.35-1,2.6,2.6,0,0,0-1.06-3A1.58,1.58,0,0,0,107.21,58.55Z"/><path class="cls-4" d="M101.7,55.37a2.61,2.61,0,0,0,1.07,3,1.58,1.58,0,0,0,2.36-1,2.62,2.62,0,0,0-1.07-3A1.58,1.58,0,0,0,101.7,55.37Z"/><path class="cls-5" d="M46.16,207.58c-10.56-6.1-27.68-6.1-38.24,0s-10.56,16,0,22.07,27.68,6.1,38.24,0S56.72,213.67,46.16,207.58ZM26.38,218.82a10.85,10.85,0,0,1-9.83,0c-2.72-1.56-2.72-4.11,0-5.67a10.85,10.85,0,0,1,9.83,0C29.1,214.71,29.1,217.26,26.38,218.82Z"/><path class="cls-5" d="M51.87,224.76a25.75,25.75,0,0,1-5.24,3.92,37.13,37.13,0,0,1-6.8,3l5.17,3,7.79.4,3.85,2.23-1.57.9L58,239.91l3.14-1.82,5.1,2.94-5.12,3,3.76,2.17,3.65,2.11,4.55-2.62,6.74,3.89L77.24,251l4.33,2.5L84.14,252l2,1.17-2,4.07,6.55,3.78h24.07Z"/><path class="cls-9" d="M54.08,216.47v-7.31l-2.15,1.21a18.62,18.62,0,0,0-5.77-4.93c-10.56-6.09-27.68-6.09-38.24,0a17.71,17.71,0,0,0-6.35,5.79L0,209.16v7.31c0,4,2.63,8,7.92,11.05,10.56,6.1,27.68,6.1,38.24,0C51.45,224.47,54.08,220.47,54.08,216.47ZM26.29,211.7a10.85,10.85,0,0,1-9.83,0c-2.72-1.56-2.72-4.11,0-5.67a10.85,10.85,0,0,1,9.83,0C29,207.59,29,210.14,26.29,211.7Z"/><path class="cls-10" d="M24.78,222.23l-11.67-5.75L2.74,209.63a14.17,14.17,0,0,0-1.17,1.6L0,209.16v7.31c0,4,2.63,8,7.92,11.05A37.77,37.77,0,0,0,24.78,232Z"/><path class="cls-10" d="M46.16,198.12c-10.56-6.1-27.68-6.1-38.24,0s-10.56,16,0,22.08,27.68,6.09,38.24,0S56.72,204.22,46.16,198.12ZM26.38,209.37a10.85,10.85,0,0,1-9.83,0c-2.72-1.57-2.72-4.11,0-5.68a10.85,10.85,0,0,1,9.83,0C29.1,205.26,29.1,207.8,26.38,209.37Z"/><path class="cls-9" d="M31.69,202H17a37.35,37.35,0,0,0-3.9,1.12v12.44H31.69Zm-5.4,9.72a10.85,10.85,0,0,1-9.83,0c-2.72-1.56-2.72-4.11,0-5.67a10.85,10.85,0,0,1,9.83,0C29,207.59,29,210.14,26.29,211.7Z"/><path class="cls-11" d="M43.89,199.43c-9.31-5.37-24.4-5.38-33.7,0s-9.31,14.08,0,19.46,24.4,5.37,33.7,0S53.2,204.8,43.89,199.43Zm-17.51,9.94a10.85,10.85,0,0,1-9.83,0c-2.72-1.57-2.72-4.11,0-5.68a10.85,10.85,0,0,1,9.83,0C29.1,205.26,29.1,207.8,26.38,209.37Z"/><path class="cls-9" d="M10.19,201.45c9.3-5.38,24.39-5.38,33.7,0,4.21,2.43,6.51,5.54,6.91,8.72.49-3.85-1.81-7.8-6.91-10.74-9.31-5.37-24.4-5.38-33.7,0-5.1,2.94-7.4,6.89-6.91,10.74C3.68,207,6,203.88,10.19,201.45Z"/><path class="cls-11" d="M51.87,222.57a26.14,26.14,0,0,1-5.24,3.93,37.79,37.79,0,0,1-6.8,3l5.17,3,7.79.4,3.85,2.23-1.57.91L58,237.72l3.14-1.82,5.1,2.95-5.12,3L64.87,244l3.65,2.1,4.55-2.62,6.74,3.89-2.57,1.48,4.33,2.51,2.57-1.49,2,1.17-2,4.07,6.55,3.79h24.07Z"/><path class="cls-10" d="M51.87,217.28a25.41,25.41,0,0,1-5.24,3.93,37.1,37.1,0,0,1-6.8,3l5.17,3,7.79.4,3.85,2.22-1.57.91L58,232.44l3.14-1.82,5.1,2.94-5.12,3,3.76,2.17,3.65,2.11,4.55-2.63,6.74,3.9-2.57,1.48,4.33,2.5,2.57-1.48,2,1.17-2,4.07,6.55,3.78h24.07Z"/><rect class="cls-9" x="90.68" y="253.59" width="24.07" height="5.28"/><polygon class="cls-9" points="81.57 251.34 81.57 246.05 84.14 244.57 84.14 249.85 81.57 251.34"/><polygon class="cls-12" points="77.24 243.55 77.24 248.84 81.57 251.34 81.57 246.05 77.24 243.55"/><polygon class="cls-9" points="73.07 238.17 73.07 243.46 68.52 246.08 68.52 240.8 73.07 238.17"/><polygon class="cls-12" points="61.11 236.52 61.11 241.8 68.52 246.08 68.52 240.8 61.11 236.52"/><polygon class="cls-12" points="84.14 249.85 84.13 255.09 90.68 258.88 90.68 253.59 84.14 249.85"/><polygon class="cls-12" points="57.99 232.44 57.99 237.72 55.07 236.03 55.07 230.75 57.99 232.44"/><polygon class="cls-9" points="45 227.22 45 232.5 52.79 232.9 52.79 227.62 45 227.22"/><polygon class="cls-9" points="98.32 249.85 52.28 223.24 54.84 221.77 103.41 249.83 98.32 249.85"/><polygon class="cls-11" points="54.84 223.05 101.21 249.84 103.41 249.83 54.84 221.77 52.28 223.24 53.39 223.88 54.84 223.05"/><polygon class="cls-9" points="45 232.5 45 227.22 39.83 224.23 39.83 229.52 45 232.5"/><polygon class="cls-9" points="61.13 230.62 61.13 235.9 57.99 237.72 57.99 232.44 61.13 230.62"/><path class="cls-10" d="M43.89,199.43c-5.23-3-12.28-4.34-19.11-4v2c6.83-.38,13.88,1,19.11,4,4.21,2.43,6.51,5.54,6.91,8.72C51.29,206.32,49,202.37,43.89,199.43Z"/></g></g></svg>