<svg xmlns="http://www.w3.org/2000/svg" xmlns:xlink="http://www.w3.org/1999/xlink" viewBox="0 0 777.5 765.97"><defs><style>.cls-1{isolation:isolate;}.cls-10,.cls-2,.cls-7,.cls-8{fill:#367ed6;}.cls-2,.cls-4{opacity:0.1;}.cls-12,.cls-14,.cls-2,.cls-4,.cls-6,.cls-7,.cls-8{mix-blend-mode:multiply;}.cls-3,.cls-4{fill:#fff;}.cls-5{fill:url(#linear-gradient);}.cls-6{fill:#d9e8f9;}.cls-7{opacity:0.3;}.cls-12,.cls-14,.cls-8{opacity:0.2;}.cls-9{fill:#f8fcff;}.cls-11{fill:#d51159;}.cls-12{fill:#412999;}.cls-13{fill:#e6f3ff;}.cls-15{fill:url(#езымЯнный_градиент_55);}.cls-16{fill:url(#linear-gradient-2);}.cls-17{fill:url(#linear-gradient-3);}.cls-18{fill:url(#linear-gradient-4);}.cls-19{fill:url(#linear-gradient-5);}.cls-20{fill:url(#linear-gradient-6);}.cls-21{fill:url(#linear-gradient-7);}.cls-22{fill:url(#linear-gradient-8);}.cls-23{fill:url(#linear-gradient-9);}.cls-24{fill:url(#linear-gradient-10);}.cls-25{fill:url(#radial-gradient);}.cls-26{fill:url(#linear-gradient-11);}.cls-27{fill:url(#linear-gradient-12);}.cls-28{fill:url(#linear-gradient-13);}.cls-29{fill:url(#linear-gradient-14);}.cls-30{fill:url(#linear-gradient-15);}.cls-31{fill:url(#linear-gradient-16);}.cls-32{fill:url(#linear-gradient-17);}.cls-33{fill:url(#linear-gradient-18);}.cls-34{fill:url(#linear-gradient-19);}.cls-35{fill:url(#linear-gradient-20);}.cls-36{fill:url(#linear-gradient-21);}.cls-37{fill:url(#linear-gradient-22);}.cls-38{fill:url(#linear-gradient-23);}.cls-39{fill:url(#linear-gradient-24);}</style><linearGradient id="linear-gradient" x1="30.61" y1="199.2" x2="-436.78" y2="879.15" gradientTransform="translate(546.51)" gradientUnits="userSpaceOnUse"><stop offset="0" stop-color="#2693d1"/><stop offset="0.16" stop-color="#238bca"/><stop offset="0.4" stop-color="#1b75b6"/><stop offset="0.71" stop-color="#0f5195"/><stop offset="1" stop-color="#002770"/></linearGradient><linearGradient id="езымЯнный_градиент_55" x1="368.8" y1="284.02" x2="638.81" y2="284.02" gradientUnits="userSpaceOnUse"><stop offset="0" stop-color="#ff5a70"/><stop offset="1" stop-color="#ffae6c"/></linearGradient><linearGradient id="linear-gradient-2" x1="247.73" y1="162.6" x2="290.31" y2="162.6" gradientUnits="userSpaceOnUse"><stop offset="0" stop-color="#dffeff"/><stop offset="1" stop-color="#01b0f9"/></linearGradient><linearGradient id="linear-gradient-3" x1="281.97" y1="115.26" x2="387.37" y2="138.61" xlink:href="#linear-gradient-2"/><linearGradient id="linear-gradient-4" x1="466.32" y1="193.32" x2="410.78" y2="366.27" xlink:href="#linear-gradient-2"/><linearGradient id="linear-gradient-5" x1="407.13" y1="162.75" x2="452.58" y2="299.08" xlink:href="#linear-gradient-2"/><linearGradient id="linear-gradient-6" x1="353.5" y1="124.58" x2="428.61" y2="206.63" xlink:href="#linear-gradient-2"/><linearGradient id="linear-gradient-7" x1="344.73" y1="71.56" x2="344.73" y2="344.31" xlink:href="#linear-gradient-2"/><linearGradient id="linear-gradient-8" x1="254.74" y1="262.97" x2="434.69" y2="262.97" xlink:href="#linear-gradient-2"/><linearGradient id="linear-gradient-9" x1="278.32" y1="280.99" x2="387.86" y2="280.99" gradientUnits="userSpaceOnUse"><stop offset="0" stop-color="#01b3f9"/><stop offset="1" stop-color="#015bea"/></linearGradient><linearGradient id="linear-gradient-10" x1="321.64" y1="239.68" x2="321.64" y2="336.86" xlink:href="#linear-gradient-9"/><radialGradient id="radial-gradient" cx="300.09" cy="324.19" r="87.18" gradientUnits="userSpaceOnUse"><stop offset="0" stop-color="#419dff"/><stop offset="0.53" stop-color="#1d4cd4"/><stop offset="1" stop-color="#08137a"/></radialGradient><linearGradient id="linear-gradient-11" x1="304.42" y1="210.06" x2="321.23" y2="210.06" xlink:href="#linear-gradient-9"/><linearGradient id="linear-gradient-12" x1="304.27" y1="217.58" x2="369.1" y2="217.58" xlink:href="#linear-gradient-9"/><linearGradient id="linear-gradient-13" x1="327.44" y1="174.07" x2="327.44" y2="275.53" xlink:href="#linear-gradient-2"/><linearGradient id="linear-gradient-14" x1="232.36" y1="293.57" x2="366.8" y2="307.3" xlink:href="#linear-gradient-2"/><linearGradient id="linear-gradient-15" x1="183.54" y1="324.41" x2="211.95" y2="411.52" xlink:href="#linear-gradient-2"/><linearGradient id="linear-gradient-16" x1="173.22" y1="279.36" x2="203.52" y2="423.74" xlink:href="#linear-gradient-2"/><linearGradient id="linear-gradient-17" x1="177.99" y1="284.05" x2="303.59" y2="386.93" xlink:href="#linear-gradient-9"/><linearGradient id="linear-gradient-18" x1="286.35" y1="344.86" x2="279.72" y2="279.06" gradientUnits="userSpaceOnUse"><stop offset="0" stop-color="#f6fbff"/><stop offset="1" stop-color="#3d6dff"/></linearGradient><linearGradient id="linear-gradient-19" x1="260.52" y1="328.47" x2="256.73" y2="300.54" xlink:href="#linear-gradient-9"/><linearGradient id="linear-gradient-20" x1="270.26" y1="327.15" x2="266.48" y2="299.22" xlink:href="#linear-gradient-9"/><linearGradient id="linear-gradient-21" x1="280" y1="325.83" x2="276.22" y2="297.9" xlink:href="#linear-gradient-9"/><linearGradient id="linear-gradient-22" x1="289.75" y1="324.51" x2="285.96" y2="296.58" xlink:href="#linear-gradient-9"/><linearGradient id="linear-gradient-23" x1="299.49" y1="323.19" x2="295.7" y2="295.26" xlink:href="#linear-gradient-9"/><linearGradient id="linear-gradient-24" x1="309.23" y1="321.86" x2="305.44" y2="293.93" xlink:href="#linear-gradient-9"/></defs><g class="cls-1"><g id="Слой_2" data-name="Слой 2"><g id="Layer_1" data-name="Layer 1"><path class="cls-2" d="M512.23,322.31c13-7.5,34.25-7.5,47.23,0L767.77,442.58c13,7.49,13,19.76,0,27.26L267.26,760.35c-13,7.5-34.24,7.5-47.22,0L11.74,640.08c-13-7.5-13-19.77,0-27.27Z"/><path class="cls-3" d="M510.23,259.69c13-7.5,34.25-7.5,47.23,0L765.77,380c13,7.5,13,19.77,0,27.27l-500.5,290.5c-13,7.5-34.24,7.5-47.22,0L9.74,577.46c-13-7.5-13-19.77,0-27.27Z"/><path class="cls-4" d="M510.23,259.69c13-7.5,34.25-7.5,47.23,0L765.77,380c13,7.5,13,19.77,0,27.27l-500.5,290.5c-13,7.5-34.24,7.5-47.22,0L9.74,577.46c-13-7.5-13-19.77,0-27.27Z"/><path class="cls-3" d="M241.65,696.32c-8.42,0-16.27-1.85-22.1-5.22L11.25,570.84c-5.31-3.07-8.23-7-8.24-11s2.93-8,8.24-11l500.49-290.5c5.83-3.37,13.68-5.22,22.11-5.22s16.27,1.85,22.1,5.22L764.26,378.55c5.31,3.07,8.23,7,8.23,11s-2.93,8-8.24,11L263.75,691.11C257.93,694.47,250.08,696.32,241.65,696.32Z"/><path class="cls-5" d="M241.65,695.12c-8.21,0-15.85-1.8-21.5-5.06L11.85,569.79c-4.92-2.84-7.63-6.38-7.63-10s2.71-7.14,7.63-10l500.5-290.5c5.64-3.26,13.28-5.06,21.5-5.06s15.85,1.8,21.5,5.06L763.66,379.6c4.91,2.84,7.62,6.38,7.62,10s-2.71,7.15-7.64,10L263.15,690.06C257.5,693.32,249.87,695.12,241.65,695.12Z"/><path class="cls-3" d="M9.74,577.46,218,697.72c13,7.5,34.24,7.5,47.22,0l500.5-290.5c6.31-3.65,9.53-8.41,9.71-13.22h0v19.67c0,4.95-3.26,9.89-9.75,13.64l-500.5,290.5c-13,7.5-34.24,7.5-47.22,0L9.74,597.55C3.25,593.8,0,588.86,0,583.92V563.84H0C0,568.78,3.25,573.71,9.74,577.46Z"/><path class="cls-6" d="M9.74,577.46,218,697.72c13,7.5,34.24,7.5,47.22,0l500.5-290.5c6.31-3.65,9.53-8.41,9.71-13.22h0v19.67c0,4.95-3.26,9.89-9.75,13.64l-500.5,290.5c-13,7.5-34.24,7.5-47.22,0L9.74,597.55C3.25,593.8,0,588.86,0,583.92V563.84H0C0,568.78,3.25,573.71,9.74,577.46Z"/><path class="cls-3" d="M157,620.56l-16.16-9.33L157,601.9l16.16,9.33Zm-13.2-9.33,13.2,7.62,13.21-7.62L157,603.61Z"/><polygon class="cls-3" points="231.79 669.06 231.79 659.33 248.65 659.33 248.65 660.53 233.88 660.53 233.88 669.06 231.79 669.06"/><polygon class="cls-3" points="80.98 558.6 64.81 567.93 66.29 568.78 82.46 559.45 80.98 558.6"/><polygon class="cls-3" points="60.34 565.34 61.82 566.2 77.98 556.87 76.5 556.01 60.34 565.34"/><polygon class="cls-3" points="55.86 562.76 57.34 563.61 73.5 554.28 72.02 553.43 55.86 562.76"/><polygon class="cls-7" points="736.4 409.14 363.13 624.84 166.4 511.25 539.67 295.56 736.4 409.14"/><polygon class="cls-3" points="481.05 216.47 315.01 396.86 510.5 509.72 676.53 329.33 481.05 216.47"/><polygon class="cls-8" points="484.33 248.93 658.16 349.29 676.53 329.33 481.05 216.47 315.01 396.86 336.66 409.36 484.33 248.93"/><polygon class="cls-8" points="315.01 396.86 500.21 503.78 557.9 441.12 372.69 334.19 315.01 396.86"/><polygon class="cls-9" points="327.49 299.25 142.63 500.09 360.28 625.75 545.14 424.91 327.49 299.25"/><polygon class="cls-8" points="526.5 445.17 545.14 424.91 327.49 299.25 308.85 319.51 526.5 445.17"/><polygon class="cls-10" points="319.41 318.5 329.5 324.32 338.67 314.29 328.58 308.47 319.41 318.5"/><polygon class="cls-10" points="518.3 427.32 528.39 433.15 530.37 430.98 520.28 425.15 518.3 427.32"/><polygon class="cls-10" points="523.83 421.28 521.85 423.44 531.93 429.27 533.91 427.1 523.83 421.28"/><polygon class="cls-10" points="514.71 431.26 524.79 437.08 526.78 434.91 516.69 429.08 514.71 431.26"/><polygon class="cls-8" points="314.77 340.44 306.81 349.16 492.02 456.09 499.98 447.37 314.77 340.44"/><polygon class="cls-8" points="373.25 415.57 475.24 474.46 479.22 470.1 377.24 411.21 373.25 415.57"/><polygon class="cls-8" points="362.05 427.83 464.04 486.71 468.02 482.36 366.04 423.47 362.05 427.83"/><polygon class="cls-8" points="350.85 440.09 452.83 498.98 456.82 494.62 354.83 435.74 350.85 440.09"/><polygon class="cls-8" points="314.08 480.34 358.42 505.94 366.93 496.63 322.58 471.03 314.08 480.34"/><polygon class="cls-11" points="391.09 524.8 417.67 540.14 426.17 530.84 399.59 515.49 391.09 524.8"/><polygon class="cls-8" points="402.88 482.2 343.63 447.99 339.65 452.35 398.89 486.56 402.88 482.2"/><path class="cls-8" d="M266.69,453c19.79,11.43,50.42,4.73,68.41-15s16.53-44.92-3.26-56.34-50.42-4.73-68.41,15S246.9,441.55,266.69,453Z"/><polygon class="cls-12" points="215.74 448.83 172.51 496.14 257.73 545.34 300.95 498.03 215.74 448.83"/><polygon class="cls-8" points="272.51 553.87 357.73 603.07 400.95 555.76 315.73 506.56 272.51 553.87"/><polygon class="cls-8" points="385.27 320.52 572.4 428.56 668.18 324.51 481.05 216.47 385.27 320.52"/><polygon class="cls-13" points="524.76 79.26 339.9 280.09 557.55 405.75 742.41 204.91 524.76 79.26"/><polygon class="cls-8" points="723.76 225.17 742.41 204.91 524.76 79.26 506.12 99.51 723.76 225.17"/><polygon class="cls-10" points="516.68 98.51 526.77 104.33 535.93 94.3 525.85 88.47 516.68 98.51"/><polygon class="cls-10" points="715.57 207.33 725.65 213.15 727.64 210.98 717.55 205.16 715.57 207.33"/><polygon class="cls-10" points="721.09 201.28 719.11 203.45 729.2 209.27 731.18 207.1 721.09 201.28"/><polygon class="cls-10" points="711.98 211.26 722.06 217.08 724.04 214.91 713.96 209.09 711.98 211.26"/><g class="cls-14"><polygon class="cls-10" points="551.49 172.96 493.04 139.22 458.3 177.24 516.75 210.99 551.49 172.96"/><polygon class="cls-15" points="368.8 275.2 556.12 383.35 638.81 292.84 451.49 184.69 368.8 275.2"/><polygon class="cls-10" points="615.93 210.16 557.48 176.42 522.74 214.44 581.18 248.19 615.93 210.16"/><polygon class="cls-10" points="587.17 251.65 645.62 285.39 680.36 247.37 621.92 213.62 587.17 251.65"/><polygon class="cls-10" points="512.03 118.44 503.97 127.26 691.29 235.41 699.35 226.59 512.03 118.44"/></g><polygon class="cls-8" points="507.26 265.32 625.16 137.22 524.76 79.26 406.86 207.35 507.26 265.32"/><polygon class="cls-9" points="471.36 0 341.83 140.72 494.33 228.77 623.86 88.05 471.36 0"/><polygon class="cls-8" points="607.94 105.34 623.86 88.05 471.36 0 455.44 17.3 607.94 105.34"/><polygon class="cls-10" points="463.59 18.32 473.68 24.14 482.85 14.11 472.76 8.28 463.59 18.32"/><polygon class="cls-10" points="597.13 88.46 607.22 94.28 609.2 92.11 599.12 86.29 597.13 88.46"/><polygon class="cls-10" points="602.66 82.41 600.68 84.58 610.77 90.4 612.75 88.23 602.66 82.41"/><polygon class="cls-10" points="593.54 92.39 603.63 98.21 605.61 96.04 595.53 90.22 593.54 92.39"/><polygon class="cls-10" points="648.83 330.69 658.92 336.51 660.9 334.34 650.82 328.52 648.83 330.69"/><polygon class="cls-10" points="654.36 324.64 652.38 326.81 662.46 332.63 664.44 330.46 654.36 324.64"/><polygon class="cls-10" points="645.24 334.62 655.33 340.44 657.31 338.27 647.22 332.45 645.24 334.62"/><polygon class="cls-8" points="516.21 70.94 456.64 36.55 409.66 87.97 469.23 122.36 516.21 70.94"/><polygon class="cls-8" points="524.85 75.93 477.87 127.35 537.44 161.74 584.42 110.32 524.85 75.93"/><path class="cls-11" d="M493.3,160l-65.76-38c-8.29-4.78-21.13-2-28.67,6.27s-6.93,18.83,1.37,23.62l65.75,38c8.3,4.79,21.14,2,28.68-6.27S501.6,164.79,493.3,160Z"/><path class="cls-16" d="M269.76,167l20.55-11.94a22.75,22.75,0,0,1-2.09,1.06l-.68.27c-.45.18-.91.35-1.38.5-.66.22-1.34.4-2,.56-.3.07-.59.15-.9.21s-.79.12-1.19.17-1,.15-1.49.18c-.29,0-.59,0-.88,0-.6,0-1.2,0-1.81,0l-.8,0c-.8,0-1.62-.1-2.45-.21l-.14,0c-.89-.12-1.8-.29-2.72-.49l-.57-.12c-.95-.23-1.91-.48-2.88-.79h0l-20.55,11.95.49.15c.62.19,1.24.36,1.84.51l.56.12.56.13.77.17c.65.12,1.28.23,1.92.31h.18c.62.08,1.23.15,1.84.19l.61,0,.79,0,.74,0c.37,0,.72,0,1.08-.05l.87,0,.36,0c.39,0,.76-.11,1.14-.16s.8-.1,1.19-.17l.26,0c.22-.05.42-.13.64-.18.69-.16,1.38-.34,2-.56.14,0,.3-.07.44-.12.32-.11.63-.25.94-.38s.45-.17.67-.27A20.64,20.64,0,0,0,269.76,167Z"/><polygon class="cls-17" points="302.41 114.34 281.85 126.28 344.99 134.67 365.54 122.72 302.41 114.34"/><path class="cls-18" d="M460.21,280.39c.33-1.65.64-3.33.94-5,.05-.3.11-.58.16-.88,0,0,0-.05,0-.07q.5-2.91.95-5.93l-20.55,11.94q-.45,3-1,5.93c0,.33-.12.64-.17,1-.3,1.7-.61,3.37-.94,5-.14.69-.29,1.36-.43,2-.26,1.25-.52,2.5-.8,3.73-.15.68-.32,1.35-.47,2-.31,1.3-.62,2.59-.94,3.85-.19.72-.37,1.42-.56,2.13-.32,1.21-.65,2.4-1,3.58-.18.64-.36,1.29-.55,1.93-.56,1.86-1.12,3.7-1.71,5.48a2.76,2.76,0,0,0-.08.27c-.62,1.87-1.27,3.68-1.92,5.47-.34.91-.68,1.82-1,2.71-.14.35-.27.7-.4,1-.52,1.31-1,2.59-1.57,3.85l-.35.79c-.42,1-.86,2-1.29,2.94l-.57,1.22c-.34.73-.69,1.46-1,2.18s-.67,1.37-1,2.05-.61,1.21-.92,1.8-.69,1.31-1,2l-.95,1.72c-.36.64-.71,1.26-1.08,1.88l-1,1.65-1.11,1.8c-.33.53-.65,1.05-1,1.57s-.73,1.12-1.09,1.67l-1,1.52-1.13,1.6c-.34.48-.68,1-1,1.44s-.77,1-1.15,1.54-.69.92-1,1.37l-1.17,1.46c-.35.44-.7.88-1.06,1.3s-.79.94-1.19,1.4-.7.83-1.06,1.23-.8.89-1.21,1.33-.71.79-1.07,1.17-.81.85-1.22,1.27-.71.74-1.07,1.1l-1.24,1.21c-.35.34-.71.7-1.07,1s-.83.77-1.25,1.15-.71.66-1.07,1-.84.74-1.26,1.1l-1.06.91-1.28,1-1.05.85c-.43.34-.86.66-1.28,1l-1,.8-1.31.95-1,.71c-.46.33-.93.64-1.39.95l-.91.62-1.61,1-.69.44c-.76.47-1.52.93-2.27,1.36l20.55-11.94c.75-.44,1.51-.89,2.28-1.37l.69-.43c.53-.34,1.06-.67,1.6-1l.91-.61,1.4-.95,1-.72c.44-.31.88-.62,1.32-.95l1-.79,1.28-1c.35-.27.71-.56,1.06-.85s.85-.68,1.27-1,.71-.6,1.06-.91.85-.72,1.26-1.09.72-.65,1.08-1,.83-.75,1.24-1.14l1.08-1c.41-.4.82-.79,1.23-1.21l1.08-1.1c.41-.42.81-.83,1.21-1.26s.72-.78,1.08-1.18.8-.87,1.2-1.32l1.07-1.24c.4-.46.79-.92,1.18-1.39s.71-.87,1.07-1.31L431,349.2c.35-.45.7-.92,1.05-1.38l1.14-1.53c.35-.47.69-1,1-1.45s.75-1,1.12-1.59l1-1.53,1.1-1.66.34-.53c.22-.34.43-.7.65-1,.37-.59.74-1.19,1.1-1.8s.65-1.09,1-1.64.72-1.25,1.07-1.88.64-1.15.95-1.73.7-1.29,1-1.95.62-1.2.92-1.81.68-1.35,1-2c.14-.3.29-.59.44-.9l.6-1.29c.18-.4.37-.8.56-1.21q.66-1.46,1.29-2.94c.12-.27.24-.53.35-.8.53-1.26,1.06-2.54,1.57-3.84.14-.34.27-.7.4-1,.27-.7.55-1.41.82-2.13.07-.19.13-.39.2-.57.66-1.79,1.3-3.61,1.92-5.48,0-.08.05-.17.08-.26q.89-2.69,1.71-5.49c.07-.23.15-.45.21-.69.12-.4.23-.83.35-1.23.33-1.19.66-2.38,1-3.59.18-.7.37-1.41.55-2.12.32-1.27.63-2.56.94-3.86.11-.48.23-.93.34-1.42,0-.2.09-.41.13-.61.28-1.22.54-2.47.8-3.73C459.93,281.74,460.07,281.08,460.21,280.39Z"/><path class="cls-19" d="M458.84,265.4l-.4-.37c-1.08-1-2.14-2.09-3.18-3.18l-.43-.45q-1.54-1.63-3-3.36l-.42-.49q-1.42-1.69-2.8-3.47c-.2-.25-.39-.51-.59-.77q-1-1.31-1.92-2.64c-.4-.56-.8-1.12-1.19-1.69s-.73-1.12-1.1-1.67c-.8-1.23-1.59-2.48-2.34-3.74-.42-.7-.85-1.4-1.25-2.11-.32-.55-.62-1.1-.93-1.66-.69-1.27-1.38-2.54-2-3.83v0c-.76-1.53-1.48-3.08-2.17-4.63a2.6,2.6,0,0,0-.1-.25c-.64-1.47-1.25-2.94-1.81-4.43l-.18-.46c-.54-1.43-1-2.86-1.51-4.3-.06-.18-.12-.37-.17-.55-.46-1.42-.87-2.84-1.25-4.26-.05-.2-.1-.39-.16-.59-.36-1.42-.69-2.83-1-4.24l-.12-.56c-.28-1.42-.52-2.83-.72-4.24,0-.16-.05-.33-.07-.49-.19-1.44-.34-2.86-.45-4.28l0-.37c-.1-1.51-.16-3-.15-4.5,0-.86,0-1.71.07-2.55,0-.25,0-.49,0-.73,0-.6.09-1.18.15-1.76,0-.28.05-.56.08-.83.07-.57.14-1.13.23-1.68,0-.26.07-.52.11-.78.13-.79.28-1.56.45-2.32L408,199.09c-.16.68-.29,1.38-.42,2.09l0,.24-.12.77c-.05.39-.12.77-.17,1.16,0,.17,0,.35-.05.52l-.09.83c0,.26-.06.51-.08.77l-.06,1c0,.25,0,.49,0,.73l0,.36c0,.69,0,1.38,0,2.08v.12c0,.66,0,1.33,0,2s.06,1.43.1,2.16l0,.33,0,.37c0,.49.07,1,.12,1.47.07.73.15,1.46.24,2.2l.09.6c0,.17.05.33.07.5.05.37.1.75.16,1.13.12.76.25,1.53.4,2.29.05.27.11.54.16.82s.08.37.11.55.13.63.2.95c.17.79.35,1.58.55,2.38l.24.91c0,.2.1.4.16.59s.15.59.23.88c.22.8.45,1.59.69,2.39.11.33.22.66.32,1l.18.56c.09.26.16.52.25.78.26.77.53,1.53.8,2.3l.46,1.21c.06.15.11.31.17.47l.21.54c.28.73.57,1.45.88,2.18.23.57.48,1.14.73,1.7,0,.09.07.17.1.25l.09.2c.32.74.66,1.48,1,2.22s.7,1.47,1.06,2.21l0,0h0c.45.92.93,1.84,1.41,2.75.19.36.4.71.6,1.06.3.56.61,1.11.93,1.66.22.39.43.79.66,1.19s.39.61.58.93c.76,1.26,1.55,2.5,2.35,3.74.23.34.44.71.67,1.05l.42.61,1.2,1.7c.38.52.73,1.06,1.12,1.58l.8,1.05.59.78.56.73c.58.73,1.16,1.46,1.76,2.18l.48.55.42.5.81.95q.87,1,1.77,1.95c.14.16.28.3.42.45l.44.45c.32.34.63.68,1,1,.63.65,1.27,1.28,1.92,1.9l.29.27.41.38c.42.4.84.8,1.27,1.18.66.6,1.33,1.19,2,1.76l.16.13,20.55-11.94C461.11,267.5,460,266.47,458.84,265.4Z"/><polygon class="cls-20" points="344.99 134.67 365.54 122.72 428.51 187.15 407.96 199.09 344.99 134.67"/><path class="cls-21" d="M345,134.67l63,64.42a49.16,49.16,0,0,0-1.13,10.66c-.07,24.42,14.77,53.78,34.9,70.67-15.87,106-82.58,117.82-97.49,119.14-6.69-8.31-23.74-30.7-41.73-63.71-20.37-37.39-46-96.29-54.78-167.43,20.16,6.36,35.12-5.79,35.19-30.21a68.56,68.56,0,0,0-1.07-11.93Z"/><path class="cls-22" d="M344.24,389.29a442.52,442.52,0,0,1-36.13-56.18c-18.47-33.88-42.41-88-51.82-153.71,20.41,2.86,34.14-11.89,34.21-36.88,0-1.89-.08-3.86-.23-5.84L345,143.94l54.54,55.8c-.16,1.79-.25,3.66-.26,5.55-.07,25,13.53,55.52,33.89,76.2-16,89.66-71.55,105.15-88.88,107.8m.71-247-56.15-7.45.05.64c.19,2.14.28,4.25.27,6.29-.07,24.56-13.67,39-33.84,35.84l-.54-.07.09.7c9.39,66.41,33.6,121.17,52.26,155.42a442.91,442.91,0,0,0,36.79,57.07l.36.47.37,0c17.05-2.48,73.93-17.73,90-109.13l.11-.59-.54-.55c-20.13-20.15-33.61-50.18-33.54-74.74,0-2,.11-4,.31-6l.05-.58L345.21,142.5l-.26-.26"/><path class="cls-23" d="M387.86,271.58c0-.12,0-.25,0-.37l0-.36c0-.13,0-.25,0-.37s0-.25,0-.38h0l-.06-.36c0-.13,0-.26-.08-.39l-.09-.39c0-.13-.07-.27-.11-.4a1.81,1.81,0,0,0-.09-.31v0s0,0,0-.06-.08-.26-.13-.39-.08-.25-.13-.38-.09-.24-.14-.37-.09-.24-.14-.36l-.12-.28v0l0-.06-.16-.36c-.06-.13-.13-.26-.19-.4l-.24-.45c-.08-.16-.17-.32-.26-.47l0-.09-.06-.1c-.17-.3-.36-.59-.55-.88s-.31-.46-.48-.68h0l-.33-.44-.29-.36-.29-.34-.29-.32-.06-.06,0,0-.23-.24c-.1-.11-.21-.21-.32-.31l-.33-.31-.33-.29-.17-.14,0,0-.13-.1-.32-.26-.33-.23-.32-.21-.32-.19-.07-.05-76.15-44-.24-.14-.31-.16-.31-.14-.3-.13-.3-.11-.06,0h0l-.23-.07-.31-.09-.31-.07-.33-.05-.22,0h-.46l-.39,0c-.15,0-.3,0-.44.06h0a4.1,4.1,0,0,0-.5.14,3.37,3.37,0,0,0-.61.28L278.32,226.4a4.11,4.11,0,0,1,1.11-.42h0a4.43,4.43,0,0,1,1.27-.06h0a6.09,6.09,0,0,1,1.39.3h0a8.77,8.77,0,0,1,1.51.7l76.16,44a11,11,0,0,1,1.49,1l0,0a15,15,0,0,1,1.37,1.29l0,0a17.88,17.88,0,0,1,2.35,3.19l0,.08a17.84,17.84,0,0,1,.89,1.74v0a15.6,15.6,0,0,1,.67,1.84v0a13.87,13.87,0,0,1,.43,1.86h0a11.48,11.48,0,0,1,.15,1.83l-.17,59.36a9.1,9.1,0,0,1-.15,1.62v0a5.76,5.76,0,0,1-.43,1.33v0a4.05,4.05,0,0,1-.56.87,2.65,2.65,0,0,1-.21.26,3.49,3.49,0,0,1-.82.67h0l20.55-11.94a3.34,3.34,0,0,0,.82-.68c.08-.08.14-.17.21-.25s.19-.21.27-.34a4.21,4.21,0,0,0,.29-.51v-.05c.05-.12.11-.25.16-.38s.09-.26.13-.4.07-.25.1-.38l0-.16v-.05l0-.16q0-.17.06-.36l0-.36c0-.11,0-.23,0-.35s0-.24,0-.36v0l.17-59.36Z"/><path class="cls-24" d="M359.83,270.9a16.5,16.5,0,0,1,7.48,13l-.17,59.36c0,4.76-3.39,6.68-7.53,4.29l-76.15-44a16.5,16.5,0,0,1-7.5-13l.17-59.36c0-4.77,3.38-6.69,7.54-4.29Z"/><path class="cls-25" d="M320.2,263.36c5.57,3.22,10.08,11,10.06,17.41,0,3.56-1.43,5.88-3.63,6.74l-.05,18.19c0,4.11-2.92,5.77-6.51,3.69a14.22,14.22,0,0,1-6.46-11.18l.05-18.19a20.94,20.94,0,0,1-3.58-10.9C310.1,262.73,314.64,260.15,320.2,263.36Z"/><path class="cls-26" d="M315.43,195.42a2.38,2.38,0,0,1,.05-.26c.13-.61.28-1.2.46-1.77,0-.1.06-.21.1-.31a15.23,15.23,0,0,1,.6-1.53l.06-.15a14.55,14.55,0,0,1,.86-1.56c0-.06.1-.12.14-.19a12.76,12.76,0,0,1,.82-1.08l.33-.36a8.4,8.4,0,0,1,.8-.78l.34-.3a11.35,11.35,0,0,1,1.24-.85l-8.84,5.13a11.44,11.44,0,0,0-1.24.86l-.34.3a9.7,9.7,0,0,0-.8.77l-.33.37a11.18,11.18,0,0,0-.82,1.07c0,.07-.1.13-.14.2l0,.05a14.51,14.51,0,0,0-.81,1.46.08.08,0,0,1,0,0l-.06.16c-.15.33-.3.66-.43,1-.06.17-.11.34-.17.52a2.81,2.81,0,0,0-.1.31c0,.1-.07.19-.1.29-.1.35-.2.71-.28,1.09,0,.12-.06.26-.08.39a2.21,2.21,0,0,0-.05.25c0,.13-.06.26-.08.4-.06.33-.11.67-.15,1,0,.19,0,.39-.06.58a1.23,1.23,0,0,0,0,.2l0,.25c0,.32-.05.66-.06,1s0,.68,0,1v.06l-.07,25.1a6.7,6.7,0,0,1-.11,1.23v0a4.79,4.79,0,0,1-.33,1v0a3.41,3.41,0,0,1-.43.66l-.16.2a2.77,2.77,0,0,1-.63.51l8.84-5.13a3.11,3.11,0,0,0,.63-.52c.06-.06.1-.13.16-.2a2.43,2.43,0,0,0,.2-.25c.08-.12.15-.26.22-.39v0a2.55,2.55,0,0,0,.13-.29c0-.1.07-.2.1-.3s.05-.19.07-.29l0-.13v0a.5.5,0,0,1,0-.12,2.36,2.36,0,0,0,0-.28l0-.27c0-.09,0-.18,0-.27V225l.07-25.09q0-1.22.12-2.34a1.36,1.36,0,0,1,0-.2A19.62,19.62,0,0,1,315.43,195.42Z"/><path class="cls-27" d="M369.08,229.7c0-.53,0-1-.07-1.58l-.06-.74,0-.31c0-.18,0-.36,0-.54-.05-.53-.11-1.07-.18-1.6s-.15-1.1-.23-1.65a.13.13,0,0,1,0-.06s0-.05,0-.07c-.08-.51-.16-1-.26-1.52s-.22-1.14-.34-1.71l-.15-.62c0-.12-.06-.24-.08-.36s-.11-.49-.17-.73c-.15-.58-.3-1.16-.46-1.74-.12-.43-.25-.87-.38-1.3,0-.07,0-.15-.07-.23l-.06-.2c-.17-.57-.35-1.13-.54-1.7s-.38-1.12-.58-1.67l-.13-.33-.09-.26-.39-1c-.2-.53-.42-1.06-.64-1.59s-.33-.78-.5-1.17c0-.06-.05-.13-.08-.19l-.09-.21-.72-1.59-.84-1.73c-.05-.09-.1-.18-.14-.27l-.18-.34c-.23-.45-.46-.91-.7-1.36s-.63-1.13-1-1.69c-.16-.29-.31-.57-.48-.86l-.19-.34c-.28-.48-.6-.95-.9-1.43-.44-.71-.87-1.42-1.32-2.11-.08-.11-.14-.23-.21-.34-.66-1-1.34-1.94-2-2.88l0-.08h0c-.48-.65-1-1.29-1.46-1.92s-.79-1-1.2-1.47l0-.05,0,0c-.42-.5-.84-1-1.27-1.48s-.85-1-1.27-1.41l-.21-.21-.22-.23c-.3-.33-.61-.65-.92-1s-.91-.92-1.38-1.36l-.42-.39-.32-.31-.7-.64c-.48-.44-1-.86-1.45-1.27l-.64-.52-.33-.27-.49-.4c-.47-.38-.95-.74-1.43-1.1l-1-.73-.2-.14-.19-.14c-.45-.31-.92-.62-1.38-.91s-.92-.58-1.38-.85l-.32-.18c-.35-.21-.7-.4-1-.59l-.4-.2-.53-.28-.41-.21-.66-.31-.48-.22-.18-.09c-.44-.2-.88-.38-1.31-.56h0l-.06,0c-.42-.17-.84-.33-1.25-.47l-.18-.06-.48-.16c-.21-.07-.43-.15-.65-.21a3.37,3.37,0,0,0-.34-.09l-.58-.16-.43-.12-.47-.11-.58-.13-.3-.06-.54-.09-.66-.11-.23,0-.55-.06-.71-.07-.2,0h-.47l-.84,0h-.23l-.36,0c-.35,0-.69,0-1,0H320a1.81,1.81,0,0,1-.23,0c-.51.06-1,.13-1.52.23l-.14,0h0A17.19,17.19,0,0,0,316,171l-.19.05-.14.06c-.3.1-.59.23-.87.35l-.42.18c-.42.2-.83.41-1.23.64l-8.84,5.14a12,12,0,0,1,1.23-.64c.13-.07.28-.12.42-.18s.57-.25.86-.36l.34-.11a17.17,17.17,0,0,1,2.08-.57l.17,0c.5-.09,1-.16,1.52-.22l.54-.05c.34,0,.68,0,1,0a5.81,5.81,0,0,1,.59,0l.83,0,.68,0,.7.07.79.1.66.1.84.16.58.13.9.22.58.16,1,.31.48.16c.48.16.95.34,1.44.53l.05,0c.5.2,1,.42,1.51.64l.46.22,1.08.53.53.28c.48.25,1,.5,1.44.78,1.1.64,2.19,1.34,3.27,2.08l.2.14c1,.71,2,1.45,3,2.24l.33.27c.95.77,1.88,1.59,2.79,2.43l.32.3q1.4,1.32,2.73,2.73l.21.22c1,1,1.87,2.06,2.77,3.14l0,.06q1.38,1.65,2.67,3.4l.06.09c.77,1,1.51,2.12,2.23,3.21.46.69.89,1.4,1.32,2.11s.74,1.17,1.09,1.77c.17.28.32.57.48.86.57,1,1.13,2,1.65,3.05l.18.34c.63,1.25,1.23,2.52,1.79,3.8,0,.06.05.13.08.19q.83,1.88,1.53,3.78l.09.26c.48,1.3.92,2.6,1.31,3.9a2,2,0,0,1,.07.23c.38,1.25.71,2.51,1,3.76,0,.12.05.24.08.36.29,1.29.55,2.58.75,3.86,0,0,0,.05,0,.07.2,1.29.36,2.58.46,3.85l0,.31c.1,1.28.15,2.54.15,3.79l-.07,25.09a6,6,0,0,1-.12,1.24v0a4.79,4.79,0,0,1-.33,1v0a3,3,0,0,1-.43.66,1.56,1.56,0,0,1-.16.2,2.81,2.81,0,0,1-.62.52l8.84-5.14a3.11,3.11,0,0,0,.63-.52l.15-.19a2.65,2.65,0,0,0,.21-.26,3.61,3.61,0,0,0,.22-.39v0a1.48,1.48,0,0,0,.12-.29,2.11,2.11,0,0,0,.1-.3,2.45,2.45,0,0,0,.08-.29l0-.13v0l0-.12c0-.09,0-.18,0-.28l0-.27c0-.09,0-.18,0-.27a2.53,2.53,0,0,0,0-.28v0l.07-25.09C369.1,230.68,369.1,230.19,369.08,229.7Z"/><path class="cls-28" d="M327.59,179.71c18.07,10.44,32.73,35.82,32.67,56.6l-.07,25.09c0,3.64-2.58,5.1-5.75,3.28a12.61,12.61,0,0,1-5.72-9.9l.08-25.09c0-13.51-9.5-30-21.25-36.8s-21.35-1.32-21.39,12.18l-.07,25.1c0,3.64-2.58,5.1-5.74,3.27a12.55,12.55,0,0,1-5.72-9.89l.07-25.1C294.76,177.67,309.51,169.28,327.59,179.71Z"/><path class="cls-29" d="M326.59,273.85a2.58,2.58,0,0,1,.57-.13h0a1.71,1.71,0,0,1,.56,0h0a1.61,1.61,0,0,1,.49.19l-8-4.63h0l-.18-.09-.18-.07-.12,0h-.08l-.21,0h-.48a1.73,1.73,0,0,0-.31.07l-.13,0-.12,0-.16.06a4.4,4.4,0,0,0-.49.24l-91.73,53,8,4.64,91.73-53a4.15,4.15,0,0,1,.65-.3Z"/><path class="cls-30" d="M221.41,350.3c0-7.37-2.63-12.57-6.84-15l-8-4.64c4.21,2.45,6.82,7.64,6.84,15,0,.85,0,1.71-.1,2.58,0,.27-.05.55-.08.83-.06.55-.12,1.11-.2,1.67s-.21,1.24-.32,1.87c-.09.42-.16.85-.26,1.28s-.19.8-.29,1.2c-.14.56-.28,1.11-.45,1.67-.09.32-.19.64-.29,1-.2.62-.41,1.25-.63,1.87-.09.26-.18.52-.28.78-.32.86-.66,1.72-1,2.57l-.13.3c-.34.76-.7,1.51-1.07,2.26l-.36.71c-.36.71-.74,1.41-1.13,2.1l-.24.42q-.7,1.22-1.47,2.4l-.46.68c-.37.56-.76,1.12-1.16,1.67-.21.3-.43.6-.65.89-.35.46-.7.91-1.06,1.35s-.6.75-.91,1.11l-.9,1c-.51.57-1,1.12-1.55,1.66-.33.33-.66.67-1,1l-.79.73c-.44.4-.88.79-1.33,1.16l-.79.66c-.49.39-1,.75-1.47,1.11-.24.17-.47.35-.71.51-.73.51-1.48,1-2.23,1.42s-1.44.78-2.14,1.11l-.55.25c-.68.3-1.36.58-2,.81l-.14,0c-.57.19-1.13.34-1.69.47l-1,.21c-.42.08-.83.14-1.24.19l-.7.07q-.78,0-1.53,0c-.1,0-.21,0-.32,0a16,16,0,0,1-1.73-.22l-.42-.1c-.44-.1-.87-.23-1.29-.37l-.39-.14a12.06,12.06,0,0,1-1.54-.73l8,4.63.13.08a11.68,11.68,0,0,0,1.18.57,1.57,1.57,0,0,0,.23.09l.39.13c.21.08.41.16.62.22l.67.16c.14,0,.27.07.42.09l.23.06a12.93,12.93,0,0,0,1.41.16h.41a11,11,0,0,0,1.15,0c.12,0,.25,0,.38,0l.69-.07.67-.07.58-.12,1-.21c.17,0,.34-.06.52-.11l1.17-.36.14,0c.48-.17,1-.35,1.45-.55l.57-.26.55-.25c.7-.34,1.42-.7,2.14-1.11s1.49-.92,2.23-1.42c.24-.16.47-.34.71-.51l1.47-1.11.79-.66c.45-.38.89-.76,1.33-1.16l.78-.73c.16-.16.33-.3.49-.45s.33-.37.5-.54c.53-.54,1-1.09,1.56-1.66.16-.18.33-.34.49-.53l.41-.49.91-1.11c.19-.24.4-.47.59-.72s.31-.42.47-.63.44-.59.65-.89.3-.39.44-.6.48-.72.72-1.08.31-.44.46-.67l.18-.27c.42-.66.82-1.32,1.21-2,0,0,0-.1.08-.14l.24-.43c.27-.47.53-.94.79-1.41.12-.23.22-.46.34-.68l.36-.71.31-.61c.26-.55.51-1.1.76-1.65l.13-.3a.36.36,0,0,0,0-.09c.31-.7.59-1.4.86-2.11,0-.12.09-.25.14-.38s.19-.51.28-.77.26-.71.38-1.06.16-.54.25-.82.2-.64.29-1,.13-.4.19-.6c.1-.36.17-.71.26-1.06s.2-.8.29-1.2c0-.15.08-.29.11-.43.06-.29.09-.57.14-.86.12-.62.24-1.24.32-1.86,0-.17.07-.35.09-.52,0-.39.08-.77.12-1.16s.06-.55.08-.82C221.37,352,221.41,351.15,221.41,350.3Z"/><path class="cls-31" d="M224.9,316.46c.15.08.31.15.46.24l-8-4.64-.21-.12c-.08,0-.17-.07-.25-.12-.47-.25-.95-.49-1.43-.7l-.27-.13-.23-.08a16.8,16.8,0,0,0-1.77-.62l-.05,0h0a17.47,17.47,0,0,0-1.93-.45l-.23-.05-.31,0c-.57-.09-1.16-.16-1.75-.2l-.27,0h-.1c-.73,0-1.47,0-2.23,0h-.22l-.29,0c-.85.05-1.71.12-2.59.26h0c-.57.09-1.15.19-1.73.32l-.56.14c-.37.08-.73.16-1.1.26a.45.45,0,0,1-.11,0c-.68.19-1.38.4-2.07.64l-.4.15c-.57.2-1.15.42-1.72.65l-.22.08-.41.19c-.62.27-1.24.55-1.87.85l-.69.34c-.82.41-1.63.85-2.46,1.32-1.24.72-2.47,1.51-3.68,2.34-.4.27-.78.57-1.17.85-.82.59-1.63,1.19-2.43,1.83l-1.32,1.09c-.74.62-1.46,1.26-2.18,1.92-.44.4-.88.8-1.31,1.21-.26.26-.54.49-.8.75-.73.71-1.44,1.45-2.15,2.2h0c-.7.75-1.4,1.52-2.08,2.3-.22.26-.43.54-.66.81-.51.6-1,1.21-1.51,1.83-.32.4-.65.78-1,1.19s-.51.7-.77,1c-.36.49-.73,1-1.08,1.47-.24.33-.49.65-.73,1-.41.58-.79,1.18-1.19,1.77l-.75,1.12c-.1.16-.21.3-.31.46-.68,1.08-1.35,2.17-2,3.28l-.12.22c-.14.23-.26.47-.39.7-.44.78-.89,1.56-1.31,2.35-.2.37-.37.74-.57,1.11l-.59,1.17c-.17.34-.35.68-.51,1-.44.9-.84,1.8-1.24,2.71l-.24.51-.06.14c-.5,1.16-1,2.32-1.42,3.48l-.23.63c-.16.42-.3.84-.46,1.27-.21.59-.43,1.17-.63,1.76s-.27.89-.41,1.34-.33,1.06-.48,1.6c-.1.33-.22.67-.31,1-.16.59-.28,1.17-.43,1.75s-.34,1.33-.49,2c0,.23-.12.46-.17.7-.23,1.08-.42,2.15-.6,3.23,0,.22-.06.44-.1.66-.07.49-.15,1-.22,1.46s-.12,1.27-.19,1.91c0,.46-.09.91-.13,1.36-.11,1.44-.17,2.87-.17,4.27,0,12.18,4.35,20.75,11.3,24.79l8,4.64c-7-4-11.27-12.62-11.3-24.79,0-1.41.06-2.83.17-4.27,0-.45.09-.91.13-1.36.11-1.12.24-2.24.41-3.38,0-.22.07-.43.1-.65.22-1.31.48-2.62.77-3.94.15-.66.32-1.32.49-2,.23-.92.47-1.84.73-2.75.16-.54.33-1.07.49-1.61.33-1,.67-2.06,1-3.09.15-.43.3-.85.46-1.28.53-1.42,1.1-2.84,1.71-4.24l.24-.52c.55-1.25,1.14-2.49,1.75-3.72l.59-1.17c.61-1.17,1.23-2.33,1.88-3.47l.38-.69c.78-1.34,1.6-2.66,2.44-4l.75-1.12c.63-.94,1.26-1.86,1.92-2.76.35-.5.72-1,1.08-1.47.57-.76,1.15-1.49,1.74-2.23s1-1.23,1.51-1.84c.9-1.05,1.8-2.1,2.74-3.1h0c1-1,1.95-2,2.95-2.95l1.3-1.22c.72-.65,1.45-1.29,2.19-1.91.44-.37.88-.74,1.32-1.09.8-.64,1.61-1.24,2.43-1.83.39-.28.77-.58,1.17-.85,1.21-.83,2.44-1.62,3.68-2.34.83-.48,1.64-.91,2.46-1.32l.69-.34c.63-.3,1.25-.59,1.87-.85l.63-.27c.57-.24,1.14-.45,1.71-.65l.41-.15c.69-.24,1.39-.45,2.07-.64l1.2-.3.57-.13c.58-.13,1.16-.24,1.74-.32.88-.14,1.74-.21,2.59-.26l.51,0c.76,0,1.5,0,2.23,0l.37,0c.59,0,1.18.12,1.75.21l.54.09c.66.12,1.3.26,1.93.44l.06,0c.61.18,1.2.4,1.77.63l.49.21C224,316,224.43,316.21,224.9,316.46Z"/><path class="cls-32" d="M325.82,274.19c2.36-1.36,4.05.31,3.33,3.31l-4.35,18.16a7.7,7.7,0,0,1-3.3,4.68l-26,15a7.64,7.64,0,0,0-3.47,6,7.67,7.67,0,0,1-3.47,6l-54.34,31.38c-5.51,19.93-19.58,40-36.06,49.51-21.34,12.32-38.74,2.38-38.81-22.12s17.22-54.47,38.56-66.79c16.48-9.51,30.62-5.74,36.22,7.78ZM198.07,390.75c12.91-7.46,23.38-25.61,23.34-40.45s-10.58-20.85-23.49-13.4-23.4,25.61-23.35,40.45,10.58,20.86,23.5,13.4"/><g class="cls-1"><path class="cls-33" d="M259.93,327.62c-1.68,1-3.07.19-3.07-1.75a6.71,6.71,0,0,1,3.05-5.28c1.69-1,3.07-.2,3.08,1.74a6.75,6.75,0,0,1-3.06,5.29m9.21-5.32c-1.69,1-3.06.2-3.07-1.75a6.71,6.71,0,0,1,3.05-5.28c1.68-1,3.06-.2,3.07,1.75a6.75,6.75,0,0,1-3.05,5.28m9.2-5.31c-1.69,1-3.06.19-3.07-1.75a6.7,6.7,0,0,1,3.05-5.28c1.69-1,3.06-.2,3.07,1.75a6.74,6.74,0,0,1-3.05,5.28m9.2-5.31c-1.69,1-3.06.19-3.07-1.75a6.68,6.68,0,0,1,3-5.28c1.69-1,3.06-.2,3.07,1.75a6.74,6.74,0,0,1-3,5.28m9.2-5.32c-1.69,1-3.06.2-3.07-1.74a6.68,6.68,0,0,1,3.05-5.28c1.69-1,3.06-.2,3.07,1.74a6.71,6.71,0,0,1-3.05,5.28m9.2-5.31c-1.68,1-3.06.2-3.07-1.75a6.73,6.73,0,0,1,3.05-5.28c1.69-1,3.06-.19,3.07,1.75a6.71,6.71,0,0,1-3.05,5.28m10.84-17L249,323.18a4.86,4.86,0,0,0-2.21,3.8l0,9.32c0,1.41,1,2,2.22,1.27l67.74-39.11a4.86,4.86,0,0,0,2.19-3.81l0-9.32c0-1.39-1-2-2.2-1.26"/><path class="cls-34" d="M259.91,320.59a6.71,6.71,0,0,0-3.05,5.28c0,1.94,1.39,2.72,3.07,1.75a6.75,6.75,0,0,0,3.06-5.29c0-1.94-1.39-2.72-3.08-1.74"/><path class="cls-35" d="M269.12,315.27a6.71,6.71,0,0,0-3.05,5.28c0,1.95,1.38,2.73,3.07,1.75a6.75,6.75,0,0,0,3.05-5.28c0-1.95-1.39-2.72-3.07-1.75"/><path class="cls-36" d="M278.32,310a6.7,6.7,0,0,0-3.05,5.28c0,1.94,1.38,2.72,3.07,1.75a6.74,6.74,0,0,0,3.05-5.28c0-1.95-1.38-2.73-3.07-1.75"/><path class="cls-37" d="M287.52,304.65a6.68,6.68,0,0,0-3,5.28c0,1.94,1.38,2.72,3.07,1.75a6.74,6.74,0,0,0,3-5.28c0-1.95-1.38-2.73-3.07-1.75"/><path class="cls-38" d="M296.72,299.34a6.68,6.68,0,0,0-3.05,5.28c0,1.94,1.38,2.72,3.07,1.74a6.71,6.71,0,0,0,3.05-5.28c0-1.94-1.38-2.72-3.07-1.74"/><path class="cls-39" d="M305.92,294a6.73,6.73,0,0,0-3.05,5.28c0,1.95,1.39,2.72,3.07,1.75a6.71,6.71,0,0,0,3.05-5.28c0-1.94-1.38-2.72-3.07-1.75"/></g></g></g></g></svg>