<svg xmlns="http://www.w3.org/2000/svg" version="1.1" xmlns:xlink="http://www.w3.org/1999/xlink" xmlns:svgjs="http://svgjs.com/svgjs" width="512" height="512" x="0" y="0" viewBox="0 0 682.66669 682.66669" style="enable-background:new 0 0 512 512" xml:space="preserve" class=""><g><defs id="defs4705"><clipPath clipPathUnits="userSpaceOnUse" id="clipPath4715"><path d="M 0,512 H 512 V 0 H 0 Z" id="path4713" fill="#ffffff" data-original="#ffffff"></path></clipPath></defs><g id="g4707" transform="matrix(1.3333333,0,0,-1.3333333,0,682.66667)"><g id="g4709"><g id="g4711" clip-path="url(#clipPath4715)"><g id="g4717" transform="translate(101.4731,366.6866)"><path d="m 0,0 v -109.474 c 0,-92.868 64.509,-172.277 154.527,-191.823 90.018,19.546 154.527,98.955 154.527,191.823 V 0 C 252.677,7.991 199.728,30.278 154.527,65.062 109.326,30.278 56.377,7.991 0,0 Z" style="stroke:#FFFFFF;stroke-width:20;stroke-linecap:round;stroke-linejoin:round;stroke-miterlimit:10;stroke-dasharray:none;stroke-opacity:1" id="path4719" fill="none" stroke="#FFFFFF" stroke-width="20" stroke-linecap="round" stroke-linejoin="round" stroke-miterlimit="10" stroke-dasharray="none" stroke-opacity="" data-original="#FFFFFF" class=""></path></g><g id="g4721" transform="translate(212.1539,160.6128)"><path d="m 0,0 c -36.07,16.608 -61.11,53.073 -61.11,95.387 0,57.966 46.99,104.957 104.956,104.957 57.966,0 104.957,-46.991 104.957,-104.957 0,-42.224 -24.935,-78.625 -60.883,-95.282" style="stroke:#FFFFFF;stroke-width:20;stroke-linecap:round;stroke-linejoin:round;stroke-miterlimit:10;stroke-dasharray:none;stroke-opacity:1" id="path4723" fill="none" stroke="#FFFFFF" stroke-width="20" stroke-linecap="round" stroke-linejoin="round" stroke-miterlimit="10" stroke-dasharray="none" stroke-opacity="" data-original="#FFFFFF" class=""></path></g><g id="g4725" transform="translate(285,276.4948)"><path d="m 0,0 v 15.462 c 0,15.99 -13.009,29 -29,29 -15.991,0 -29,-13.01 -29,-29 V 0" style="stroke:#FFFFFF;stroke-width:20;stroke-linecap:round;stroke-linejoin:round;stroke-miterlimit:10;stroke-dasharray:none;stroke-opacity:1" id="path4727" fill="none" stroke="#FFFFFF" stroke-width="20" stroke-linecap="round" stroke-linejoin="round" stroke-miterlimit="10" stroke-dasharray="none" stroke-opacity="" data-original="#FFFFFF" class=""></path></g><g id="g4729" transform="translate(294.8921,276.4948)"><path d="m 0,0 h -77.784 c -5.583,0 -10.108,-4.525 -10.108,-10.108 v -26.343 c 0,-27.062 21.938,-49 49,-49 v 0 c 27.062,0 49,21.938 49,49 v 26.343 C 10.108,-4.525 5.582,0 0,0 Z" style="stroke:#FFFFFF;stroke-width:20;stroke-linecap:round;stroke-linejoin:round;stroke-miterlimit:10;stroke-dasharray:none;stroke-opacity:1" id="path4731" fill="none" stroke="#FFFFFF" stroke-width="20" stroke-linecap="round" stroke-linejoin="round" stroke-miterlimit="10" stroke-dasharray="none" stroke-opacity="" data-original="#FFFFFF" class=""></path></g><g id="g4733" transform="translate(256,240.439)"><path d="M 0,0 V -9.286" style="stroke:#FFFFFF;stroke-width:20;stroke-linecap:round;stroke-linejoin:round;stroke-miterlimit:10;stroke-dasharray:none;stroke-opacity:1" id="path4735" fill="none" stroke="#FFFFFF" stroke-width="20" stroke-linecap="round" stroke-linejoin="round" stroke-miterlimit="10" stroke-dasharray="none" stroke-opacity="" data-original="#FFFFFF" class=""></path></g><g id="g4737" transform="translate(346.6211,111.4029)"><path d="M 0,0 H 133.379 V -57.403" style="stroke:#FFFFFF;stroke-width:20;stroke-linecap:round;stroke-linejoin:round;stroke-miterlimit:10;stroke-dasharray:none;stroke-opacity:1" id="path4739" fill="none" stroke="#FFFFFF" stroke-width="20" stroke-linecap="round" stroke-linejoin="round" stroke-miterlimit="10" stroke-dasharray="none" stroke-opacity="" data-original="#FFFFFF" class=""></path></g><g id="g4741" transform="translate(480,10)"><path d="M 0,0 C 12.15,0 22,9.85 22,22 22,34.15 12.15,44 0,44 -12.15,44 -22,34.15 -22,22 -22,9.85 -12.15,0 0,0 Z" style="stroke:#FFFFFF;stroke-width:20;stroke-linecap:round;stroke-linejoin:round;stroke-miterlimit:10;stroke-dasharray:none;stroke-opacity:1" id="path4743" fill="none" stroke="#FFFFFF" stroke-width="20" stroke-linecap="round" stroke-linejoin="round" stroke-miterlimit="10" stroke-dasharray="none" stroke-opacity="" data-original="#FFFFFF" class=""></path></g><g id="g4745" transform="translate(480,458)"><path d="m 0,0 v -37.5 h -90 l -24.026,-44.328" style="stroke:#FFFFFF;stroke-width:20;stroke-linecap:round;stroke-linejoin:round;stroke-miterlimit:10;stroke-dasharray:none;stroke-opacity:1" id="path4747" fill="none" stroke="#FFFFFF" stroke-width="20" stroke-linecap="round" stroke-linejoin="round" stroke-miterlimit="10" stroke-dasharray="none" stroke-opacity="" data-original="#FFFFFF" class=""></path></g><g id="g4749" transform="translate(480,502)"><path d="m 0,0 c 12.15,0 22,-9.85 22,-22 0,-12.15 -9.85,-22 -22,-22 -12.15,0 -22,9.85 -22,22 0,12.15 9.85,22 22,22 z" style="stroke:#FFFFFF;stroke-width:20;stroke-linecap:round;stroke-linejoin:round;stroke-miterlimit:10;stroke-dasharray:none;stroke-opacity:1" id="path4751" fill="none" stroke="#FFFFFF" stroke-width="20" stroke-linecap="round" stroke-linejoin="round" stroke-miterlimit="10" stroke-dasharray="none" stroke-opacity="" data-original="#FFFFFF" class=""></path></g><g id="g4753" transform="translate(480,344)"><path d="m 0,0 c 12.15,0 22,-9.85 22,-22 0,-12.15 -9.85,-22 -22,-22 -12.15,0 -22,9.85 -22,22 0,12.15 9.85,22 22,22 z" style="stroke:#FFFFFF;stroke-width:20;stroke-linecap:round;stroke-linejoin:round;stroke-miterlimit:10;stroke-dasharray:none;stroke-opacity:1" id="path4755" fill="none" stroke="#FFFFFF" stroke-width="20" stroke-linecap="round" stroke-linejoin="round" stroke-miterlimit="10" stroke-dasharray="none" stroke-opacity="" data-original="#FFFFFF" class=""></path></g><g id="g4757" transform="translate(458,322)"><path d="M 0,0 H -47.473" style="stroke:#FFFFFF;stroke-width:20;stroke-linecap:round;stroke-linejoin:round;stroke-miterlimit:10;stroke-dasharray:none;stroke-opacity:1" id="path4759" fill="none" stroke="#FFFFFF" stroke-width="20" stroke-linecap="round" stroke-linejoin="round" stroke-miterlimit="10" stroke-dasharray="none" stroke-opacity="" data-original="#FFFFFF" class=""></path></g><g id="g4761" transform="translate(480,168)"><path d="M 0,0 C 12.15,0 22,9.85 22,22 22,34.15 12.15,44 0,44 -12.15,44 -22,34.15 -22,22 -22,9.85 -12.15,0 0,0 Z" style="stroke:#FFFFFF;stroke-width:20;stroke-linecap:round;stroke-linejoin:round;stroke-miterlimit:10;stroke-dasharray:none;stroke-opacity:1" id="path4763" fill="none" stroke="#FFFFFF" stroke-width="20" stroke-linecap="round" stroke-linejoin="round" stroke-miterlimit="10" stroke-dasharray="none" stroke-opacity="" data-original="#FFFFFF" class=""></path></g><g id="g4765" transform="translate(458,190)"><path d="M 0,0 H -58" style="stroke:#FFFFFF;stroke-width:20;stroke-linecap:round;stroke-linejoin:round;stroke-miterlimit:10;stroke-dasharray:none;stroke-opacity:1" id="path4767" fill="none" stroke="#FFFFFF" stroke-width="20" stroke-linecap="round" stroke-linejoin="round" stroke-miterlimit="10" stroke-dasharray="none" stroke-opacity="" data-original="#FFFFFF" class=""></path></g><g id="g4769" transform="translate(166.191,111.4029)"><path d="M 0,0 H -134.191 V -57.403" style="stroke:#FFFFFF;stroke-width:20;stroke-linecap:round;stroke-linejoin:round;stroke-miterlimit:10;stroke-dasharray:none;stroke-opacity:1" id="path4771" fill="none" stroke="#FFFFFF" stroke-width="20" stroke-linecap="round" stroke-linejoin="round" stroke-miterlimit="10" stroke-dasharray="none" stroke-opacity="" data-original="#FFFFFF" class=""></path></g><g id="g4773" transform="translate(32,10)"><path d="m 0,0 c -12.15,0 -22,9.85 -22,22 0,12.15 9.85,22 22,22 C 12.15,44 22,34.15 22,22 22,9.85 12.15,0 0,0 Z" style="stroke:#FFFFFF;stroke-width:20;stroke-linecap:round;stroke-linejoin:round;stroke-miterlimit:10;stroke-dasharray:none;stroke-opacity:1" id="path4775" fill="none" stroke="#FFFFFF" stroke-width="20" stroke-linecap="round" stroke-linejoin="round" stroke-miterlimit="10" stroke-dasharray="none" stroke-opacity="" data-original="#FFFFFF" class=""></path></g><g id="g4777" transform="translate(32,458)"><path d="m 0,0 v -37.5 h 90 l 24.026,-44.328" style="stroke:#FFFFFF;stroke-width:20;stroke-linecap:round;stroke-linejoin:round;stroke-miterlimit:10;stroke-dasharray:none;stroke-opacity:1" id="path4779" fill="none" stroke="#FFFFFF" stroke-width="20" stroke-linecap="round" stroke-linejoin="round" stroke-miterlimit="10" stroke-dasharray="none" stroke-opacity="" data-original="#FFFFFF" class=""></path></g><g id="g4781" transform="translate(32,502)"><path d="m 0,0 c -12.15,0 -22,-9.85 -22,-22 0,-12.15 9.85,-22 22,-22 12.15,0 22,9.85 22,22 C 22,-9.85 12.15,0 0,0 Z" style="stroke:#FFFFFF;stroke-width:20;stroke-linecap:round;stroke-linejoin:round;stroke-miterlimit:10;stroke-dasharray:none;stroke-opacity:1" id="path4783" fill="none" stroke="#FFFFFF" stroke-width="20" stroke-linecap="round" stroke-linejoin="round" stroke-miterlimit="10" stroke-dasharray="none" stroke-opacity="" data-original="#FFFFFF" class=""></path></g><g id="g4785" transform="translate(32,344)"><path d="m 0,0 c -12.15,0 -22,-9.85 -22,-22 0,-12.15 9.85,-22 22,-22 12.15,0 22,9.85 22,22 C 22,-9.85 12.15,0 0,0 Z" style="stroke:#FFFFFF;stroke-width:20;stroke-linecap:round;stroke-linejoin:round;stroke-miterlimit:10;stroke-dasharray:none;stroke-opacity:1" id="path4787" fill="none" stroke="#FFFFFF" stroke-width="20" stroke-linecap="round" stroke-linejoin="round" stroke-miterlimit="10" stroke-dasharray="none" stroke-opacity="" data-original="#FFFFFF" class=""></path></g><g id="g4789" transform="translate(54,322)"><path d="M 0,0 H 47.473" style="stroke:#FFFFFF;stroke-width:20;stroke-linecap:round;stroke-linejoin:round;stroke-miterlimit:10;stroke-dasharray:none;stroke-opacity:1" id="path4791" fill="none" stroke="#FFFFFF" stroke-width="20" stroke-linecap="round" stroke-linejoin="round" stroke-miterlimit="10" stroke-dasharray="none" stroke-opacity="" data-original="#FFFFFF" class=""></path></g><g id="g4793" transform="translate(32,168)"><path d="m 0,0 c -12.15,0 -22,9.85 -22,22 0,12.15 9.85,22 22,22 C 12.15,44 22,34.15 22,22 22,9.85 12.15,0 0,0 Z" style="stroke:#FFFFFF;stroke-width:20;stroke-linecap:round;stroke-linejoin:round;stroke-miterlimit:10;stroke-dasharray:none;stroke-opacity:1" id="path4795" fill="none" stroke="#FFFFFF" stroke-width="20" stroke-linecap="round" stroke-linejoin="round" stroke-miterlimit="10" stroke-dasharray="none" stroke-opacity="" data-original="#FFFFFF" class=""></path></g><g id="g4797" transform="translate(54,190)"><path d="M 0,0 H 59.253" style="stroke:#FFFFFF;stroke-width:20;stroke-linecap:round;stroke-linejoin:round;stroke-miterlimit:10;stroke-dasharray:none;stroke-opacity:1" id="path4799" fill="none" stroke="#FFFFFF" stroke-width="20" stroke-linecap="round" stroke-linejoin="round" stroke-miterlimit="10" stroke-dasharray="none" stroke-opacity="" data-original="#FFFFFF" class=""></path></g><g id="g4801" transform="translate(256,151.0435)"><path d="M 0,0 V 0.039" style="stroke:#FFFFFF;stroke-width:20;stroke-linecap:round;stroke-linejoin:round;stroke-miterlimit:10;stroke-dasharray:none;stroke-opacity:1" id="path4803" fill="none" stroke="#FFFFFF" stroke-width="20" stroke-linecap="round" stroke-linejoin="round" stroke-miterlimit="10" stroke-dasharray="none" stroke-opacity="" data-original="#FFFFFF" class=""></path></g></g></g></g></g></svg>