<svg xmlns="http://www.w3.org/2000/svg" viewBox="0 0 23.01 25.72"><defs><style>.cls-1{fill:#ea4335;}.cls-2{fill:#fbbc04;}.cls-3{fill:#4285f4;}.cls-4{fill:#34a853;}</style></defs><g id="Слой_2" data-name="Слой 2"><g id="Режим_изоляции" data-name="Режим изоляции"><path class="cls-1" d="M10.74,12.28.1,23.58h0a2.88,2.88,0,0,0,2.78,2.13,2.81,2.81,0,0,0,1.46-.4l0,0,12-6.91Z"/><path class="cls-2" d="M21.52,10.36h0l-5.18-3L10.5,12.54l5.85,5.85,5.15-3a2.88,2.88,0,0,0,0-5.06Z"/><path class="cls-3" d="M.1,2.14a2.55,2.55,0,0,0-.1.74v20a2.55,2.55,0,0,0,.1.74l11-11Z"/><path class="cls-4" d="M10.82,12.86l5.51-5.51L4.36.41A2.88,2.88,0,0,0,.1,2.13h0Z"/></g></g></svg>