<svg xmlns="http://www.w3.org/2000/svg" viewBox="0 0 83.07 102.07"><defs><style>.cls-1{fill:#323232;}</style></defs><g id="Слой_2" data-name="Слой 2"><g id="Слой_1-2" data-name="Слой 1"><path class="cls-1" d="M69.38,54.28c-.11-12.89,10.56-19.17,11.05-19.46A23.75,23.75,0,0,0,61.72,24.71c-7.87-.83-15.51,4.71-19.52,4.71s-10.27-4.63-16.92-4.5a24.9,24.9,0,0,0-21,12.79C-4.76,53.41,2,76.47,10.69,89.16c4.35,6.22,9.43,13.15,16.07,12.91s8.94-4.14,16.78-4.14,10.06,4.14,16.84,4c7-.11,11.38-6.24,15.57-12.51a51.4,51.4,0,0,0,7.12-14.5c-.16-.05-13.55-5.16-13.69-20.62ZM56.57,16.36C60.07,12,62.47,6,61.8,0c-5.06.22-11.39,3.5-15,7.78-3.22,3.77-6.11,9.94-5.36,15.75C47.09,24,52.92,20.67,56.57,16.36Z"/></g></g></svg>