<svg xmlns="http://www.w3.org/2000/svg" viewBox="0 0 828.35 652.9"><defs><style>.cls-1{isolation:isolate;}.cls-2{fill:#e8f2ff;}.cls-3{fill:#f07;}.cls-14,.cls-4{fill:#c7deeb;}.cls-5{fill:#ffde01;}.cls-6,.cls-7,.cls-8{fill:#eca600;}.cls-6{opacity:0.3;}.cls-14,.cls-6,.cls-8{mix-blend-mode:multiply;}.cls-8{opacity:0.2;}.cls-9{fill:#fff;}.cls-10{fill:#b5dcea;}.cls-11{fill:#a1d5e2;}.cls-12{fill:#e9f8ff;}.cls-13{fill:#bbdbea;}.cls-14{opacity:0.5;}.cls-15{fill:#e6f6ff;}</style></defs><g class="cls-1"><g id="Слой_2" data-name="Слой 2"><g id="Режим_изоляции" data-name="Режим изоляции"><polygon class="cls-2" points="542.55 639.46 236.94 463.02 236.95 0 542.56 176.44 542.55 639.46"/><polygon class="cls-3" points="520.28 217.31 396.2 145.67 396.2 127.34 520.28 198.97 520.28 217.31"/><polygon class="cls-4" points="451.79 252.1 327.71 180.47 327.71 162.14 451.79 233.77 451.79 252.1"/><polygon class="cls-4" points="520.28 336.45 263.03 187.94 263.03 174.7 520.28 323.21 520.28 336.45"/><polygon class="cls-4" points="520.28 368.02 263.03 219.5 263.03 206.26 520.28 354.78 520.28 368.02"/><polygon class="cls-4" points="520.28 399.59 263.03 251.07 263.03 237.83 520.28 386.35 520.28 399.59"/><polygon class="cls-4" points="520.28 431.16 263.03 282.64 263.03 269.4 520.28 417.92 520.28 431.16"/><polygon class="cls-4" points="520.28 462.73 263.03 314.21 263.03 300.97 520.28 449.49 520.28 462.73"/><polygon class="cls-4" points="520.28 494.3 263.03 345.78 263.03 332.54 520.28 481.06 520.28 494.3"/><polygon class="cls-5" points="477.13 648.89 470.08 652.9 93.12 435.27 93.13 178.62 100.18 174.61 477.13 392.24 477.13 648.89"/><polygon class="cls-5" points="470.08 652.9 93.12 435.27 93.13 178.62 470.08 396.25 470.08 652.9"/><polygon class="cls-6" points="470.08 652.9 93.12 435.27 93.13 178.62 470.08 396.25 470.08 652.9"/><polygon class="cls-7" points="93.12 435.27 281.6 392.22 470.08 652.9 93.12 435.27"/><polygon class="cls-5" points="93.12 435.27 281.6 402.43 470.08 652.9 93.12 435.27"/><polygon class="cls-6" points="93.12 435.27 281.6 402.43 470.08 652.9 93.12 435.27"/><polygon class="cls-7" points="93.13 178.62 281.6 450.68 470.08 396.25 93.13 178.62"/><polygon class="cls-5" points="93.13 178.62 281.6 439.31 470.08 396.25 93.13 178.62"/><polygon class="cls-8" points="93.13 178.62 281.6 439.31 470.08 396.25 93.13 178.62"/><path class="cls-9" d="M152.33,385.88a132.51,132.51,0,0,0-23-38.8,129.2,129.2,0,0,0-34-28.6q-22.61-13.05-40-11.67a35.17,35.17,0,0,0-15.1,4.51l-19,11a35.31,35.31,0,0,1,15.11-4.52q17.37-1.35,40,11.68a129.16,129.16,0,0,1,34,28.59,132.64,132.64,0,0,1,23,38.8,118.28,118.28,0,0,1,8,42.79c0,9.56-1.4,17.51-4.06,23.92-2.19,5.18-5.08,8.84-8.69,10.94l19-11q5.41-3.15,8.68-10.93,4-9.61,4.07-23.92A118.24,118.24,0,0,0,152.33,385.88Z"/><polygon class="cls-4" points="110.65 484 129.62 472.98 129.57 492.1 110.6 503.12 110.65 484"/><path class="cls-10" d="M35.25,342.25l19-11a25.54,25.54,0,0,0-9,9.28q-6.91,11.58-7,32Q38.11,399.91,50.83,422t37,36A127.92,127.92,0,0,0,108,467.3,112.55,112.55,0,0,0,129.62,473l-19,11A111.83,111.83,0,0,1,89,478.32,127.42,127.42,0,0,1,68.83,469q-24.24-14-37-36.05T19.21,383.51q.06-20.42,7-32A25.52,25.52,0,0,1,35.25,342.25Z"/><path class="cls-11" d="M59.53,382.77l19-11c-.25.15-.49.3-.73.47-4,2.85-6,8.77-6.07,17.72q-.06,21,14.82,29.58,6.62,3.83,10.57,1.52l-19,11q-3.95,2.29-10.57-1.52Q52.66,421.93,52.73,401c0-8.95,2-14.87,6.07-17.71C59,383.08,59.29,382.92,59.53,382.77Z"/><path class="cls-11" d="M43.66,362.21l19-11,.67-.37q11.64-6.13,30.34,4.65A161.3,161.3,0,0,1,110,366.58,166.11,166.11,0,0,1,124.78,379l-19,11A167.82,167.82,0,0,0,91.06,377.6a160.19,160.19,0,0,0-16.39-11.11Q56,355.71,44.34,361.84C44.11,362,43.88,362.08,43.66,362.21Z"/><path class="cls-11" d="M129.19,444.15c-4.39-2.53-6.57-8.42-6.55-17.62l2.14-47.5-19,11-2.13,47.5q0,13.81,6.54,17.62c2,1.15,3.77,1.28,5.33.37l19-11Q132.18,445.87,129.19,444.15Z"/><path class="cls-10" d="M152.33,385.88a132.51,132.51,0,0,0-23-38.8,129.2,129.2,0,0,0-34-28.6q-22.61-13.05-40-11.67a35.17,35.17,0,0,0-15.1,4.51l-19,11a35.31,35.31,0,0,1,15.11-4.52q17.37-1.35,40,11.68a129.16,129.16,0,0,1,34,28.59,132.64,132.64,0,0,1,23,38.8,118.28,118.28,0,0,1,8,42.79c0,9.56-1.4,17.51-4.06,23.92-2.19,5.18-5.08,8.84-8.69,10.94l19-11q5.41-3.15,8.68-10.93,4-9.61,4.07-23.92A118.24,118.24,0,0,0,152.33,385.88Z"/><path class="cls-12" d="M110.32,358.1a129.16,129.16,0,0,0-34-28.59q-22.61-13-40-11.68t-26.83,16Q.07,348.43,0,373a125.14,125.14,0,0,0,18.23,65.92q18.35,30.49,51.24,49.5,22.57,13,41.13,14.69l.05-19.12A111.83,111.83,0,0,1,89,478.32,127.42,127.42,0,0,1,68.83,469q-24.24-14-37-36.05T19.21,383.51q.06-20.42,7-32t19.84-12.41q12.92-.8,30.41,9.28a89.53,89.53,0,0,1,24,20.34,94.4,94.4,0,0,1,16.26,28.16,90,90,0,0,1,5.72,31.64q0,15-3.35,22.43t-8.86,4.2q-6.59-3.8-6.54-17.62l2.13-47.5A167.82,167.82,0,0,0,91.06,377.6a160.19,160.19,0,0,0-16.39-11.11Q56,355.71,44.34,361.84T32.64,389a68.09,68.09,0,0,0,8.75,34.08A63.74,63.74,0,0,0,65.5,447.59q14.48,8.36,23.84.91l1.39.81A42.23,42.23,0,0,0,97.8,462.7a38.82,38.82,0,0,0,11.34,10.08q9.6,5.55,16.89,3c4.86-1.7,8.62-5.76,11.31-12.14s4-14.36,4.06-23.92a118.28,118.28,0,0,0-8-42.79A132.64,132.64,0,0,0,110.32,358.1Zm-25.9,55.28q-.9,13.72-5,17.69c-2.72,2.63-6.68,2.47-11.87-.53Q52.66,421.93,52.73,401c0-8.95,2-14.87,6.07-17.71s9.65-2.21,16.85,1.95a72.3,72.3,0,0,1,10,6.86Z"/><polygon class="cls-4" points="577.59 287.14 749.75 425.12 760 380.62 577.59 287.14"/><polygon class="cls-13" points="577.59 287.14 707.17 391 726.91 363.9 727.02 363.72 577.59 287.14"/><polygon class="cls-4" points="577.59 287.14 749.75 425.12 739.49 392.46 577.59 287.14"/><polygon class="cls-14" points="577.59 287.14 749.75 425.12 739.49 392.46 577.59 287.14"/><polygon class="cls-15" points="671.14 431.92 739.49 392.46 577.59 287.14 671.14 431.92"/><polygon class="cls-2" points="577.59 287.14 671.14 431.92 709.7 373.08 577.59 287.14"/><polygon class="cls-15" points="828.35 341.16 760 380.62 577.59 287.14 828.35 341.16"/><polygon class="cls-2" points="577.59 287.14 828.35 341.16 726.43 363.42 577.59 287.14"/></g></g></g></svg>