<svg xmlns="http://www.w3.org/2000/svg" viewBox="0 0 312.22 291.61"><defs><style>.cls-1{isolation:isolate;}.cls-2{fill:#e8f2ff;}.cls-12,.cls-13,.cls-3,.cls-4{fill:#438be3;}.cls-17,.cls-3,.cls-9{opacity:0.3;}.cls-13,.cls-17,.cls-3,.cls-4,.cls-9{mix-blend-mode:multiply;}.cls-4{opacity:0.2;}.cls-5{fill:#d9a782;}.cls-6{fill:#e6f6ff;}.cls-7{fill:#044ca4;}.cls-8,.cls-9{fill:#367ed6;}.cls-10{fill:#b61678;}.cls-11{fill:#fff;}.cls-13{opacity:0.4;}.cls-14{fill:#69a2e9;}.cls-15{fill:#ffcda8;}.cls-16,.cls-17{fill:#412999;}.cls-18{fill:#1d65bd;}.cls-19{fill:#cc3241;}.cls-20{fill:#e54b5a;}.cls-21{fill:#c7deeb;}</style></defs><g class="cls-1"><g id="Слой_2" data-name="Слой 2"><g id="Layer_1" data-name="Layer 1"><polygon class="cls-2" points="76.95 158.29 0 172.71 0 205.63 24.97 250.06 101.92 262.65 101.92 202.72 76.95 158.29"/><polygon class="cls-3" points="101.92 202.72 24.97 217.14 24.97 250.06 101.92 235.65 101.92 202.72"/><polygon class="cls-4" points="0 172.71 0 205.63 24.97 250.06 24.97 217.14 0 172.71"/><polygon class="cls-2" points="104.87 192.85 79.71 237.24 79.71 277.09 156.6 291.61 181.76 247.22 181.76 207.38 104.87 192.85"/><polygon class="cls-3" points="181.76 207.38 156.6 251.77 156.6 291.61 181.76 247.22 181.76 207.38"/><polygon class="cls-4" points="79.71 237.24 79.71 277.09 156.6 291.61 156.6 251.77 79.71 237.24"/><polygon class="cls-2" points="281.31 174.06 206.55 191.9 206.55 241.67 237.45 284.84 312.22 267 312.22 217.23 281.31 174.06"/><polygon class="cls-4" points="312.22 217.23 237.45 235.07 237.45 284.84 312.22 267 312.22 217.23"/><polygon class="cls-3" points="206.55 191.9 206.55 241.67 237.45 284.84 237.45 235.07 206.55 191.9"/><path class="cls-5" d="M284.34,35.13a19.24,19.24,0,0,1-3.72,4.17,21.62,21.62,0,0,1-10.2,4.33A10.78,10.78,0,0,1,271,49c-.55,2.82,4.16,3.75,9.26.83s6.07-6.68,6.07-6.68S283.9,38.82,284.34,35.13Z"/><path class="cls-5" d="M284.34,35.13a19.24,19.24,0,0,1-3.72,4.17,21.62,21.62,0,0,1-10.2,4.33c.05.13.11.3.17.48a20.76,20.76,0,0,0,7.61-1.69c3.08-1.4,5.69,1.5,6.9,3.21a8.5,8.5,0,0,0,1.27-2.46S283.9,38.82,284.34,35.13Z"/><path class="cls-6" d="M254.56,99.59a31.08,31.08,0,0,0,16.1,6.18c9.76.83,13-20.74,13-20.74l.56-26.68-3-8.16-9.72-1.13-7.64-2S254.56,82.58,254.56,99.59Z"/><path class="cls-7" d="M265.45,195.79c-2.62,1.52-4.4,4.28-9.66,6.94-3,1.54-10.44,2.78-10.15-.61a2.91,2.91,0,0,1,.11-.56,4.27,4.27,0,0,0-.45,1.46c-.29,3.38,7.1,2.15,10.15.61,5.26-2.66,7-5.42,9.66-6.95.33-.18.72-.39,1.14-.6v.82l5.24-2.46a5.61,5.61,0,0,0,.29-1.88C271.11,193.15,267.31,194.71,265.45,195.79Z"/><path class="cls-7" d="M261.46,189.18c-1.3-.27,0-3.1-5.45,2.54-.42.28-.87.49-1.27.72-7.49,4.4-8.83,6.58-9.1,9.68-.29,3.39,7.1,2.15,10.15.61,5.26-2.66,7-5.42,9.66-6.94,2-1.16,6.25-2.88,6.44-3.35a5.48,5.48,0,0,0,.27-1.24C266.2,185.79,264.06,189.72,261.46,189.18Z"/><path class="cls-7" d="M275.22,204.05a11.3,11.3,0,0,1-.63,1c-1,1.34-8.51,11-4.22,13.22s11.51-1.61,13-4.86,1.26-5.45,3.18-7.39a10,10,0,0,0,2.95-4.59c-1.75-1.83-3.78-.58-7.3-.06C280.21,201.67,278.76,200.58,275.22,204.05Z"/><path class="cls-7" d="M289.52,201.43a9.84,9.84,0,0,1-2.95,4.6c-1.92,1.94-1.66,4.14-3.18,7.39s-8.73,7.1-13,4.86a2.37,2.37,0,0,1-1.29-1.91,2.64,2.64,0,0,0,1.29,2.88c4.29,2.24,11.51-1.61,13-4.86s1.28-5.34,3.05-7.24l0,.62a15.26,15.26,0,0,0,3.32-4.11l-.11-2.35Z"/><path class="cls-8" d="M272.1,116.47l-.27-10.42s-13.05-2.63-18.06-7.39c0,0-2.21,27.72-.4,39.64s2.87,27.92,3.42,33.16,1.43,15.69-1.07,20.62c0,0,9.9,4.33,16.41-.72V163.78Z"/><path class="cls-9" d="M272.1,116.47l-.27-10.42s-13.05-2.63-18.06-7.39c0,0-2.21,27.72-.4,39.64s2.87,27.92,3.42,33.16,1.43,15.69-1.07,20.62c0,0,9.9,4.33,16.41-.72V163.78Z"/><path class="cls-8" d="M265,104.27s.93,14.24,2,18.34c.92,3.36,2.69,7,2.8,7.85,1.08,8.15,1.89,17.32,2.28,20.74.77,6.71,2.39,19.39,2.73,24.3.31,4.59,0,29.51,0,29.51s6.51,2.35,14.92-3.13c0,0,1.38-24.84.53-31.47s-.77-8.3-1.19-12.92c-.4-4.39,2.12-17.94,2-29.2S287,101.62,287,101.62,284.41,107,265,104.27Z"/><path class="cls-10" d="M273.48,53.25l-1.92-4.19-4.43,2.58.94,3.2S262.38,69.7,260.92,83c-1,9.31-1.56,12.6-1.56,12.6l2.53,4.43,3.69-3.52s-.08-27.73,4.72-40.93Z"/><path class="cls-11" d="M284.93,38.73S278.65,48,271.56,49.06l1.7,6.43a29.31,29.31,0,0,0,14-13.9Z"/><path class="cls-11" d="M266.62,52.6l4.94-3.54a41.83,41.83,0,0,1-.77-8.25l-1.92-.46S265.52,46.46,266.62,52.6Z"/><path class="cls-12" d="M261.34,59.31c1.81-6.8,6.94-19.42,6.94-19.42l-4.61,1.25c-7.41,5.48-8,16.18-8,16.18-.91,6.21-.68,11.92-.86,14.94-.37,6.17-1,14.22-1.54,19.76s-2.36,23.87-2.36,23.87a7,7,0,0,0,3.9,5c7.58,3.34,7.72-6.58,7.9-9.27s-.09-29.26-.09-29.26Z"/><path class="cls-13" d="M261.34,59.31c1.81-6.8,6.94-19.42,6.94-19.42l-4.61,1.25c-7.41,5.48-8,16.18-8,16.18-.91,6.21-.68,11.92-.86,14.94-.37,6.17-1,14.22-1.54,19.76s-2.36,23.87-2.36,23.87a7,7,0,0,0,3.9,5c7.58,3.34,7.72-6.58,7.9-9.27s-.09-29.26-.09-29.26Z"/><path class="cls-14" d="M269.62,41.31l-.41-.4-1.66-1.67-6.18,9.68L263,51.29l-3.52,1.31,1.11,21.84,1.76-.24C261.65,58.21,269.62,41.31,269.62,41.31Z"/><path class="cls-15" d="M283.28,15.4c-3.42-2.31-8.84-2.05-12.66.53A11.78,11.78,0,0,0,265.45,23c-.33,1.4-.76,2.61-1.09,3.67s.76,2.41.76,2.41c-1.19,1.5-.26,5.08,0,5.95a1.91,1.91,0,0,0-.2.81.94.94,0,0,0,.67.89,19.37,19.37,0,0,1,.49,3.12c0,.86-.11,3.73,3.26,3.79s8.22-1.94,11.29-4.38A22.46,22.46,0,0,0,287.81,27,11.18,11.18,0,0,0,283.28,15.4Z"/><path class="cls-5" d="M265.11,35.07h0c.47-1.14,1.62-2.9,1.94-4.05.41-1.49-2.56-3-2.56-3h0a4.85,4.85,0,0,0,.63,1.08C263.93,30.62,264.86,34.2,265.11,35.07Z"/><path class="cls-16" d="M283.69,13.82a13.25,13.25,0,0,0-14.72,0,12,12,0,0,0-3.78,4.43c-1.13,2-1.15,6.18,3.63,6.56a35.85,35.85,0,0,0,8.6-.8c2.8,1.81,1.69,4.79,2.07,5.79s.78,2.28,1.42,2.64c.38.22,1.11-.41,1.3-.63.46-.52,3.64-4.21,3.84.34A20.86,20.86,0,0,0,287.81,27a13.64,13.64,0,0,0,.22-2.16h0C288.92,23,288.78,17.38,283.69,13.82Z"/><path class="cls-17" d="M279.49,29.8c.37,1,.78,2.28,1.42,2.64.38.22,1.11-.41,1.3-.63.46-.52,3.64-4.21,3.84.34A20.86,20.86,0,0,0,287.81,27a13.64,13.64,0,0,0,.22-2.16,25.71,25.71,0,0,1-8.68,2.29A25.55,25.55,0,0,0,279.49,29.8Z"/><path class="cls-5" d="M267.48,43.23A16.69,16.69,0,0,0,267,37c-.05-.18-.82,0-1.42-.18h0a19.37,19.37,0,0,1,.49,3.12C266.07,40.55,266,42.38,267.48,43.23Z"/><path class="cls-15" d="M282,36c.41.26,1.36.64,3.22-1.35s1.83-3.87.91-4.49a1.55,1.55,0,0,0-2.29.48A48.06,48.06,0,0,0,282,36Z"/><path class="cls-12" d="M288,43s-12.18,8.51-17.25,29.3c-1.49,6.08-8.09,4.25-8.39,11-.71,16.25-.46,36.13,2,38.3,3.4,3.07,10.39,6.78,22.72,3.47a12.8,12.8,0,0,0,6.66-4s-5.14-22.83-5-28.08,10.61-39.42,10.61-39.42Z"/><polygon class="cls-13" points="272.69 103.52 274 107.81 283.52 106.6 273.44 108.64 272.69 103.52"/><path class="cls-14" d="M286.51,40.08S265.7,70.16,261.19,80.9l19.65-19.05-1.49-4.48,3.58.54,6.58-14Z"/><path class="cls-13" d="M293.73,121s-5.14-22.83-5-28.08c.05-2.7,2.85-13,5.56-22.45l-4.39-.32L269.62,83.2l-7.05-1.37a8.09,8.09,0,0,0-.18,1.39c-.08,1.8-.14,3.65-.2,5.51,2.48,1.3,6.55,3.41,9.5,4.86,4.53,2.22,10.62,4.87,14,17.2a85,85,0,0,1,2.61,13.81A12.35,12.35,0,0,0,293.73,121Z"/><path class="cls-8" d="M254.9,69.33a90.8,90.8,0,0,1,.77-12s.54-9.67,7-15.33a2.59,2.59,0,0,1,1-.85c-3.44.65-9.77,4.41-12.32,9.08s-3.66,8-6.3,11.21-7.07,11.2-6.72,14.2,6.63,2.34,7.6,1.94,5.38-3.4,5.38-3.4S252.91,72,254.9,69.33Z"/><path class="cls-15" d="M259.14,69.11c-1.11-1.4-3.54-4.42-4.3-5.14-1-.95-2.11-.82-4-.58s-5.15,2.32-5.24,3.94a4.49,4.49,0,0,0-.19,2.45C249.26,69.33,256.19,69.17,259.14,69.11Z"/><path class="cls-5" d="M247.78,67.35c-.73-.33-.82-1.3-.75-2.13a3.44,3.44,0,0,0-1.45,2.11,4.49,4.49,0,0,0-.19,2.45c2-.23,4.89-.39,7.58-.49C251.77,67.41,249,67.87,247.78,67.35Z"/><path class="cls-15" d="M268,69.21l-.08,0c1.15,5.09.34,7,.1,7.39a31.5,31.5,0,0,1,4.2,1c.65.19,1.05.33,1.05.33s2.56-3.28,5.31-6.93C275.11,70.21,268,69.21,268,69.21Z"/><path class="cls-11" d="M267.8,68.94l-5.26.8a5.15,5.15,0,0,0-2.05-.66c-.8,0-12.94.16-16.72,1s-6.38,4.26-5.25,8.08,2.44,4.58,6.76,4a71,71,0,0,0,15-3.92,16.55,16.55,0,0,1,2.91-1c2.49-.39,4.68-.54,4.68-.54S269.25,75.08,267.8,68.94Z"/><path class="cls-14" d="M300.68,55c-.64-1.54-3.84-4.28-7.11-2.58-2.35,1.23-7,6.35-8.65,9.49s-11.7,16-11.7,16-.4-.14-1.05-.33a31.5,31.5,0,0,0-4.2-1l-.06.09s-2.19.15-4.68.54a16.55,16.55,0,0,0-2.91,1l-1.47.54c1.23,2,5.18,8.22,8.89,10.51,4.46,2.75,7,4.71,12.94-.5S295.29,71.39,298,68,302.2,58.6,300.68,55Z"/><path class="cls-18" d="M268,76.63l-.06.09s-2.19.15-4.68.54a16.55,16.55,0,0,0-2.91,1l-1.47.54c.35.58.92,1.49,1.64,2.56a44.89,44.89,0,0,1,9-4.44C269,76.8,268.48,76.7,268,76.63Z"/><path class="cls-5" d="M278.47,71c-1,1.15-3.15,3.36-5,3.87a17.72,17.72,0,0,1-5.08.22,4.21,4.21,0,0,1-.43,1.57,31.5,31.5,0,0,1,4.2,1c.65.19,1.05.33,1.05.33s2.56-3.28,5.31-6.93Z"/><path class="cls-12" d="M266.39,68.07s1.44,3.34.18,8.77c0,0-10.7,4-17.46,5.81s-11.38-.65-10.8-8.21,9.77-5.26,12-5.5S266.39,68.07,266.39,68.07Z"/><path class="cls-15" d="M69.27,92s1.82,4.51,2.59,7.16.07,7.57-1.29,10-1.47,3.69-2.61,3.22-.87-1.88-1-2.22,0-1.11-.57-1.58a6.57,6.57,0,0,1-1.72-3.19,17.78,17.78,0,0,0,0-3c-.17-1.24-2.48-5.68-2-7.8a21.72,21.72,0,0,0,0-5.68Z"/><path class="cls-5" d="M70.41,101.48c-.23.1-.57,2.86-.7,4.37s-1.35,2.86-1.92,2.9-1.14-2-.61-4.77.38-3.24-1.63-5.89a5.67,5.67,0,0,1-.72-5.52l.63-2.33-2.9-1.33a21.72,21.72,0,0,1,0,5.68c-.43,2.12,1.88,6.56,2,7.8a17.78,17.78,0,0,1,0,3,6.57,6.57,0,0,0,1.72,3.19c.6.47.44,1.25.57,1.58s-.09,1.52.75,2.08c.89-1.79,2-4,2.71-5.2C71.46,105.32,70.65,101.38,70.41,101.48Z"/><path class="cls-11" d="M70.25,93.81l.44,1.58s-2.56,2.91-5.59,3.48-1.58-4-1.58-4Z"/><path class="cls-7" d="M89.61,200.49c1.89-1.61.45-4.38-2.13-7.35s-10.93-8-13.22-11.26c0,0-5.55,2.09-9.81-1.88,0,0-3.49,2.45-2,9.16a30.45,30.45,0,0,0,3.34,1.52c1.63.6,3.84.95,5.35,2.18,3,2.45,5.62,6.43,9.48,7.76S88.66,201.3,89.61,200.49Z"/><path class="cls-7" d="M90.44,199.06a2.34,2.34,0,0,1-.83,1.43c-1,.81-5.1,1.45-9,.13s-6.47-5.31-9.48-7.76c-1.51-1.23-3.72-1.58-5.35-2.18a30.45,30.45,0,0,1-3.34-1.52v2.15a29.55,29.55,0,0,0,3.34,1.53c1.06.39,2.37.67,3.57,1.16l0-1.3a6.77,6.77,0,0,1,1.82,1c3,2.45,5.62,6.43,9.48,7.76s8,.68,9-.13A2.37,2.37,0,0,0,90.44,199.06Z"/><path class="cls-7" d="M25,202.24c2,.14,5.28-.94,4.67-7.38s-1.42-11.24-1.42-11.24.61-1.76-3.25-2.17-4.54,3.8-5.42,3.53-.68-5.29-.68-5.29A18.73,18.73,0,0,0,17.61,185C17.55,187.28,15.18,201.56,25,202.24Z"/><path class="cls-7" d="M25,202.24c-9.82-.68-7.45-15-7.39-17.26a10,10,0,0,1,.18-1.51A12,12,0,0,0,17.4,186c-.07,2.3-2.44,16.58,7.38,17.26,1.59.11,4.07-.58,4.63-4.27A4.14,4.14,0,0,1,25,202.24Z"/><path class="cls-8" d="M72.76,151.82c-.84-10.82-1.32-21.72-2.69-31.93S61.91,88,61.91,88C59.09,91.7,54,92.9,50.76,93.5,36.8,96.05,28.69,89,28.69,89c-3.13,12.73-3.43,23.24-4.35,32.39a168.45,168.45,0,0,1-4.8,25.22c-1.83,7-2.22,34.22-2.22,34.22s2.49,8.8,6.76,8.95,6.77-7,6.77-7,2-17.16,4.7-29.51,7.08-24.15,8.84-32.31c.72-3.37,1.92-5.6,3-10.43,2.14,7.76,5.16,16.19,5.6,19.12.68,4.57,2.59,20.5,2.89,26.21s6.22,30.79,6.22,30.79c10.42,1.23,16.56-.56,16.56-.56S73.59,162.64,72.76,151.82Z"/><path class="cls-9" d="M72.76,151.82c-.84-10.82-1.32-21.72-2.69-31.93S61.91,88,61.91,88C59.09,91.7,54,92.9,50.76,93.5,36.8,96.05,28.69,89,28.69,89c-3.13,12.73-3.43,23.24-4.35,32.39a168.45,168.45,0,0,1-4.8,25.22c-1.83,7-2.22,34.22-2.22,34.22s2.49,8.8,6.76,8.95,6.77-7,6.77-7,2-17.16,4.7-29.51,7.08-24.15,8.84-32.31c.72-3.37,1.92-5.6,3-10.43,2.14,7.76,5.16,16.19,5.6,19.12.68,4.57,2.59,20.5,2.89,26.21s6.22,30.79,6.22,30.79c10.42,1.23,16.56-.56,16.56-.56S73.59,162.64,72.76,151.82Z"/><path class="cls-6" d="M50.76,93.5c3.22-.59,8.17-1.77,11-5.37l-3-40.79L54.53,35.28s-3.88-4.53-3.88-4.11.52,4.07-4.56,4.81-11.82-2.92-11.82-2.92l-1.42,1.43V91.42a.32.32,0,0,0,0,.07A29.28,29.28,0,0,0,50.76,93.5Z"/><path class="cls-12" d="M46.09,27.47s6.39,4.06,9.28,19.7c3.72,20.23,4.69,50.13,7,55.5,2,4.59,5.86,2.73,5.86,2.73s-5.34-21-5.26-26.94-1.14-31.22-1.56-37.2c-.52-7.56-6.3-12.8-6.3-12.8s-1.33-.23-1.8-.29C51.51,27.91,46.09,27.47,46.09,27.47Z"/><path class="cls-8" d="M65.75,62.24c-.3-4.92-1.49-18.49-4.22-27C60,30.33,57.2,28.86,55.14,28.5c.53.49,5.77,5.58,6.26,12.76.42,6,1.65,31.28,1.56,37.2,0,3.43,1.73,12,3.23,18.5a6.74,6.74,0,0,0,4.5-2.76S66.06,67.17,65.75,62.24Z"/><path class="cls-5" d="M34.29,22.86a18.14,18.14,0,0,0,3.61,4.05,21,21,0,0,0,9.9,4.21c1,0,1.25,2.3,1.66,4.39.54,2.74-6.3,4.48-11.25,1.65s-5.9-6.49-5.9-6.49S34.71,26.45,34.29,22.86Z"/><path class="cls-10" d="M48.76,40.81l1.12-3.07L46.09,36l-2.21,4.23.15.08L47.25,42c.66,4.15,3.13,30.5,2.63,44.68L53.13,90l2.24-4.63S54.86,56,48.76,40.81Z"/><path class="cls-11" d="M51.07,30.26,47.89,31a4.33,4.33,0,0,1-1.8,5l5.35,4.23S51.3,33.83,51.07,30.26Z"/><path class="cls-11" d="M33.33,27.32s6.43,7.6,12.76,8.66l-2.61,7.26L29.89,31.72Z"/><path class="cls-14" d="M58.38,69l.53-29.38-3.69,0,1.53-4.83a30.78,30.78,0,0,0-9.23-10.38L44,25.72s6.82,2.21,10.6,17.9C56.1,49.93,57.34,59.52,58.38,69Z"/><path class="cls-15" d="M35.31,3.71c3.33-2.24,8.59-2,12.3.52a11.36,11.36,0,0,1,5,6.9c.33,1.36.74,2.53,1.07,3.57S52.94,17,52.94,17c1.16,1.46.26,4.94,0,5.78a2.15,2.15,0,0,1,.2.79.92.92,0,0,1-.66.86,18.19,18.19,0,0,0-.48,3c0,.84.12,3.62-3.16,3.68s-8-1.88-11-4.26a21.75,21.75,0,0,1-7-12A10.86,10.86,0,0,1,35.31,3.71Z"/><path class="cls-5" d="M53,22.81h0c-.46-1.1-1.58-2.82-1.89-3.93-.4-1.45,2.49-2.89,2.49-2.89h0a4.34,4.34,0,0,1-.62,1C54.1,18.49,53.2,22,53,22.81Z"/><path class="cls-16" d="M34.92,2.18a12.86,12.86,0,0,1,14.29,0,11.75,11.75,0,0,1,3.67,4.3c1.09,2,1.11,6-3.53,6.37A34.85,34.85,0,0,1,41,12.07c-2.72,1.76-1.64,4.66-2,5.63s-.76,2.21-1.38,2.56c-.37.21-1.08-.4-1.27-.61-.44-.51-3.53-4.09-3.72.33a20.14,20.14,0,0,1-1.71-5,12.65,12.65,0,0,1-.21-2.09h0C29.84,11.11,30,5.63,34.92,2.18Z"/><path class="cls-17" d="M39,17.7c-.37,1-.76,2.21-1.38,2.56-.37.21-1.08-.4-1.27-.61-.44-.51-3.53-4.09-3.72.33a20.14,20.14,0,0,1-1.71-5,12.65,12.65,0,0,1-.21-2.09,24.93,24.93,0,0,0,8.42,2.22C39,16.18,39.19,17.2,39,17.7Z"/><path class="cls-5" d="M50.65,30.74a16.15,16.15,0,0,1,.47-6.1c.05-.18.8,0,1.38-.18h0a18.19,18.19,0,0,0-.48,3C52,28.13,52.09,29.91,50.65,30.74Z"/><path class="cls-15" d="M36.56,23.67c-.4.26-1.32.63-3.13-1.31s-1.77-3.75-.88-4.36a1.51,1.51,0,0,1,2.22.47A46,46,0,0,1,36.56,23.67Z"/><path class="cls-12" d="M41.6,45.16a94.52,94.52,0,0,0-8-14.9,3.16,3.16,0,0,1-.31-2.94l-4.21,3.42.12.36L18.33,38.92l1,17.56s9.43,18.3,9.07,21c-.23,1.7-.82,8-1.22,12.51,0,0-6.54,8.88-7,12.19-.85,6.08,3.36,12.74,3.36,12.74l4.67-9.51,7.27-7.1C43.85,84.86,46.54,54.49,41.6,45.16Z"/><path class="cls-14" d="M29.24,31.1l4.82,14.76L38.6,47.1l-2.39,4.79s4.66,9.7,5.78,28.27h0c2.81-13.55,2.87-28.84-.39-35a94.52,94.52,0,0,0-8-14.9,3.16,3.16,0,0,1-.31-2.94l-4.21,3.42.12.36Z"/><path class="cls-13" d="M32,87.84c-.89-3.59-.28-23.54-2.21-29.21a33.73,33.73,0,0,1-1.61-11.34l-9.2,1.79.44,7.4s9.43,18.3,9.07,21c-.23,1.7-.82,8-1.22,12.51,0,0-6.54,8.88-7,12.19-.85,6.08,3.36,12.74,3.36,12.74l4.67-9.51,7.27-7.1c.51-.82,1-1.7,1.46-2.63C34.79,93,32.42,89.69,32,87.84Z"/><path class="cls-12" d="M31.59,93.94,22,100.71S6.35,75.72,5.41,70.2s9.11-27.32,11.82-30.41,11.48-2.12,10.9,7.5S17.79,70,17.79,70Z"/><polygon class="cls-11" points="31.44 94.05 23.62 99.58 24.3 100.71 31.91 94.67 31.44 94.05"/><path class="cls-15" d="M31.91,94.67l-6.5,5.16c1.13,2.14,2.84,5.57,2.84,5.57l7.27-7.1A11.69,11.69,0,0,0,31.91,94.67Z"/><path class="cls-7" d="M154.06,212.9c.83-2.68,2.17-5.78,1.79-7.53-.46-2.12-3-3.79-3-3.79a26.94,26.94,0,0,1,0,9c-.8,5.55-.53,7.71-4.21,8.65s-4.83-1-4.83-1-3.47,9.79-.93,10.31,7-2.08,8.67-4.51c1-1.52,1.33-3.75,1.55-5.92l.69-.25Z"/><path class="cls-7" d="M112.13,214.35s-2.52,2.68-.6,3.21a4.39,4.39,0,0,0,4.29-.9c.81-.82,4.31-6,5.84-8.15a19.61,19.61,0,0,0,2.37-5.77s4.35,1.34,3.9,4.64-1.57,2.42-2.23,5A35.91,35.91,0,0,0,125,219l-.87,0-.14-6.4s-3.29,1.78-4.43,3.65-2.13,5.6-5.94,6.17-11-.13-11-1.3,2-2.32,3.8-3S112.13,214.35,112.13,214.35Z"/><path class="cls-15" d="M142.67,149c-9.84-.8-14-5.57-15.48-7.81l-.27,1c-2.59,10.41-3,18.76-3.71,21.71s-1.07,8.75-1.62,11S118,195,116.73,199.85s-2.66,8.45-2.78,10.42-.82,3.51-1.93,4.2h0c-.47.54-2.17,2.63-.49,3.09a4.39,4.39,0,0,0,4.29-.9c.81-.82,4.31-6,5.84-8.15a19.61,19.61,0,0,0,2.37-5.77,34.36,34.36,0,0,1,2.78-9c1.95-3.69,5.88-8.36,6.14-12.94s-.26-8.91.27-10.36c.39-1.06,7.48-14.18,11.35-21.32Z"/><path class="cls-15" d="M163.32,145.75c-.08,0-6.81,3.74-18.2,3.37-.19,2.51-.37,5.21-.46,7.54-.28,6.65,1.2,14.21,1.79,17.65a50.29,50.29,0,0,1,.73,11.91c-.15,6.36-.18,14.09-.83,17s-.35,7.19-.57,9.59a17.25,17.25,0,0,1-1.92,5.46s1.16,1.91,4.83,1,3.41-3.1,4.21-8.65a26.94,26.94,0,0,0,0-9c-1.14-2.69,4.19-12.27,5.26-17.24s-.77-9.54-1.47-12.25,2.42-12.93,6.44-25.69C163.19,146.18,163.25,146,163.32,145.75Z"/><path class="cls-7" d="M133.73,118.66l-.24,7.57a90.87,90.87,0,0,0-9.51,32.6A38.14,38.14,0,0,0,137.05,164c8,1.6,23.62-.47,23.62-.47s4.39-24.05,4.79-32.13-7.21-16.27-7.21-16.27A28.14,28.14,0,0,1,141,123C138.38,123.25,135,120.45,133.73,118.66Z"/><path class="cls-8" d="M132.63,99.74s2.28,6.51,2.53,9.92-1.13,7.91-1.07,9.09,2.71,4.81,9.72,6.15,17.42-2.14,17.42-3.58-1-3.08-1.43-4.17-.69-8.22.5-11.44,2.11-5.66,2.11-5.66S135.65,98.12,132.63,99.74Z"/><path class="cls-15" d="M108.41,77.77a9.64,9.64,0,0,1-2.58-3.87,32.21,32.21,0,0,0-3.08-6,8.17,8.17,0,0,0-2.46-2c-.24,0-.84.85-.07,1.92s1.63,2.38,1.56,3c0,0-1.68-1.17-2.51-1.89A24.76,24.76,0,0,0,95,66.09c-1-.42-2-.46-2.38.09s.9,1.18,1.55,1.52a43.85,43.85,0,0,1,3.76,2.64c.06.12-.05.56-.52.36s-1.53-1.3-2.28-1.27-1.36.64-1,1.25a18.47,18.47,0,0,0,1.49,2s-1.74-.37-2-.14-.49,1,.06,1.4,2.4.71,2.63.92a.89.89,0,0,1,.24.59s-1.1-.22-1.91-.31-1.17.34-1.21.68.6.85,2.29,1.41a23.61,23.61,0,0,1,4.39,1.88,16.88,16.88,0,0,0,2.62,1.19A71.06,71.06,0,0,1,109,85.33c.94,1.16,9.44,9.4,10.48,10.45s4.94,3.44,6.52,3.54,3.28-2.12,3.28-2.12l-4.13-8s-8.64-5.81-11.21-7.45S108.69,78,108.41,77.77Z"/><path class="cls-5" d="M103.85,80.07a2.33,2.33,0,0,1,.51-1.91,4.34,4.34,0,0,1-2.27.94,7.2,7.2,0,0,1-3.3-1.47c-.69-.55-1.11-.8-.87-2.37s.71-2.37.43-3.27a5.36,5.36,0,0,0-.64-1.27.43.43,0,0,1-.33,0c-.36-.16-1.07-.84-1.72-1.14a2.25,2.25,0,0,0,.35.78c.32.42,1.82,1.83,1.53,2.32s-1.29.29-1.29.29.92.67.73,1.18-.34.56-.34.56l-.34.14a.87.87,0,0,1,.23.54.64.64,0,0,1,.27.67c-.14.44-1.3.71-2,.82.26.11.55.22.89.33a23.61,23.61,0,0,1,4.39,1.88,16.88,16.88,0,0,0,2.62,1.19s.76.55,1.75,1.3A6.32,6.32,0,0,1,103.85,80.07Z"/><path class="cls-6" d="M139.47,74.77l-1.41-1.92s-1.67.05-3.23,2.39-3.88,7.2-6,9.5l-3.66,4L108.26,77.1s-.72,3.83-2.87,5.17c0,0,5.51,5.29,7.42,7.48s9.25,9.69,12.55,9.87,6.2-4.14,6.2-4.14Z"/><path class="cls-19" d="M141,56.67l-2.81.66s-.59-.91.49-3.47a10.35,10.35,0,0,1,10.85-6.37c6.38.75,10,5.74,9.82,10.2s.86,16.47,5,22l-21.84-.45Z"/><path class="cls-19" d="M163,78.84S158.17,68,158.57,60.68c0,0-1.73,2.9-2.95,3.7s-2.2,11.1-2.08,11.45,1.86,2.15,3.35,3.74l4.94.11Z"/><path class="cls-5" d="M155.41,65.88s-.78,5.37,1.32,7.84c0,0-.25,11.45-6.24,15.51s-9.59,4.14-10.13.23,2.7-17.35,2.7-17.35Z"/><path class="cls-6" d="M156.73,73.72a44,44,0,0,1-7.95,10,37.56,37.56,0,0,1-4.26,4.08s-.27-2.75-.57-5.51a18.6,18.6,0,0,1,1.1-10.07s-5.63,0-7,.58-2.7,6-2.73,8.2a18.28,18.28,0,0,1-2,7c-.84,1.41-5.65,8.08-2.4,11.72s7.64,5.93,13.44,7.62,12.94.26,15.92-1.72c0,0,.8-2.61,2.11-5.66s4.91-16.8,3.28-18.78S156.73,73.72,156.73,73.72Z"/><path class="cls-12" d="M165.69,81.27c-1.64-2-9-7.55-9-7.55s-.13.25-.39.68c-1.2,3.78-5.47,15.46-14.44,23.25,0,0-1.68-14.26,1.1-25.33a22.65,22.65,0,0,0-4.94.53c-1.36.53-2.7,6-2.73,8.2a18.28,18.28,0,0,1-2,7c-.84,1.41-5.65,8.08-2.4,11.72s7.64,5.93,13.44,7.62,12.94.26,15.92-1.72c0,0,.8-2.61,2.11-5.66S167.32,83.25,165.69,81.27Z"/><path class="cls-11" d="M155.85,72.14s-4.29,8.61-7.07,11.63l3.95,4.53,5.21-13.65Z"/><path class="cls-11" d="M144,82.34s-.13-6.09.77-9l-1.86-.3-3.72,12Z"/><path class="cls-15" d="M138.84,55.3a17.7,17.7,0,0,0-1.26,5.61,13.59,13.59,0,0,1,.28,2.81,9,9,0,0,0-.27,3.46c.25,1.1,1.66,4.32,2,6S140.73,76.57,144,76s7.48-3.71,9.85-6.32,4.6-9.26,4.41-13.18-4.12-7.08-7.11-7.79S142.15,48.58,138.84,55.3Z"/><path class="cls-5" d="M141.54,75.9c.1-2.34-1.11-5.4-1.75-5.46s-1.26-.55-1.21-1.06,1.21-3.22,1.17-5.08c0-1.2-1.21-2-2.05-2.48a5.25,5.25,0,0,1,.16,1.9,9,9,0,0,0-.27,3.46c.25,1.1,1.66,4.32,2,6A3.27,3.27,0,0,0,141.54,75.9Z"/><path class="cls-20" d="M151.27,48.38c-3-.71-9.26-.08-12.58,6.64a16.26,16.26,0,0,0-.54,2.31A1,1,0,0,1,139,58c.19,1,.55,1.22,1.9,1.48s5.27.1,6.23,1.61,3.33,5.56,5.06,4.83,2.83-1.36,3-1a3.45,3.45,0,0,0,1,.67c1.27-3,2.49-6.66,2.37-9.19C158.42,52.55,154.26,49.08,151.27,48.38Z"/><path class="cls-19" d="M155.54,63.45a5.54,5.54,0,0,1-5.46-1.62A8.31,8.31,0,0,0,143.85,59a9.42,9.42,0,0,0-3.44.38l.5.11c1.35.25,5.27.1,6.23,1.61s3.33,5.56,5.06,4.83,2.69-1.28,3-1C155.73,64.15,156.26,63.23,155.54,63.45Z"/><path class="cls-15" d="M153.33,66.76c-.27,1-.18,2.42,1.31,1.53s3.14-4.29,2.52-5.12-2.43-.73-3.11.94A9.16,9.16,0,0,0,153.33,66.76Z"/><path class="cls-8" d="M161.62,92.75a10.73,10.73,0,0,0-1.77,4.09c-.15,1.79-1.11,9.56-7.34,11.25,2.17,1,6.62-1.61,7.79-2.38,0,0,.8-2.61,2.11-5.66a54.84,54.84,0,0,0,2.09-7Z"/><path class="cls-15" d="M149.4,118.6a5.69,5.69,0,0,1-2.13-1.6,20.57,20.57,0,0,0-4.8-3.41c-1.07-.56-3.16-1.29-3.73-.82s.14,1.61,1.45,2.06,3.44,2.76,3.35,3.58S149.4,118.6,149.4,118.6Z"/><polygon class="cls-21" points="129.61 96.42 116.31 100.55 133.81 120.6 147.11 116.47 129.61 96.42"/><path class="cls-15" d="M148.34,118.31s-3.58-1.12-4.25-.85a13.4,13.4,0,0,1-4,.65,10.18,10.18,0,0,1-4.8-2c-.9-.93-1.39-1.46-2.1-1.16s-.69.58-.69.58-.91-.4-1,.21a12.39,12.39,0,0,0,2.23,4.81c1.15,1.45,3.65,3.59,5.91,3.65a11.09,11.09,0,0,0,3.83-.54c.11,0,6.09.11,8,.1s9.75.16,9.75.16,10.13-.6,11.26-1,2.07-4.2,2.07-4.2-4.24-2.89-8.25-3-9.95,2-13.25,2.44A17.36,17.36,0,0,1,148.34,118.31Z"/><path class="cls-5" d="M131.59,115.76a12.39,12.39,0,0,0,2.23,4.81c1.15,1.45,3.65,3.59,5.91,3.65a11.09,11.09,0,0,0,3.83-.54c.11,0,6.09.11,8,.1,1.18,0,4.57.06,7,.11a3.78,3.78,0,0,0-.87-.51c-1.55-.58-10.25-.58-12.26-.42s-4.42-.57-4.51-1-1-1-3.3-2.16a26.36,26.36,0,0,1-5.11-4.26S131.64,115.15,131.59,115.76Z"/><path class="cls-6" d="M159.91,93.54c-.5-3.2-.23-8.21,2.61-11s5.81-1.06,7.78,6.75,2.64,19.31,3.52,22.38,2,9.72,0,11-23.17,1.5-23.17,1.5a6.57,6.57,0,0,0-.25-6.28,67,67,0,0,0,7.78-1.2,74.19,74.19,0,0,1,8.16-1.3,112.07,112.07,0,0,1-3.71-10.86C161.91,101.37,160.14,95,159.91,93.54Z"/></g></g></g></svg>