<svg xmlns="http://www.w3.org/2000/svg" xmlns:xlink="http://www.w3.org/1999/xlink" viewBox="0 0 823.03 980"><defs><style>.cls-1{fill:url(#_2);}.cls-2{fill:url(#_2-2);}.cls-3{fill:url(#_2-3);}.cls-4{fill:url(#_2-4);}.cls-5{fill:url(#_2-5);}.cls-6{isolation:isolate;}.cls-7{mask:url(#mask);}.cls-8{fill:#f1f8ff;}.cls-10,.cls-9{fill:#2a71c9;}.cls-15,.cls-16,.cls-19,.cls-20,.cls-21,.cls-24,.cls-61,.cls-62,.cls-9{opacity:0.2;}.cls-10,.cls-15,.cls-16,.cls-19,.cls-20,.cls-21,.cls-24,.cls-27,.cls-28,.cls-29,.cls-60,.cls-61,.cls-62,.cls-9{mix-blend-mode:multiply;}.cls-10,.cls-28{opacity:0.3;}.cls-11{mask:url(#mask-2);}.cls-12{mask:url(#mask-3);}.cls-13{mask:url(#mask-4);}.cls-14{fill:#fff;}.cls-15{fill:url(#linear-gradient);}.cls-16,.cls-27,.cls-28,.cls-29,.cls-32,.cls-60{fill:#438be3;}.cls-17{fill:url(#linear-gradient-2);}.cls-18{fill:url(#linear-gradient-3);}.cls-19{fill:url(#linear-gradient-4);}.cls-20{fill:url(#linear-gradient-5);}.cls-21{fill:url(#linear-gradient-6);}.cls-22{fill:url(#linear-gradient-7);}.cls-23{fill:url(#linear-gradient-8);}.cls-24{fill:url(#linear-gradient-9);}.cls-25{mask:url(#mask-5);}.cls-26{fill:#f07;}.cls-27,.cls-42{opacity:0.5;}.cls-29{opacity:0.4;}.cls-30{fill:#d90051;}.cls-31{fill:#cd0045;}.cls-33{fill:#1d65bd;}.cls-34{fill:#d9a782;}.cls-35{fill:#367ed6;}.cls-36{fill:#5da5fd;}.cls-37{fill:#448ce4;}.cls-38{fill:#ffcda8;}.cls-39{fill:#6d2d10;}.cls-40{fill:#e54b5a;}.cls-41{fill:#cc3241;}.cls-43{fill:#044ca4;}.cls-44{fill:#412999;}.cls-45{fill:#281080;}.cls-46{fill:#001135;}.cls-47{fill:#1058b0;}.cls-48{fill:#2971c9;}.cls-49{fill:#e6f6ff;}.cls-50{fill:#b00052;}.cls-51{fill:#fdfdfd;}.cls-52{fill:#f1a882;}.cls-53{fill:#eef5f9;}.cls-54{fill:#034ba3;}.cls-55{fill:#1c64bc;}.cls-56{fill:#5098f0;}.cls-57{fill:#f2a983;}.cls-58{fill:#d88f69;}.cls-59{fill:#e6dbc9;}.cls-60{opacity:0.1;}.cls-61{fill:url(#linear-gradient-10);}.cls-62{fill:url(#linear-gradient-11);}</style><linearGradient id="_2" x1="745.75" y1="111.79" x2="745.75" y2="404.54" gradientUnits="userSpaceOnUse"><stop offset="0" stop-color="#fff"/><stop offset="1"/></linearGradient><linearGradient id="_2-2" x1="487.02" y1="48.25" x2="487.02" y2="205.19" xlink:href="#_2"/><linearGradient id="_2-3" x1="355.17" y1="29.68" x2="355.17" y2="186.62" xlink:href="#_2"/><linearGradient id="_2-4" x1="77.28" y1="111.79" x2="77.28" y2="404.54" xlink:href="#_2"/><linearGradient id="_2-5" x1="27.59" y1="365.5" x2="27.59" y2="535.86" xlink:href="#_2"/><mask id="mask" x="698.34" y="56.42" width="94.82" height="626.74" maskUnits="userSpaceOnUse"><polygon class="cls-1" points="793.16 83.8 793.16 655.79 745.75 683.16 698.34 655.79 698.34 83.8 745.75 56.42 793.16 83.8"/></mask><mask id="mask-2" x="461.6" y="18.57" width="50.83" height="335.99" maskUnits="userSpaceOnUse"><polygon class="cls-2" points="512.43 33.24 512.43 339.89 487.02 354.56 461.6 339.89 461.6 33.24 487.02 18.57 512.43 33.24"/></mask><mask id="mask-3" x="329.76" y="0" width="50.83" height="335.99" maskUnits="userSpaceOnUse"><polygon class="cls-3" points="380.59 14.68 380.59 321.32 355.18 335.99 329.76 321.32 329.76 14.68 355.18 0 380.59 14.68"/></mask><mask id="mask-4" x="29.87" y="56.42" width="94.82" height="626.74" maskUnits="userSpaceOnUse"><polygon class="cls-4" points="124.69 83.8 124.69 655.79 77.28 683.16 29.87 655.79 29.87 83.8 77.28 56.42 124.69 83.8"/></mask><linearGradient id="linear-gradient" x1="486.8" y1="315.79" x2="558.55" y2="361.92" gradientUnits="userSpaceOnUse"><stop offset="0" stop-color="#fff"/><stop offset="1" stop-color="#438be3"/></linearGradient><linearGradient id="linear-gradient-2" x1="-125.65" y1="18.5" x2="144.9" y2="669.11" gradientTransform="matrix(-1, 0, 0, 1, 191.12, 0)" gradientUnits="userSpaceOnUse"><stop offset="0" stop-color="#2693d1"/><stop offset="0.16" stop-color="#238bca"/><stop offset="0.4" stop-color="#1b75b6"/><stop offset="0.71" stop-color="#0f5195"/><stop offset="1" stop-color="#002770"/></linearGradient><linearGradient id="linear-gradient-3" x1="-91.44" y1="-22.55" x2="-33.46" y2="331.24" xlink:href="#linear-gradient-2"/><linearGradient id="linear-gradient-4" x1="242.09" y1="115.33" x2="234.74" y2="129.51" xlink:href="#linear-gradient"/><linearGradient id="linear-gradient-5" x1="79.67" y1="566.05" x2="151.42" y2="612.18" xlink:href="#linear-gradient"/><linearGradient id="linear-gradient-6" x1="573.65" y1="563.1" x2="793.85" y2="563.1" xlink:href="#linear-gradient"/><linearGradient id="linear-gradient-7" x1="-2252.34" y1="266.61" x2="-1981.79" y2="917.22" gradientTransform="translate(2914.03)" xlink:href="#linear-gradient-2"/><linearGradient id="linear-gradient-8" x1="-2218.13" y1="225.55" x2="-2160.15" y2="579.34" gradientTransform="translate(2914.03)" xlink:href="#linear-gradient-2"/><linearGradient id="linear-gradient-9" x1="2368.78" y1="363.43" x2="2361.43" y2="377.62" gradientTransform="matrix(-1, 0, 0, 1, 3105.15, 0)" xlink:href="#linear-gradient"/><mask id="mask-5" x="0" y="333.28" width="55.18" height="364.71" maskUnits="userSpaceOnUse"><polygon class="cls-5" points="55.18 349.21 55.18 682.06 27.59 697.99 0 682.06 0 349.21 27.59 333.29 55.18 349.21"/></mask><linearGradient id="linear-gradient-10" x1="588.18" y1="163.31" x2="580.82" y2="177.49" xlink:href="#linear-gradient"/><linearGradient id="linear-gradient-11" x1="181.05" y1="413.56" x2="173.69" y2="427.75" xlink:href="#linear-gradient"/></defs><g class="cls-6"><g id="Слой_2" data-name="Слой 2"><g id="Layer_1" data-name="Layer 1"><g class="cls-7"><polygon class="cls-8" points="793.16 83.8 793.16 655.79 745.75 683.16 698.34 655.79 698.34 83.8 745.75 56.42 793.16 83.8"/><polygon class="cls-9" points="793.16 655.79 745.75 683.16 745.75 111.17 793.16 83.8 793.16 655.79"/><polygon class="cls-10" points="745.75 111.17 745.75 683.16 698.34 655.79 698.34 83.8 745.75 111.17"/></g><g class="cls-11"><polygon class="cls-8" points="512.43 33.24 512.43 339.89 487.02 354.56 461.6 339.89 461.6 33.24 487.02 18.57 512.43 33.24"/><polygon class="cls-9" points="512.43 339.89 487.02 354.56 487.02 47.92 512.43 33.24 512.43 339.89"/><polygon class="cls-10" points="487.02 47.92 487.02 354.56 461.6 339.89 461.6 33.24 487.02 47.92"/></g><g class="cls-12"><polygon class="cls-8" points="380.59 14.68 380.59 321.32 355.18 335.99 329.76 321.32 329.76 14.68 355.18 0 380.59 14.68"/><polygon class="cls-9" points="380.59 321.32 355.18 335.99 355.18 29.35 380.59 14.68 380.59 321.32"/><polygon class="cls-10" points="355.18 29.35 355.18 335.99 329.76 321.32 329.76 14.68 355.18 29.35"/></g><g class="cls-13"><polygon class="cls-8" points="124.69 83.8 124.69 655.79 77.28 683.16 29.87 655.79 29.87 83.8 77.28 56.42 124.69 83.8"/><polygon class="cls-9" points="124.69 655.79 77.28 683.16 77.28 111.17 124.69 83.8 124.69 655.79"/><polygon class="cls-10" points="77.28 111.17 77.28 683.16 29.87 655.79 29.87 83.8 77.28 111.17"/></g><polygon class="cls-14" points="501.1 169.09 501.1 980 319.81 980 319.81 169.09 410.45 116.76 501.1 169.09"/><polygon class="cls-9" points="501.1 169.09 501.1 980 410.45 980 410.45 221.43 501.1 169.09"/><polygon class="cls-10" points="410.45 221.43 410.45 980 319.81 980 319.81 169.09 410.45 221.43"/><polygon class="cls-14" points="664.77 342.11 664.77 980 415.38 980 415.38 342.11 540.08 270.12 664.77 342.11"/><polygon class="cls-9" points="664.77 342.11 664.77 980 540.08 980 540.08 414.11 664.77 342.11"/><polygon class="cls-10" points="540.08 414.11 540.08 980 415.38 980 415.38 342.11 540.08 414.11"/><polygon class="cls-15" points="632.99 338.27 422.04 338.27 415.39 342.11 517.92 401.31 545.94 401.31 644.06 344.66 632.99 338.27"/><polygon class="cls-14" points="404.81 342.11 404.81 980 155.43 980 155.43 342.11 280.12 270.12 404.81 342.11"/><polygon class="cls-9" points="404.81 342.11 404.81 980 280.12 980 280.12 414.11 404.81 342.11"/><polygon class="cls-10" points="280.12 414.11 280.12 980 155.43 980 155.43 342.11 280.12 414.11"/><polygon class="cls-16" points="286.02 289.17 247.12 289.17 155.43 342.11 172.92 352.21 198.97 352.21 297.09 295.56 286.02 289.17"/><path class="cls-14" d="M299.9,46c0-6.19-4.39-8.72-9.75-5.63l-86,49.66c-5.36,3.1-9.75,10.7-9.75,16.89v218.9c0,6.19,4.38,8.72,9.74,5.63l86-49.66c5.36-3.1,9.75-10.7,9.75-16.89Z"/><path class="cls-17" d="M299.9,46c0-6.19-4.39-8.72-9.75-5.63l-86,49.66c-5.36,3.1-9.75,10.7-9.75,16.89v218.9c0,6.19,4.38,8.72,9.74,5.63l86-49.66c5.36-3.1,9.75-10.7,9.75-16.89Z"/><path class="cls-18" d="M201,330.89a6.31,6.31,0,0,0,3.06-1l86-49.65c4.59-2.66,8.48-9.39,8.48-14.7V46.66c0-1.33-.28-4.42-2.88-4.42a6.31,6.31,0,0,0-3.07,1l-86,49.65c-4.6,2.66-8.49,9.39-8.49,14.7v218.9C198.07,327.8,198.35,330.89,201,330.89Z"/><path class="cls-14" d="M194.39,325.85V107c0-6.19,4.39-13.79,9.75-16.89l86-49.66c2.59-1.49,5-1.66,6.7-.75v0l-10-5.66c-1.73-.8-4-.58-6.52.86l-86,49.66c-5.36,3.1-9.75,10.7-9.75,16.89v218.9c0,3.14,1.13,5.34,2.95,6.34l9.15,5.16C195.26,330.65,194.39,328.62,194.39,325.85Z"/><path class="cls-19" d="M194.39,325.85V107c0-6.19,4.39-13.79,9.75-16.89l86-49.66c2.59-1.49,5-1.66,6.7-.75v0l-10-5.66c-1.73-.8-4-.58-6.52.86l-86,49.66c-5.36,3.1-9.75,10.7-9.75,16.89v218.9c0,3.14,1.13,5.34,2.95,6.34l9.15,5.16C195.26,330.65,194.39,328.62,194.39,325.85Z"/><polygon class="cls-14" points="249.38 587.63 249.38 980 0 980 0 587.63 124.69 515.64 249.38 587.63"/><polygon class="cls-9" points="249.38 587.63 249.38 980 124.69 980 124.69 659.62 249.38 587.63"/><polygon class="cls-10" points="124.69 659.62 124.69 980 0 980 0 587.63 124.69 659.62"/><polygon class="cls-20" points="225.86 588.53 14.9 588.53 8.26 592.37 110.79 651.57 138.81 651.57 236.93 594.92 225.86 588.53"/><polygon class="cls-14" points="823.03 587.63 823.03 980 573.65 980 573.65 587.63 698.33 515.64 823.03 587.63"/><polygon class="cls-10" points="698.33 659.62 698.33 980 573.65 980 573.65 587.63 698.33 659.62"/><polygon class="cls-9" points="823.03 587.63 823.03 980 698.33 980 698.33 659.62 823.03 587.63"/><polygon class="cls-21" points="793.85 584.52 702.16 531.58 670.72 531.58 573.65 587.63 585.75 594.62 776.36 594.62 793.85 584.52"/><path class="cls-14" d="M678.56,294.14c0-6.19,4.39-8.73,9.75-5.63l86,49.66c5.37,3.09,9.76,10.7,9.76,16.89V574c0,6.19-4.38,8.72-9.75,5.62l-86-49.65c-5.37-3.1-9.75-10.7-9.75-16.9Z"/><path class="cls-22" d="M678.56,294.14c0-6.19,4.39-8.73,9.75-5.63l86,49.66c5.37,3.09,9.76,10.7,9.76,16.89V574c0,6.19-4.38,8.72-9.75,5.62l-86-49.65c-5.37-3.1-9.75-10.7-9.75-16.9Z"/><path class="cls-23" d="M777.51,579a6.46,6.46,0,0,1-3.07-1l-86-49.66c-4.6-2.65-8.48-9.38-8.48-14.69V294.77c0-1.33.28-4.42,2.88-4.42a6.46,6.46,0,0,1,3.07,1l86,49.66c4.6,2.65,8.48,9.38,8.48,14.7V574.58C780.39,575.91,780.11,579,777.51,579Z"/><path class="cls-14" d="M784.07,574V355.06c0-6.19-4.39-13.8-9.76-16.89l-86-49.66c-2.59-1.5-4.95-1.67-6.7-.76h0l10-5.66c1.72-.8,4-.58,6.51.86l86,49.65c5.36,3.1,9.75,10.71,9.75,16.9V568.38c0,3.15-1.13,5.35-3,6.35l-9.16,5.15C783.19,578.75,784.07,576.72,784.07,574Z"/><path class="cls-24" d="M784.07,574V355.06c0-6.19-4.39-13.8-9.76-16.89l-86-49.66c-2.59-1.5-4.95-1.67-6.7-.76h0l10-5.66c1.72-.8,4-.58,6.51.86l86,49.65c5.36,3.1,9.75,10.71,9.75,16.9V568.38c0,3.15-1.13,5.35-3,6.35l-9.16,5.15C783.19,578.75,784.07,576.72,784.07,574Z"/><polygon class="cls-14" points="422.02 615.44 422.02 980 240.73 980 240.73 615.44 331.37 563.1 422.02 615.44"/><polygon class="cls-9" points="422.02 615.44 422.02 980 331.37 980 331.37 667.77 422.02 615.44"/><polygon class="cls-10" points="331.37 667.77 331.37 980 240.73 980 240.73 615.44 331.37 667.77"/><polygon class="cls-14" points="613.2 521.8 613.2 980 431.91 980 431.91 521.8 522.55 469.46 613.2 521.8"/><polygon class="cls-9" points="613.2 521.8 613.2 980 522.55 980 522.55 574.13 613.2 521.8"/><polygon class="cls-10" points="522.55 574.13 522.55 980 431.91 980 431.91 521.8 522.55 574.13"/><polygon class="cls-14" points="501.1 764.72 501.1 980 319.81 980 319.81 764.72 410.45 712.38 501.1 764.72"/><polygon class="cls-9" points="501.1 764.72 501.1 980 410.45 980 410.45 817.05 501.1 764.72"/><polygon class="cls-10" points="410.45 817.05 410.45 980 319.81 980 319.81 764.72 410.45 817.05"/><g class="cls-25"><polygon class="cls-14" points="55.18 349.21 55.18 682.06 27.59 697.99 0 682.06 0 349.21 27.59 333.29 55.18 349.21"/><polygon class="cls-9" points="55.18 682.06 27.59 697.99 27.59 365.14 55.18 349.21 55.18 682.06"/><polygon class="cls-10" points="27.59 365.14 27.59 697.99 0 682.06 0 349.21 27.59 365.14"/></g><polygon class="cls-14" points="231.52 137.88 202.19 154.81 202.19 120.95 231.52 104.01 231.52 137.88"/><polygon class="cls-14" points="263.16 119.61 233.83 136.54 233.83 102.68 263.16 85.75 263.16 119.61"/><polygon class="cls-14" points="294.8 101.34 265.47 118.28 265.47 84.41 294.8 67.48 294.8 101.34"/><polygon class="cls-14" points="231.52 174.18 202.19 191.11 202.19 157.25 231.52 140.32 231.52 174.18"/><polygon class="cls-26" points="263.16 155.91 233.83 172.84 233.83 138.98 263.16 122.05 263.16 155.91"/><polygon class="cls-14" points="294.8 137.65 265.47 154.58 265.47 120.72 294.8 103.78 294.8 137.65"/><polygon class="cls-14" points="231.52 210.48 202.19 227.41 202.19 193.55 231.52 176.62 231.52 210.48"/><polygon class="cls-14" points="263.16 192.22 233.83 209.15 233.83 175.28 263.16 158.35 263.16 192.22"/><polygon class="cls-14" points="294.8 173.95 265.47 190.88 265.47 157.02 294.8 140.09 294.8 173.95"/><polygon class="cls-16" points="231.52 137.88 202.19 154.81 202.19 120.95 231.52 104.01 231.52 137.88"/><polygon class="cls-27" points="263.16 119.61 233.83 136.54 233.83 102.68 263.16 85.75 263.16 119.61"/><polygon class="cls-16" points="294.8 101.34 265.47 118.28 265.47 84.41 294.8 67.48 294.8 101.34"/><polygon class="cls-28" points="231.52 174.18 202.19 191.11 202.19 157.25 231.52 140.32 231.52 174.18"/><polygon class="cls-28" points="294.8 137.65 265.47 154.58 265.47 120.72 294.8 103.78 294.8 137.65"/><polygon class="cls-27" points="231.52 210.48 202.19 227.41 202.19 193.55 231.52 176.62 231.52 210.48"/><polygon class="cls-28" points="263.16 192.22 233.83 209.15 233.83 175.28 263.16 158.35 263.16 192.22"/><polygon class="cls-16" points="294.8 173.95 265.47 190.88 265.47 157.02 294.8 140.09 294.8 173.95"/><polygon class="cls-14" points="773.89 370.98 684.36 319.29 684.36 361.87 773.89 413.55 773.89 370.98"/><polygon class="cls-14" points="773.89 470.71 684.36 419.02 684.36 461.59 773.89 513.28 773.89 470.71"/><polygon class="cls-9" points="773.89 370.98 684.36 319.29 684.36 361.87 773.89 413.55 773.89 370.98"/><polygon class="cls-9" points="773.89 470.71 684.36 419.02 684.36 461.59 773.89 513.28 773.89 470.71"/><path class="cls-29" d="M757.07,412.42l-41.22-23.8c-5.05-2.91-9.14-.58-9.16,5.22s4.06,12.84,9.1,15.75L757,433.39c5,2.91,9.14.58,9.16-5.21S762.11,415.33,757.07,412.42Z"/><path class="cls-26" d="M753.53,415l-41.22-23.8c-2.54-1.46-4.84-1.6-6.5-.64l-3.87,2.25c1.66-1,4-.83,6.5.64l41.22,23.8c5,2.91,9.12,10,9.1,15.76,0,2.87-1,4.9-2.66,5.85l3.87-2.25c1.63-.95,2.65-3,2.66-5.85C762.64,424.94,758.57,417.89,753.53,415Z"/><path class="cls-30" d="M749.66,417.23l-41.22-23.8c-5-2.91-9.14-.58-9.16,5.22s4.06,12.84,9.1,15.75l41.22,23.8c5,2.91,9.14.58,9.16-5.21S754.7,420.14,749.66,417.23Z"/><path class="cls-26" d="M440.51,116.46,398.78,92.37a3.38,3.38,0,0,0-3.39-.33L387,96.89a3.4,3.4,0,0,1,3.4.33l41.72,24.09a10.5,10.5,0,0,1,4.75,8.21l-.14,48a3.34,3.34,0,0,1-1.39,3.05l8.34-4.85a3.32,3.32,0,0,0,1.39-3.05l.14-48A10.49,10.49,0,0,0,440.51,116.46Z"/><path class="cls-31" d="M432.16,121.31a10.5,10.5,0,0,1,4.75,8.21l-.14,48c0,3-2.16,4.23-4.78,2.72l-41.72-24.09a10.48,10.48,0,0,1-4.75-8.22l.14-48c0-3,2.14-4.23,4.78-2.71Z"/><path class="cls-26" d="M306.25,480.29,348,456.2a3.38,3.38,0,0,1,3.39-.33l8.35,4.85a3.4,3.4,0,0,0-3.4.33L314.6,485.14a10.47,10.47,0,0,0-4.75,8.21l.14,48a3.33,3.33,0,0,0,1.39,3.05L303,539.51a3.32,3.32,0,0,1-1.39-3l-.14-48A10.5,10.5,0,0,1,306.25,480.29Z"/><path class="cls-31" d="M314.6,485.14a10.47,10.47,0,0,0-4.75,8.21l.14,48c0,3,2.16,4.23,4.78,2.73L356.49,520a10.51,10.51,0,0,0,4.75-8.23l-.14-48c0-3-2.14-4.23-4.78-2.71Z"/><path class="cls-26" d="M540.17,462.37l-41.73-24.09a3.38,3.38,0,0,0-3.39-.33l-8.35,4.85a3.4,3.4,0,0,1,3.4.33l41.72,24.09a10.5,10.5,0,0,1,4.75,8.21l-.14,48a3.34,3.34,0,0,1-1.39,3.05l8.34-4.85a3.32,3.32,0,0,0,1.39-3.05l.14-48A10.49,10.49,0,0,0,540.17,462.37Z"/><path class="cls-31" d="M531.82,467.22a10.5,10.5,0,0,1,4.75,8.21l-.14,48c0,3-2.16,4.23-4.78,2.72L489.93,502a10.48,10.48,0,0,1-4.75-8.22l.14-48c0-3,2.14-4.23,4.78-2.71Z"/><path class="cls-32" d="M440.51,43,398.78,18.92a3.33,3.33,0,0,0-3.39-.33L387,23.44a3.35,3.35,0,0,1,3.4.33l41.72,24.09a10.5,10.5,0,0,1,4.75,8.2l-.14,48a3.33,3.33,0,0,1-1.39,3l8.34-4.85a3.3,3.3,0,0,0,1.39-3l.14-48A10.49,10.49,0,0,0,440.51,43Z"/><path class="cls-33" d="M432.16,47.86a10.5,10.5,0,0,1,4.75,8.2l-.14,48c0,3-2.16,4.23-4.78,2.72L390.27,82.66a10.49,10.49,0,0,1-4.75-8.22l.14-48c0-3,2.14-4.22,4.78-2.7Z"/><path class="cls-32" d="M435.57,710.06,393.84,686a3.38,3.38,0,0,0-3.39-.33l-8.35,4.85a3.37,3.37,0,0,1,3.4.33l41.72,24.09a10.47,10.47,0,0,1,4.75,8.21l-.14,48a3.31,3.31,0,0,1-1.39,3l8.34-4.84a3.35,3.35,0,0,0,1.4-3l.13-48A10.49,10.49,0,0,0,435.57,710.06Z"/><path class="cls-33" d="M427.22,714.91a10.47,10.47,0,0,1,4.75,8.21l-.14,48c0,3-2.16,4.23-4.77,2.72l-41.73-24.09a10.48,10.48,0,0,1-4.75-8.22l.14-48c0-3,2.15-4.23,4.78-2.71Z"/><path class="cls-32" d="M542,391.16l-41.73-24.08a3.36,3.36,0,0,0-3.39-.34l-8.34,4.85a3.38,3.38,0,0,1,3.39.33L533.65,396a10.47,10.47,0,0,1,4.75,8.21l-.13,48a3.34,3.34,0,0,1-1.4,3.05l8.34-4.85a3.33,3.33,0,0,0,1.4-3.05l.13-48A10.5,10.5,0,0,0,542,391.16Z"/><path class="cls-33" d="M533.65,396a10.47,10.47,0,0,1,4.75,8.21l-.13,48c0,3-2.17,4.23-4.78,2.73l-41.73-24.09a10.5,10.5,0,0,1-4.74-8.23l.13-48c0-3,2.15-4.22,4.78-2.71Z"/><path class="cls-32" d="M306.25,555.19,348,531.1a3.36,3.36,0,0,1,3.39-.34l8.35,4.85a3.38,3.38,0,0,0-3.4.34L314.6,560a10.5,10.5,0,0,0-4.75,8.2l.14,48a3.33,3.33,0,0,0,1.39,3L303,614.4a3.3,3.3,0,0,1-1.39-3l-.14-48A10.49,10.49,0,0,1,306.25,555.19Z"/><path class="cls-33" d="M314.6,560a10.5,10.5,0,0,0-4.75,8.2l.14,48c0,3,2.16,4.24,4.78,2.73l41.72-24.09a10.5,10.5,0,0,0,4.75-8.23l-.14-48c0-3-2.14-4.22-4.78-2.7Z"/><path class="cls-14" d="M417.23,72.42l-6,3.47-6-10.41c-3.45.38-5.76,3.39-5.76,8.36L423,87.43C423,82.46,420.68,76.78,417.23,72.42Z"/><path class="cls-14" d="M419.8,60.84c0,5.47-3.84,7.69-8.58,5s-8.59-9.39-8.59-14.87,3.84-7.7,8.59-5S419.8,55.36,419.8,60.84Z"/><path class="cls-14" d="M424.09,142.9a27.28,27.28,0,0,0-1.79-6l1.68-2-3.1-5.37-2.55.46a27.5,27.5,0,0,0-4.31-4.55l-.61-3.8L409,119.13l-.61,3.09a9,9,0,0,0-4.31-.42l-2.55-3.41-3.1,1.79,1.68,3.91a9.08,9.08,0,0,0-1.79,3.94l-3-1v5.06l3,2.44a27.2,27.2,0,0,0,1.79,6l-1.68,2,3.1,5.37,2.55-.46a27.5,27.5,0,0,0,4.31,4.55l.61,3.8,4.39,2.53.61-3.09a9,9,0,0,0,4.31.42l2.55,3.41,3.1-1.79-1.68-3.91a9.08,9.08,0,0,0,1.79-3.94l3,1v-5.07Zm-12.88,4.62a16.86,16.86,0,0,1-7.62-13.22c0-4.86,3.41-6.83,7.63-4.4a16.87,16.87,0,0,1,7.63,13.21C418.85,148,415.43,150,411.21,147.52Z"/><path class="cls-14" d="M323.6,579a11.49,11.49,0,0,0,2.85,7.55c2.86,3.35,9.09,11.57,9.09,11.57s6.24-15.42,9.1-22.08c2.27-5.29,2.85-8.72,2.85-10.83,0-7.61-5.35-10.7-11.95-6.89S323.6,571.42,323.6,579Zm5.44-4.2a14.36,14.36,0,0,1,6.5-11.26c3.59-2.07,6.5-.39,6.5,3.75a14.36,14.36,0,0,1-6.5,11.26C332,580.65,329,579,329,574.83Z"/><path class="cls-14" d="M510.87,468.81c-8.41-4.86-15.24-2.88-15.24,4.42,0,4.21,2.27,9.26,5.8,13.72-.52,6.61-1.22,7.71-1.22,7.71s3.05,1.13,8.58-.74c.68.48,1.38.92,2.08,1.33,8.42,4.86,15.25,2.89,15.25-4.42S519.29,473.67,510.87,468.81Z"/><path class="cls-14" d="M525.83,420l-1.33-.77c.75.43,1.35.08,1.35-.78v-1.57a3,3,0,0,0-1.35-2.34l-4-2.29h0l-2.5-1.45a12.1,12.1,0,0,0,1.18-5.87c-.17-3.4-3.07-7.1-4.06-6.74s-.48,3.63-1.71,6.05a7.8,7.8,0,0,1-3.85,3.4l-1.18-.68v12.76l2.36,5.66,12.57,7.26c.75.43,1.35.08,1.35-.78v-1.57a3,3,0,0,0-1.35-2.34l1.6.92c.75.43,1.36.08,1.36-.78v-1.57a3,3,0,0,0-1.36-2.34l.91.52c.74.43,1.35.08,1.35-.78v-1.57A3,3,0,0,0,525.83,420Z"/><path class="cls-14" d="M498.24,415.27a3,3,0,0,0,1.35,2.34l4.19,2.42c.74.43,1.35.08,1.35-.78V405a3,3,0,0,0-1.35-2.34l-4.19-2.42c-.74-.43-1.35-.08-1.35.78Z"/><path class="cls-14" d="M331.5,492.44c2.75-1.59,5.15-1.26,6.45.54a16.36,16.36,0,0,1,6.45-8c4.13-2.38,7.48-.45,7.48,4.32,0,9.45-13.93,26.63-13.93,26.63S324,514.84,324,505.39A16.52,16.52,0,0,1,331.5,492.44Z"/><path class="cls-14" d="M406.28,723.43c-10.19-5.88-13.89,2.34-13.89,2.34s3.7,12.49,13.89,18.37,13.88-2.34,13.88-2.34S416.46,729.31,406.28,723.43Zm0,18A14.69,14.69,0,0,1,399.63,730c0-4.24,3-6,6.65-3.84a14.7,14.7,0,0,1,6.64,11.52C412.92,741.86,410,743.58,406.28,741.46Z"/><path class="cls-14" d="M406.28,729c-2.29-1.32-4.15-.25-4.15,2.4a9.15,9.15,0,0,0,4.15,7.17c2.28,1.32,4.14.25,4.14-2.39A9.17,9.17,0,0,0,406.28,729Z"/><path class="cls-33" d="M641.51,579.37s-2.58,3.79-2.72,5.88,1.84,4.13,2.72,6.17.87,9.87.87,9.87l1.32-.24s.19-9.19,2.38-9.24c0,0,6.41,2,8.26,1.41s3.7-4.86,3.6-8.46-1-5.78-1.8-5.88-3.6,1.94-3.6,1.94l.29,3s2.63,1.7,2,2.87-1.7.82-2.94-1.14S646.32,579.37,641.51,579.37Z"/><path class="cls-34" d="M648.07,505s1.46,19.35.24,23.43-6.46,14.93-7.38,19,1.6,17.06,1.79,21.49-1.21,10-1.21,10.45c4.81,0,9.14,4.23,10.38,6.2s2.3,2.3,2.94,1.14-2-2.87-2-2.87l-.28-3h0c-.54-.37-1-3.55-1-5.55a126.29,126.29,0,0,1,3.31-19.15c1.65-5.88,3.16-14.24,4.47-17.55s5-10.11,6.17-15.31,2.24-15.12,2.24-15.12Z"/><path class="cls-35" d="M648.77,479.59a26.9,26.9,0,0,0-1.14,15.31s1.24,29.06,0,33.84-6.52,14.32-7.6,23.63c-1.25,10.72-2.37,28-2.37,28s8.49,9,18.48-1.44a110.06,110.06,0,0,1,.19-20c1.11-11.75,9.89-28.95,11-33.73s4.24-23.33,4.24-23.33l-3.84-19.26Z"/><path class="cls-33" d="M656.14,578.88a110.06,110.06,0,0,1,.19-20c1.11-11.75,9.89-28.95,11-33.73s4.24-23.33,4.24-23.33l-3.31-16.58c-5.25.41-8.83,1.46-9.23,3.52A27.7,27.7,0,0,0,661,505s3.44,5.84,3.36,11.73-3.77,16.86-9.75,32.42c-4.52,11.76-2.63,26.06-1.44,32.32A19.78,19.78,0,0,0,656.14,578.88Z"/><path class="cls-33" d="M671.06,596.24s-3,2.38-4,4.61a6.44,6.44,0,0,0,.24,5.74,33.82,33.82,0,0,1,2.62,12.78h1.12s.34-8.41,1.56-9,4.81.58,6.61,2.62,5.83,5.11,9.67,4.43,11.33-8.75,10.6-10.4-13-.73-13-.73,2,2.28,1,3.54-3.25,1.27-5.25-1.45S675.49,598.66,671.06,596.24Z"/><path class="cls-34" d="M672.05,548.05c-1,2.72-3.84,14.66-3.14,20s3.57,17.76,3.73,20.15c.14,2.13-.1,6.18-1.3,8.15,4.34,2.56,8.95,9.33,10.9,12s4.23,2.72,5.25,1.45-1-3.54-1-3.54-2.64-6.81-3.12-11.13,1.18-17.48,2-25.58,2.29-18.79,3.15-22.8,5.06-25.61,5.86-30.57a120.76,120.76,0,0,0,1-13.06l-28,5.23s1.81,16.79,3.31,24.47S673,545.33,672.05,548.05Z"/><path class="cls-35" d="M666.52,596.24s11.08,6.46,21.18,4.16c0,0-2.2-29.95.64-46.42s6.37-32.75,7-42.46-2-23.86-2-23.86L684.7,479l-25.58.58s-4.11,17.35,6.77,26.28c0,0,4.82,29.36,5.49,35.79s-2.16,15.1-2.74,19.7S667.18,584.12,666.52,596.24Z"/><path class="cls-36" d="M648.36,411.7s-4.4-.24-5.35,1.4S634.71,435.48,633,440s-4.65,14-.81,15.47,27.34-6.22,27.34-6.22l-3.77-8.18-11.19,1.39,4.9-12.26Z"/><path class="cls-37" d="M656.56,442.91l-14,3.38a32.46,32.46,0,0,0,1.95-3.83l4.9-12.26L648.6,416l-3.74,1.16s-1.6-1-2.29,4.46-2.32,15.28-5.28,21.95c-2.55,5.75-4.91,8.45-6.8,9.86a2.77,2.77,0,0,0,1.65,2c3.83,1.45,27.34-6.22,27.34-6.22Z"/><path class="cls-36" d="M653.58,408s-5.16-.27-8.85,2.88-2.79,8.48.36,15.82,13.46,25.46,12.67,30-6,9.56-9.78,22.89c0,0,.75,9.91,15.24,13s27-.18,30.79-4.3c0,0,.14-4.42-2.49-11.1-1.12-2.85-4.12-6.18-4.24-13.82s3.46-15.58,3.46-15.58,5.69-9,5-13-10-10.49-10-10.49l-1-1.39L673.18,412Z"/><path class="cls-37" d="M694,488.29s.14-4.42-2.49-11.1c-1.12-2.85-4.12-6.18-4.24-13.82s3.46-15.58,3.46-15.58,5.69-9,5-13c-.57-3.45-7.4-8.61-9.44-10.08-2,.73-4.16,1.59-4.16,1.59l-3,7.77s-4.49-.9-3.85,2.32,4.33,11.66,4.43,23.79c.07,8.4-1.5,22.77-1.27,33.51C685.93,493.08,691.64,490.84,694,488.29Z"/><path class="cls-38" d="M753.52,422.09c.27.56.07,1.05-1,1.7s-3.46,2.07-3.46,2.07a6.92,6.92,0,0,1-1,2.29c-.71.92-.59,1.29-.52,1.7a5.21,5.21,0,0,1-.35,1.85,4,4,0,0,0-.12,1.18,10.65,10.65,0,0,1-1.33,3.06c-.49.43-4.2,2.59-5.44,3.24s-5.72,4.7-7.64,6.59-13.54,13.51-16.17,15.61-7.79,7-9.71,6.65-.06-12.95.47-13.82,9.92-7.3,13.29-9.61S731.08,437,732,435.2s1.86-5.17,2.79-7.05,2.07-3.47,2.56-4.55,1.24-1.88,1.83-1.51.8,1.08.4,2.38-1.89,4-1.11,3.92,2.87-2.1,3.89-2.38a33.94,33.94,0,0,0,4.42-2C748.61,423.08,752.94,420.82,753.52,422.09Z"/><path class="cls-36" d="M731.23,435.61a9,9,0,0,1,5.82,7s-18.37,17.76-21.28,20.55-8.61,6.3-11.34,5.33-20.91-20.36-25-24.61-6-11.72-4.06-16.36,7.64-8.91,13-.91,18.91,26.55,18.91,26.55S727.68,439.16,731.23,435.61Z"/><path class="cls-38" d="M672.39,421.22s-.47-7.65.67-10.49,2.13-3.3,3.41-3.6c1-.23,3,.34,5.36-4.26s1.43-6.58,1.82-8.54,1-3.33.65-5.23-1-9-6.53-11.39-12.37-2-16.09.15S655,385,655.06,390.24s2.86,8.46,2.91,12-2.14,7.92-4.27,10.67,2.3,6.62,5.32,8A17.64,17.64,0,0,0,672.39,421.22Z"/><path class="cls-34" d="M676.24,402.52a64.81,64.81,0,0,1-.17-7.13l-6.44,4.85s.49,13.14-3.28,18.84a3.47,3.47,0,0,0-.41,3.34,18,18,0,0,0,6.45-1.2s-.47-7.65.67-10.49,2.13-3.3,3.41-3.6a6.75,6.75,0,0,0,2.12-.46A6.19,6.19,0,0,1,676.24,402.52Z"/><path class="cls-39" d="M677.63,420c-1.58-10.32-5-17.83-1.39-21.52l.86-1.27c.07,0,.47,1.43,1.64,1.11.58-.15,1.34-3.29,2-5.08.16-.43.4-1,.66-1.6a52.59,52.59,0,0,1-4.59,4.28l-.3-.33s5.42-4.54,7.29-8.24c0,0-3.86,4.81-6.25,6.16s-5.23,2.88-4.19,9.93c.83,5.58,4.12,14.9,3.9,21.18A11,11,0,0,0,677.63,420Z"/><path class="cls-40" d="M681.75,378.22c-2.17-2.64-5.94-5.56-14.5-4.65-4.14.43-7.47,3.6-9.12,5.87-1.85,2.55-3.54,6.19-3.11,13.49s.05,13.48-4.69,18.19c-2.63,2.62-3.92,10.05-1.51,14.54a13.46,13.46,0,0,1,.24-9.5l.05-.1s0,.07-.05.1a14,14,0,0,0,.82,11,6.18,6.18,0,0,0,1.73,1.34c6.2,3.19,14.19,5.59,16,5.41a10.14,10.14,0,0,0,5-2.62,16.1,16.1,0,0,1-2,2.16c3.71-1.62,5.64-5.87,6.44-8.14a22.81,22.81,0,0,1-1.49,5.06s2.44-4,2.59-7.13-1.43-8.34-1.43-8.34h0c-1.63-7.72-3.49-13.39-.46-16.45l.86-1.27c.07,0,.47,1.43,1.64,1.11.58-.15,1.34-3.29,2-5.08.16-.43.4-1,.66-1.6C688.72,385.57,681.75,378.22,681.75,378.22Z"/><path class="cls-41" d="M683.37,388c-1.58,2.66-4.37,3.31-7.62,6.39s-3.19,10.44-1.2,17.14a41.57,41.57,0,0,1,1.79,12.17A29.2,29.2,0,0,0,673.61,413s2.53,7,1.17,11.82a12.34,12.34,0,0,1-5.64,7,21.11,21.11,0,0,0,3-5.13c-2.64,4.26-5.88,5.29-5.88,5.29a21.08,21.08,0,0,0,5.33-18.89C672,430.61,661,431.28,661,431.28l.89-1.71c-.61.65-2.06,1.76-3,1.09s-1.73-2.92-1.73-2.92l-.09,2.42c-1.07-.6-2.41-3.15-2.41-3.15l-.07,2c-3.57-5.21-.49-16.09-.49-16.09-3.66,8.46-1.46,15.09-1.46,15.09-2.81-2.58-2.59-8.39-2.59-8.39a8.71,8.71,0,0,0-.16,4.26c-.58-1.43-1.44-5.19,1.81-10.84s3.65-9.31,3.65-9.31a21.31,21.31,0,0,1-1.77,4A20.21,20.21,0,0,0,655.16,397h0c0,5.55-1,10.33-4.83,14.14-2.63,2.62-3.92,10.05-1.51,14.54a13.46,13.46,0,0,1,.24-9.5l.05-.1s0,.07-.05.1a14,14,0,0,0,.82,11,6.18,6.18,0,0,0,1.73,1.34c6.2,3.19,14.19,5.59,16,5.41a10.14,10.14,0,0,0,5-2.62,16.1,16.1,0,0,1-2,2.16c3.71-1.62,5.64-5.87,6.44-8.14a22.81,22.81,0,0,1-1.49,5.06s2.44-4,2.59-7.13-1.43-8.34-1.43-8.34h0c-1.63-7.72-3.49-13.39-.46-16.45l.86-1.27c.07,0,.47,1.43,1.64,1.11.58-.15,1.34-3.29,2-5.08.16-.43.4-1,.66-1.6l-2.31,1.12A14.84,14.84,0,0,0,683.37,388Z"/><path class="cls-38" d="M676.91,402.92c-.21.34-2.61.54-2.21-3.59s3.17-5.09,3.11-2.07A23.1,23.1,0,0,1,676.91,402.92Z"/><path class="cls-41" d="M667.25,373.57c-4.14.43-7.47,3.6-9.12,5.87-1.85,2.55-3.54,6.19-3.11,13.49.09,1.44.14,2.82.13,4.17a30.89,30.89,0,0,1,.87,3.25c.48,2.88-.71,9.63-.71,9.63a32.1,32.1,0,0,0,1.33-6.35c.59,2.58-1.12,11.21-1.12,11.21,1.76-3,3.36-10.35,3-20.48a21.59,21.59,0,0,1,8.87-18.18,13.18,13.18,0,0,1,9.29-1.7A19.66,19.66,0,0,0,667.25,373.57Z"/><g class="cls-42"><path class="cls-41" d="M665,383.54a8,8,0,0,0-1.07,1.24,13.36,13.36,0,0,0-1.93,3.83,15.23,15.23,0,0,0-.6,2.82,24.24,24.24,0,0,0-.1,3.23c0,2.26.12,4.68.11,7.12A49.39,49.39,0,0,1,659.9,415a16.62,16.62,0,0,1-1.67,4,11.12,11.12,0,0,1-1,1.33,11,11,0,0,0,.91-1.38,17.33,17.33,0,0,0,1.56-4.06,36.45,36.45,0,0,0,1-6.06c.2-2.24.27-4.63.27-7s0-4.78,0-7a24.86,24.86,0,0,1,.14-3.27,15.48,15.48,0,0,1,.66-2.85,13.45,13.45,0,0,1,2.07-3.87A8.23,8.23,0,0,1,665,383.54Z"/></g><path class="cls-41" d="M662.37,424.51a49.41,49.41,0,0,0,1.91-5.26,37.11,37.11,0,0,0,1.25-5.62,20.41,20.41,0,0,0,.21-3.25c0-1.1-.16-2.25-.24-3.38a90.53,90.53,0,0,1-.41-12.47,17.64,17.64,0,0,1,.65-4,5.89,5.89,0,0,1,.63-1.4,5.75,5.75,0,0,0-.58,1.44,17.55,17.55,0,0,0-.52,4.05,113.52,113.52,0,0,0,.59,12.36c.08,1.12.19,2.23.23,3.35a20.55,20.55,0,0,1-.24,3.27,34.76,34.76,0,0,1-1.38,5.64A44.33,44.33,0,0,1,662.37,424.51Z"/><path class="cls-41" d="M675.88,378.17a8.85,8.85,0,0,0-3.11.73,12.1,12.1,0,0,0-2.82,1.67,15.17,15.17,0,0,0-2.64,2.72,24.07,24.07,0,0,0-3.27,6.29c-.64,1.82-.93,3.08-.94,3.07s.22-1.29.78-3.17a20.84,20.84,0,0,1,3.15-6.41,13.65,13.65,0,0,1,2.7-2.72,11.49,11.49,0,0,1,2.94-1.61A8.34,8.34,0,0,1,675.88,378.17Z"/><g class="cls-42"><path class="cls-41" d="M679,381.91a9.55,9.55,0,0,0-1.62.73,13.81,13.81,0,0,0-3.62,2.93,14.65,14.65,0,0,0-3.1,5.8,19.06,19.06,0,0,0-.64,3.7c-.11,1.28-.18,2.59-.2,3.91-.06,2.64.11,5.26.13,7.72a31.2,31.2,0,0,1-.6,6.66,39.48,39.48,0,0,1-1.23,4.54c-.36,1.07-.6,1.67-.6,1.67s.22-.62.55-1.72a38.9,38.9,0,0,0,1.12-4.6,32.54,32.54,0,0,0,.45-6.64c-.06-2.43-.24-5-.18-7.63,0-1.3.09-2.6.21-3.88a19.66,19.66,0,0,1,.67-3.73,14.68,14.68,0,0,1,3.23-5.86,13.23,13.23,0,0,1,3.76-2.9A9,9,0,0,1,679,381.91Z"/></g><path class="cls-38" d="M282.25,147.65c-2.09-.9-5.56-3.64-7.64-4.82a8.81,8.81,0,0,0-3.12-1.32,34.25,34.25,0,0,1-4-2.15c-1-.7-5.1-2.36-5.9-3s-1.28-1.08-2.36-.49c-.33.18-.17,2.15,1.77,3.12a47,47,0,0,1,5.21,3.47s-3.75,1-5.35,1.64-4.68,2.67-4.61,3.33.9.93,1.87.8,3.68-1.6,4.27-1.67,2.81-.42,2.81-.42-2.36,1.74-3.19,2.5-2.85,3.5-2.16,4,1.64-.14,1.74-.14,4.16-3.33,4.16-3.33-.76,2.19-.76,2.29a5.25,5.25,0,0,1-.27.73s-2.58,1.6-2.51,2.5,1.6,1.87,2.74,1.67,4.35-1.39,5.8-1.39,5.42.17,7.26.24,3.78.07,3.78.07l3.26,4.48L289.5,153S284.33,148.56,282.25,147.65Zm-12.85,3.89a3.9,3.9,0,0,1-2.11.17l.28-.86s1.14-1.54,1.83-1.74a4.36,4.36,0,0,1,2.92.31A11.75,11.75,0,0,1,269.4,151.54Z"/><path class="cls-34" d="M264.76,152.2l-.16.1c.61-.11,2.69-.59,2.69-.59l.28-.86s1.14-1.54,1.83-1.74a4.36,4.36,0,0,1,2.92.31c.31-.31-1-1.66-1.35-2s-1.43-1.39-1.85-1.85-.41-1.07-.76-1.73-1.94-1.39-1.94-1.39h-.17s-3.75,1-5.35,1.64-4.68,2.67-4.61,3.33.9.93,1.87.8,3.68-1.6,4.27-1.67,2.81-.42,2.81-.42-2.36,1.74-3.19,2.5-2.85,3.5-2.16,4,1.64-.14,1.74-.14,4.16-3.33,4.16-3.33-.76,2.19-.76,2.29A5.25,5.25,0,0,1,264.76,152.2Z"/><polygon class="cls-37" points="284.08 148.21 280.71 158.05 295.54 176.53 306.13 164.72 284.08 148.21"/><path class="cls-43" d="M320.56,342.66s-7.83-1.25-10.7-.3-4.06,4.25-2.57,7.71,4.61,5.32,6,5.44,5.8,1.74,6.63,2.93,4.31,5.86,8,6.28,6.7-1.79,6.64-4a20.32,20.32,0,0,0-.66-3.42c-.81-3.09,0-8.07,0-8.07Z"/><path class="cls-43" d="M319.9,358.44c.84,1.2,4.31,5.86,8,6.28s6.7-1.79,6.64-4a15,15,0,0,0-.45-2.55,5,5,0,0,1-3.32,2.19c-3.46.84-3.76,1.62-6.51,0s-4-4.3-6-4.9c-1.69-.5-8.8-1.62-11.49-7.72a7.72,7.72,0,0,0,.61,2.34c1.5,3.47,4.61,5.32,6,5.44S319.07,357.25,319.9,358.44Z"/><path class="cls-43" d="M275.64,347.92s-4.84.48-6.82.42-8.79.54-10.16,2.87-2,5.8,1.25,8.61a16.84,16.84,0,0,0,10.58,3.76c2.46-.18,6.16,1.08,8.31,1.92S289,368.43,291.24,368s1.74-6.58,1.46-10S275.64,347.92,275.64,347.92Z"/><path class="cls-43" d="M270.49,363.58c2.46-.18,6.16,1.08,8.31,1.92S289,368.43,291.24,368c1.13-.21,1.57-1.85,1.69-3.86-1,.11-2.42.28-3.72.45a20.32,20.32,0,0,1-9.33-1.49c-3.05-1.32-5.56-1.32-9.15-1.32-3.22,0-9.57-.44-13.17-7.24a6.07,6.07,0,0,0,2.35,5.27A16.84,16.84,0,0,0,270.49,363.58Z"/><path class="cls-38" d="M266.68,252.9a16.12,16.12,0,0,0-3.55,1C262,254.43,261,257,261,257s-3.55,4.56-3.87,5.64a21.72,21.72,0,0,0,0,4.56l1,2.22,2.72,2.73a18.14,18.14,0,0,0,2,2,22.44,22.44,0,0,0,3.92.38,13.69,13.69,0,0,1,2.79,0c.32.19,2-.63,1.71-.95a14.29,14.29,0,0,1-1.65-2.79c0-.38,4.25-6,3.17-11.34A8.46,8.46,0,0,0,266.68,252.9Z"/><path class="cls-34" d="M269.53,270.77v0a3.43,3.43,0,0,0-1.4.28,20.48,20.48,0,0,1-3.21-.64s-4.58-2.6-4.58-3.17-1.46-1.64-2.22-2.47c-.38-.41-.46-1.85-.4-3.23a5.93,5.93,0,0,0-.62,1.14,21.72,21.72,0,0,0,0,4.56l1,2.22,2.72,2.73a18.14,18.14,0,0,0,2,2,22.44,22.44,0,0,0,3.92.38,13.69,13.69,0,0,1,2.79,0c.32.19,2-.63,1.71-.95A14.29,14.29,0,0,1,269.53,270.77Z"/><path class="cls-33" d="M306.13,261.52s1.23,15,2.14,21.75,5.81,14.33,7.13,19,2.9,22.87,2.73,29.74a41.68,41.68,0,0,1-2.07,12.09,9.28,9.28,0,0,0,4.8,9.86c6.21,3.39,13.06.63,13.06.63s1.11-30,1.08-38.82c0-7.63-2.13-11.59-3.62-16.39s-1.24-14.91-1.24-22.45.75-20.37.75-20.37,2.33-11.62,1.58-15-19.89.84-19.89.84Z"/><path class="cls-35" d="M283.72,250.67a173.56,173.56,0,0,0-4.5,22.8c-1.23,10.88,1.63,23.8,1.63,30.06s-1.31,30.84-3.13,36.89-3.48,8.36-3.48,8.36,1.9,11,18.46,9.94c0,0,2.9-19.13,3.65-23.27s3.81-13.67,3.06-22.28-1.32-16.4-.33-19.71,8.78-26.59,8.78-26.59,10.19-8.22,10.27-16.2Z"/><path class="cls-33" d="M283.72,250.67a173.56,173.56,0,0,0-4.5,22.8c-1.23,10.88,1.63,23.8,1.63,30.06s-1.31,30.84-3.13,36.89-3.48,8.36-3.48,8.36a11.9,11.9,0,0,0,5.44,7.33c3.65-12.18,5.43-35.45,5.51-38.16.09-3.19,2.54-8.26,2.54-11.26s-1.32-18.39-1.32-33,7.13-20.76,7.13-20.76l.93-2.23Z"/><path class="cls-36" d="M326.9,159.19s2.39,2.1-5.47,4.08A63.43,63.43,0,0,1,306,165s-8.79,7.06-11.65,10.84-4.6,22.59-4.49,27.8-1.54,32.2-2,33.12-4.8,16.05-4.8,16.05A36.45,36.45,0,0,0,304,257.92c12.47-.61,30.16-13.18,30.25-14.66s-1.83-11.92-2.45-15.29-1.94-15.33-.81-18.09,12.06-24.33,13.59-31.69,1.23-14.31-5.72-16.76A34.75,34.75,0,0,0,326.9,159.19Z"/><path class="cls-37" d="M301,190.89s-5.19,6.6-11.15,14.21c-.13,7.53-1.56,30.81-1.94,31.66s-4.8,16.05-4.8,16.05a34.58,34.58,0,0,0,13,4.68c.36-4,1.06-10.68,2.09-14.23,1.54-5.32,7-22,7.88-29.76S301,190.89,301,190.89Z"/><path class="cls-38" d="M306.85,163.27c.35-1.1.85-7.75-.4-8.9s-4.35-1.15-5.5-3.65a39.06,39.06,0,0,1-2.55-8.54c0-1.15,1.25-3.2.35-5s-.3-5.75.76-8.4,3.09-7.79,10.74-8.19,14.24,1.9,17.19,7.64,2.75,10.25,1.2,14.65-3.95,7.74-4.05,10.14a10.39,10.39,0,0,0,3.5,7.4s.3,3.2-6.9,5.89-15.84,0-15.84,0Z"/><path class="cls-34" d="M301,150.79a4,4,0,0,0,3.75-1c.16.5.38.82.69.82.92,0,1.53-2.85,1.43-5a15.6,15.6,0,0,1,3.21-3.64l4.37,2.61s-2.62,13.78-.44,23a31.81,31.81,0,0,1-8.65-1.2l1.5-3c.35-1.1.85-7.75-.4-8.9S302.17,153.22,301,150.79Z"/><path class="cls-44" d="M305.58,119.19c4.67-1.9,14.86-2.6,20.31,3s6.18,14.9,2.32,21.84h0c-1.52,3.81-3.49,6.76-3.6,8.94a9.65,9.65,0,0,1-3.35,1c-4.31.65-7.35,0-9.3-2s-2.65-7-4.1-8.34-3.9-.75-4.55-.75-1.1-1.15-1.15-1.6.3-4.15-.55-5.3a5.14,5.14,0,0,1-1-3.55,11,11,0,0,0,.35-2.95,17.8,17.8,0,0,0-.5-3,2.64,2.64,0,0,1-1-2C299.38,122.59,300.92,121.09,305.58,119.19Z"/><path class="cls-45" d="M328.64,142.88c-1.54,4.37-3.92,7.71-4,10.1a9.65,9.65,0,0,1-3.35,1c-4.31.65-7.35,0-9.3-2s-2.65-7-4.1-8.34-3.9-.75-4.55-.75-1.1-1.15-1.15-1.6a22.8,22.8,0,0,0-.18-4.39c2.33,1.25,9.54,4.84,16.94,5.55a29.78,29.78,0,0,0,10-.56C328.86,142.25,328.75,142.56,328.64,142.88Z"/><path class="cls-36" d="M265.65,253.09s.28,6.67,8.94,7.73c0,0,15.73-19.65,19.07-24.32s8.44-20.78,9.71-26.24,1.85-19.57.85-23.4-6-16.19-9.6-12.4c-5.72,5.94-7.49,11.83-8.27,21.19s-1.42,15.81-2.34,20.42-3.26,11.84-3.26,11.84Z"/><path class="cls-37" d="M323.79,163.78A30.21,30.21,0,0,1,313.35,166c-4.32.32-9.52-.77-12.49,4-1.4,2.26,6.7,20.09,27.48,15.41,10.3-2.32,11.12-12.15,9.16-17.44s-9.34-7.55-10.38-6.52C325.07,163.56,324.79,163.39,323.79,163.78Z"/><path class="cls-36" d="M323.79,161.24a30,30,0,0,1-10.44,2.24c-4.32.32-9.52-.77-12.49,4-1.4,2.26,6.7,20.09,27.48,15.41,10.3-2.32,11.12-12.14,9.16-17.43s-9.34-7.56-10.38-6.52C325.07,161,324.79,160.86,323.79,161.24Z"/><path class="cls-37" d="M306.13,168.08a19.22,19.22,0,0,0,18.25,6.85c12.14-1.79,7-12.66,7-12.66s3,9.64-7.08,11.47C316.83,175.1,306.13,168.08,306.13,168.08Z"/><path class="cls-46" d="M92,577.78c3.59,2.07,6,5.85,13.2,9.49,4.17,2.1,14.27,3.79,13.87-.84a3.69,3.69,0,0,0-.14-.77,6.06,6.06,0,0,1,.61,2c.39,4.62-9.7,2.94-13.88.83-7.18-3.64-9.61-7.41-13.19-9.49-.45-.26-1-.54-1.55-.83v1.12l-7.17-3.36a7.87,7.87,0,0,1-.41-2.57C84.28,574.17,89.48,576.3,92,577.78Z"/><path class="cls-46" d="M100.58,566.38a17.81,17.81,0,0,0,2.5,5,12.49,12.49,0,0,0,3.31,2.69c4.15,1.86,12.35,8.08,12.7,12.32.4,4.63-9.7,2.94-13.87.84-7.19-3.64-9.61-7.42-13.2-9.49-2.72-1.59-8.54-3.93-8.79-4.58a10,10,0,0,1,.13-4.81C94.48,575.12,97,567.12,100.58,566.38Z"/><path class="cls-46" d="M76.4,583.57c-.26,2.74,2.55,6.71,2.78,7,1.45,1.86,13.16,14.51,7.17,17.6S70.28,606,68.16,601.47s-1.75-7.54-4.44-10.22c-1.59-1.59-3.5-3.71-4.1-6.35a7.14,7.14,0,0,1,.61-4.12c.33-.69,3.47,5.71,6.65,6.17C69.68,587.36,74.32,584.51,76.4,583.57Z"/><path class="cls-46" d="M63.72,591.25c2.69,2.68,2.33,5.73,4.44,10.22s12.19,9.82,18.19,6.72a2.91,2.91,0,0,0,1.57-1.86,3,3,0,0,1-1.53,2.79c-5.67,2.93-16-2-18-6.28s-1.68-7-4-9.49l-.07.81a20,20,0,0,1-4.38-5.38l.13-2.66A15.79,15.79,0,0,0,63.72,591.25Z"/><path class="cls-47" d="M87.81,474.16l0-16.63s14.93,1.93,21.13-5.88c0,0,3.79,36.38,1.49,51.55s-5.3,38.67-6,45.33-2.42,17.88.76,24.16c0,0-13.49,4.52-21.76-1.89l2.2-30.53Z"/><path class="cls-48" d="M96.41,458.37s-.77,18.39-2.18,23.61a79.18,79.18,0,0,0-1.89,10c-1.37,10.37-3,27.95-3.53,32.29-1,8.54-4.28,25.13-5.17,30.93s-3.87,35.17-3.87,35.17S65.61,590,59.38,582c0,0,1.91-26,3-34.41s3.42-9.43,3.95-15.31c.51-5.59-2.92-28.72-2.82-43.06s5.41-33.94,5.41-33.94S71.73,461.86,96.41,458.37Z"/><path class="cls-49" d="M96.41,386.94s8.15,23.72,8,33.43,2.5,33.26,2.5,33.26-1.91,3.71-9.6,5.09a38.89,38.89,0,0,1-12.76.45s-10-43.58-12.35-49.8S73.58,386,73.58,386s8.47,7.7,15.37,5S96.41,386.94,96.41,386.94Z"/><path class="cls-50" d="M85.59,395s1.13-3.88,3.36-4.73,4.73,2.62,4.73,2.62a17.58,17.58,0,0,1-.72,5.25c1.46,2.4,3.54,8,4.7,16.82S103,450.58,103,450.58l-4.55,6.08L94.58,453s-.5-20.08-1.41-30.64c-.8-9.13-2-18.12-2.32-23.32C88.77,398.11,85.59,395,85.59,395Z"/><path class="cls-34" d="M73.38,371l19.73,8.41s.81,10.23-3.91,11.54-17-10.55-17-10.55C74.32,378,73.38,371,73.38,371Z"/><path class="cls-51" d="M91.69,380.09h1.2c3.57,6.8,1.88,16,1.88,16L89,390.26C93.7,387.1,91.69,380.09,91.69,380.09Z"/><path class="cls-51" d="M72.16,379.23s2.15,6.75,16.79,11l-2.38,8.05S74.79,391,69,382.52Z"/><path class="cls-35" d="M99.08,379.42c2.26,1.41,9.18,16.17,9.94,22.85s-.76,28.08-.46,35.67,6.53,36.85,6.53,36.85c-4.25,12.44-7.44,4-7.8,2.07-2.9-15.53-4.19-49.39-6.32-65.64S90.8,380.75,90.8,380.75l2.49-2.69Z"/><path class="cls-32" d="M90.8,380.75l3.75-1.33,8.32,13.26-2.45,3.4s4.4.76,5,1,.89,14,.25,22.61c-.37,4.8-1.43,11.5-2.29,16.48-.78-9.35-1.53-18.31-2.39-24.91C98.84,395,90.8,380.75,90.8,380.75Z"/><path class="cls-35" d="M70.71,380.75S77,392.4,80.84,398.31s9.82,23.13,10.42,34.06c.62,11.16.26,50-1.63,54.23s-31.18-5.19-31.18-5.19,2.93-21.7,5-30.59-3.17-27.36-6.26-32.25-6.58-19.15-3.42-22.49S69.48,381.25,70.71,380.75Z"/><path class="cls-32" d="M66.56,383.82l4.15-3.07S77,392.4,80.84,398.31s9.82,23.13,10.42,34.06c.13,2.23.11,5.44,0,9.2-1.31-4.48-3.77-10.45-4.67-13-3.39-9.64-12.44-19.89-11.74-21.1S79,403.35,79,403.35l-4.75.51S68.72,391.19,66.56,383.82Z"/><path class="cls-52" d="M72.91,365.91s-1.7-2.1-3.46-1.18-1.22,2.64-.3,4.22,4.21,5.06,5.41,4S72.91,365.91,72.91,365.91Z"/><path class="cls-38" d="M90.18,346.36c2.89,1.65,5.4,6.21,6.59,9.31a13.2,13.2,0,0,1,1.15,5.7c-.08.77-1.19,1.94-.7,2.92s.45,3.89.18,5.77-1.24,4.5-1.36,6.18.52,5.89-3.74,6.6-14.14-3-17.51-8-7.27-9.15-7.78-15.25,1.59-11.43,6.7-14.81S85.48,343.66,90.18,346.36Z"/><path class="cls-34" d="M94.39,374.24c-.07-.2,1.52,0,2.17-.64h0a17,17,0,0,0-.53,2.65c-.11,1.51.39,5.05-2.57,6.28C92.77,379.88,94.45,374.41,94.39,374.24Z"/><path class="cls-34" d="M97.4,370.06c-.14.89-.42,2-.7,3,0-1.17-1.34-3.73-2-5.78-.81-2.45.15-2.83,1.26-3.72a18.63,18.63,0,0,0,2-2.06c-.17.76-1.14,1.85-.68,2.78S97.67,368.18,97.4,370.06Z"/><path class="cls-44" d="M86.26,341.76c7.5,1.36,11.27,7.39,11.4,9.6A2.31,2.31,0,0,1,96,354a4.09,4.09,0,0,1-2.5,2.94c-2.57.73-10.09-.84-11.54,1.19s-1.42,3.56-2.61,4.41-3,5.89-3,6.32-4-4-7.7-3.34a16.71,16.71,0,0,1-1.76-7.63C64.84,342.77,78.76,340.41,86.26,341.76Z"/><path class="cls-45" d="M68.7,365.48a16.71,16.71,0,0,1-1.76-7.63c3.77,2.8,10.48,3.7,13.1,4a2.66,2.66,0,0,1-.65.69c-1.19.85-3,5.89-3,6.32S72.39,364.83,68.7,365.48Z"/><path class="cls-38" d="M78.59,440.38s5.06.43,7.4-.48,8.58-2.18,11.83-1,8.09,3.55,10,5.75c2.06,2.38,1.12,3.62-.21,3.62,0,0,2.11,1.41.89,2.78-.6.68-2.87,0-2.87,0s1.33,1.27,0,2a4.36,4.36,0,0,1-3.09.17s-.13,1.11-.71,1.38c-1.26.59-4.32-.62-6.31-1.38a33.75,33.75,0,0,0-7.77-1.18c-1.84-.11-5.59-2.31-7.52-2.67a36.17,36.17,0,0,0-6.67.11Z"/><path class="cls-34" d="M75.11,446.74c3.88-.21,10.79,2.6,12.93,3.75,2.4,1.28,7.66,1.74,8,1.07s3-.95,3.38-1.12.22-2.07,0-2.44.76-.66,1.71-.55.35-2.47.35-3.42.94.28,1.81.74,4.14,3.54,4.31,3.54c0,0,2.11,1.41.89,2.78-.6.68-2.87,0-2.87,0s1.33,1.27,0,2a4.36,4.36,0,0,1-3.09.17s-.13,1.11-.71,1.38c-1.26.59-4.32-.62-6.31-1.38a33.75,33.75,0,0,0-7.77-1.18c-1.84-.11-5.59-2.31-7.52-2.67a36.17,36.17,0,0,0-6.67.11Z"/><path class="cls-53" d="M82,440.17h2.24s-3,6.13-1.32,11.93H79.33a16.94,16.94,0,0,1-.38-6.34A7.22,7.22,0,0,1,82,440.17Z"/><path class="cls-32" d="M82.92,439.73s-4,8-1.38,13.89c0,0-26.47.13-33.2-1.58-2.88-.72-5.56-1.22-6.83-2.79-1.69-2.11-1.44-5.58-1.22-8.67.37-5.4,4.5-23.68,6.87-30.88s4.39-17,13.32-15,7.09,17.4,4.15,23.93-9,19.8-9,19.8Z"/><path class="cls-38" d="M157.48,405l7.08-2.44s1.07-5.26,1.42-6.08,5.6-3.15,6.17-3.51,2.34-.54,2.58.42c0,0,3.09-1.8,5.26-3s5.56-2.79,6.36-1.44.07,1.74-1.77,2.92-6.4,4-6.4,4l.9.33s3.79-2,4.63-2a1.93,1.93,0,0,1,1.71,1.84,5.77,5.77,0,0,1-.35,2.52s1.53.39,1.35,1.68a3.79,3.79,0,0,1-1.27,2.37,6.63,6.63,0,0,1-2.07.9,3.71,3.71,0,0,0,1.33.45c.5,0,2.09.64,1.74,1.69s-1,1.77-3,1.77A11.3,11.3,0,0,0,177.4,409c-1.14.87-5,1.2-6.79,1.17a17.09,17.09,0,0,0-6.52,1.81c-2,1-3.57,1.8-3.57,1.8Z"/><path class="cls-34" d="M170.22,398.58s-1.83.66-2.07,1.65.93,2.4.81,3.72a3,3,0,0,0,1.21,2.32c-.55.9.59,3.12,2.3,3.09a8.73,8.73,0,0,0,3.12-.92,6.29,6.29,0,0,0-.23-3.52c-.72-1-1.86-.21-.45-1.81s2.74-2.85,2.55-4.69a3,3,0,0,1,.72-2.58l.9.33s1.7-.9,3.08-1.49c.19.32.48.92.14,1.32-.48.56-2.17,1.8-1.74,3a2.87,2.87,0,0,0,.92,1.53s-2.12,1-1.25,2.16,2.85.78,2.85.78a5.38,5.38,0,0,0,.8.35c-.82.22-2.28.7-2.61,1.43-.44,1-.41,2,.15,2.29h0a10.17,10.17,0,0,0-4,1.46c-1.14.87-5,1.2-6.79,1.17a17.09,17.09,0,0,0-6.52,1.81c-2,1-3.57,1.8-3.57,1.8l-.69-2c2.3-1.72,5.51-5.61,5.44-6.32a29.19,29.19,0,0,0-.71-2.94s.38-1.84.75-3.51c.69-.26,1.9-.71,2.93-1.15a1.08,1.08,0,0,0,.48-1.83s2.58.78,2.68.78c.75,0,3.43-1.77,3.43-1.77a33.44,33.44,0,0,0-3,2.29A8.86,8.86,0,0,1,170.22,398.58Z"/><polygon class="cls-53" points="161.92 402.98 164.05 402.2 167.06 413.32 164.14 414.32 161.92 402.98"/><path class="cls-35" d="M109,402.27c-.74-6.46-7.24-20.5-9.71-22.67h0a19.83,19.83,0,0,1,9.28,5.5c2.24,2.41,16.26,17.56,18.84,19.73s7.1,5.53,7.1,5.53,5.91-1.85,11.88-3.3,15.82-4.56,15.82-4.56l4,13.72s-21.55,7.7-27.45,9.92-9.67.83-13.92-2.75c-3.18-2.68-11.57-9.5-15.61-12.79A76.13,76.13,0,0,0,109,402.27Z"/><path class="cls-33" d="M109,402.27c-.38-3.27-2.23-8.47-4.28-13.1a21.14,21.14,0,0,1,4.3,4.39c3.77,5.3,8.11,12.7,12,18.09,3.62,5,10.81,9.73,12,15.1-3,.05-5.52-1.08-8.23-3.36-3.18-2.68-11.57-9.5-15.61-12.79A76.13,76.13,0,0,0,109,402.27Z"/><path class="cls-54" d="M538.2,312.71s3.07,3.26,2.09,5.9-4.18,2.23-5.79.89S526,310,524.66,307.34a16.78,16.78,0,0,1-1.5-6.2s-3.26,1.43-3.56,3.93a7.44,7.44,0,0,0,3.33,6.55l1.62,6.29.7.33.33-.74-.37-4.42s4.26,2.93,5,4.44,1.91,6.39,5.25,7.69,15.57.06,16.22-1.21-4.16-5.07-5.45-6.14A72.33,72.33,0,0,0,538.2,312.71Z"/><path class="cls-54" d="M506.43,337.87S507,340,504,340.05s-7.18,0-8.41-4.78a58.68,58.68,0,0,1-1.48-14,7.44,7.44,0,0,1,1.07-3.81l-.15-1.26a6.37,6.37,0,0,0-3.13,4.67c-.42,3.3.73,7.3,1.3,10.22s.85,11.55,2.17,13.79,11.37,5.94,12.93,5.81S509.33,341.37,506.43,337.87Z"/><path class="cls-38" d="M510.55,222.06c1.25-5.47,20.21-11.4,20.21-11.4s4.42,11.23,5.18,19.88-1.68,26.8-2.19,32.66,0,12.14-.24,16.27,0,21.11.61,23.42,3.11,9.07,4.08,9.82c0,0,3.07,3.26,2.09,5.9s-4.18,2.23-5.79.89S526,310,524.66,307.34a16.6,16.6,0,0,1-1.5-6.16,1.24,1.24,0,0,0,1-.95c.47-1.52-2.7-11.4-5.95-19.56s.17-13.18.84-15.46-1.08-7.91-3.44-13.92S509.29,227.54,510.55,222.06Z"/><path class="cls-38" d="M486.54,221.08c-.05-4.63,5.58-5.05,11.32-4.63s13.88,5.6,13.8,12.88-1.63,41.48-2.23,45.13-3.91,9.8-4.57,12.51-1.56,19.65-1.73,25.32a124.46,124.46,0,0,0,1.36,19.12,19.84,19.84,0,0,0,1.94,6.46S507,340,504,340.05s-7.18,0-8.41-4.78a58.68,58.68,0,0,1-1.48-14,7.44,7.44,0,0,1,1.07-3.81l-.15-1.26c.59-1.26-2.05-11.14-4-17.43s-1.69-13.43,1.08-18.18,3.28-8,1-17.05S486.59,225.71,486.54,221.08Z"/><path class="cls-34" d="M492.08,280.58c2.76-4.75,3.28-8,1-17.05s-6.51-37.82-6.56-42.45c0-3.33,2.86-4.48,6.62-4.71a57.63,57.63,0,0,0-1.86,15.47c.55,10.13,5.73,34.9,6.13,41.76s-5,10.9-5.34,18.36,4.23,22.94,4.31,25.46c.05,1.32-1.14,4.43-2.29,7.12-.06-1.36-.07-2.51,0-3.28a7.44,7.44,0,0,1,1.07-3.81l-.15-1.26c.59-1.26-2.05-11.14-4-17.43S489.31,285.33,492.08,280.58Z"/><path class="cls-34" d="M523.16,301.18a1.24,1.24,0,0,0,1-.95c.47-1.52-2.7-11.4-5.95-19.56s.17-13.18.84-15.46-1.08-7.91-3.44-13.92-6.33-23.75-5.07-29.23c.62-2.68,5.47-5.47,10.27-7.62,4.17,15.34,4.32,44.59,3.42,48.92-1.1,5.31-.94,16.68,1.64,24.07s1,13.1,1.12,15.63.72,2.35,2.78,7.5a11.46,11.46,0,0,1,.8,4.65,66,66,0,0,1-5.92-7.87A16.6,16.6,0,0,1,523.16,301.18Z"/><path class="cls-55" d="M533,215s4.66,9.23,3.45,24.25c-.61,7.36-.6,11.42-1.4,13.83-.11.35-2.53,2.08-5.8,3.35-6.21,2.43-26.9,9.57-31.39,9.14s-5.39-2.05-5.39-2.05-4-23.45-5.22-29.58-1.16-13.33-.14-16.11,14.8-5.32,14.8-5.32S528.31,200.84,533,215Z"/><path class="cls-54" d="M501.9,212.52S528.31,200.84,533,215a24.32,24.32,0,0,1,1.2,3,26.33,26.33,0,0,1-10.87,4.75c-10,2.06-25.89,2.15-28,5.89-1.86,3.38,2.55,24.89,3.33,36.89a6,6,0,0,1-.85,0c-4.49-.43-5.39-2.05-5.39-2.05s-4-23.45-5.22-29.58-1.16-13.33-.14-16.11S501.9,212.52,501.9,212.52Z"/><path class="cls-41" d="M487.61,154a41.32,41.32,0,0,1,.4-4.8c.42-3.43,2.13-7.6,3.07-10.5s1.37-8.34,1.54-10.43,9.59-10.57,9.59-10.57L520.13,119a7.57,7.57,0,0,1,.17,4.5c-.59,3-5.4,23.86-4,26.55S487.61,154,487.61,154Z"/><path class="cls-34" d="M497.73,131.84s1.3,4.22.39,7.37,3.25,12.51,8.81,18.5,15.05,8.65,15.74,5.49-7.62-24.15-7.62-24.15Z"/><path class="cls-34" d="M497.73,131.84l17.32,7.21s.72,1.83,1.73,4.49a11.48,11.48,0,0,1-5.39-.45c-3.56-1.34-8.86-4.41-9.77-3.38a2.9,2.9,0,0,0-.18,3.51c.66.92,4.82,6.09,8.3,8.06l8.9,8.85L515,148.21s.8-3.12.82-3.67c0-.21.57-.32,1.25-.37,2.41,6.43,6.12,16.87,5.65,19-.69,3.16-10.19.5-15.74-5.49s-9.72-15.35-8.81-18.5S497.73,131.84,497.73,131.84Z"/><path class="cls-33" d="M521.73,142l2.11-1.75a12.3,12.3,0,0,1,6.71,7.41c1.57,5.37,5.51,19.37,7.09,22.37s6.65,11.48,6.65,11.48l-6.12,3.43Z"/><path class="cls-35" d="M518.47,214.82s-1.08,7.9-7,8.67c-21.47,2.77-25.71-1.15-25.71-1.15a24.64,24.64,0,0,1,4.17-13.1c2.91-4.39,6.7-11.81,6.78-13.5s11.54.72,11.54.72l19.36-3.94s3.21,9.22,3.51,11.08,3.77,11.54,3.77,11.54-4.46,3.46-7.06,4.18C526.09,219.79,520.37,223.5,518.47,214.82Z"/><path class="cls-33" d="M496.69,195.74c.08-1.68,11.54.72,11.54.72l19.36-3.94s3.21,9.22,3.51,11.08,3.77,11.54,3.77,11.54-4.46,3.46-7.06,4.18c-1.72.47-7.44,4.18-9.34-4.5,0,0,0,.3-.11.79L517,203.39s-10,6-14.67,6.61c-4.29.54-12.22,6.93-13.61,13.7a8,8,0,0,1-3-1.36,24.64,24.64,0,0,1,4.17-13.1C492.82,204.85,496.61,197.43,496.69,195.74Z"/><path class="cls-35" d="M500.24,150s16.3,12.65,23.52,33.13c0,0,7.85-17.6-7-36.18l-1.7-7.55,8.81.83s1.68,8,3.06,12.44,8.64,14.72,8.89,20.82-8.25,20-8.25,20l-23.76,6.91-14.4-36.54L484.76,156l11.47-13.7Z"/><path class="cls-49" d="M515.61,148.14l.82-2.53.3,1.35c14.88,18.58,7,36.18,7,36.18-5.75-16.31-17.26-27.65-21.7-31.59,2.22-.39,5.87-.81,7.26.18,2.05,1.46,10.56,10.4,10.56,10.4Z"/><path class="cls-56" d="M516.73,147l-1.7-7.55,2.12.1,5,7.32L520,149.3l4.24,1.32a41.61,41.61,0,0,1,4.54,16.1c.48,8.83-5,16.42-5,16.42S531.61,165.54,516.73,147Z"/><path class="cls-33" d="M532.69,183.83a108,108,0,0,1-5.15,9.69l-23.76,6.91-11.94-30.29,6.52-3.8a17.63,17.63,0,0,1,4.61,8.12c1.36,5.21,2.94,9,9.38,10s18.91-2.82,18.91-2.82S531.83,182.51,532.69,183.83Z"/><path class="cls-33" d="M529.07,192.59s13.28.37,15.54-1.25.56-9,.13-9.81a23.74,23.74,0,0,0-2.24-2.83Z"/><path class="cls-35" d="M529.18,182.51s4,5.13,4,10.28c0,0-10.57,5.45-17.9,10.06S502,211,498.89,207.62s-9.08-22.08-11-28.93-6.48-19.09-3.13-22.65,11.21-1.15,13.75,9.54,7.6,28.61,7.6,28.61Z"/><path class="cls-56" d="M494.79,144.27l1.44-1.93,4,7.67s16.3,12.65,23.52,33.13c0,0-8-10.7-15.17-16.64a67.28,67.28,0,0,1-7.7-7.2l1.54-4-3.66.68Z"/><path class="cls-57" d="M505.19,187.08a11.69,11.69,0,0,0-1.51,2.06,8.45,8.45,0,0,0-.39,4c.12,1.56-.09,2.3,1.45,3a16.73,16.73,0,0,0,2.59,1c.8.23,3.24.14,3.64-1.15a21.11,21.11,0,0,1,.73-2l4.35-4.75,1.1-.55-1.3-2.8Z"/><path class="cls-58" d="M504.13,188.4c.73.54,1.26,2.07,1.81,2.56.88.78,1.23.58,2.3,1.11a7.26,7.26,0,0,0,2.72.76,27.56,27.56,0,0,0,4-3.12,9.76,9.76,0,0,1,2.06-1.35h0l.12.25-1.1.55-4.35,4.75a21.11,21.11,0,0,0-.73,2c-.4,1.29-2.84,1.38-3.64,1.15a16.73,16.73,0,0,1-2.59-1c-1.54-.7-1.33-1.44-1.45-3a8.45,8.45,0,0,1,.39-4A7.73,7.73,0,0,1,504.13,188.4Z"/><path class="cls-59" d="M516.05,189.16c-.48-1.38-1.25-3.4-1.25-3.4l1.37-.2,1.56,2.75Z"/><path class="cls-43" d="M516.65,188.86c-.57-1.87-1.24-3.49-1.24-3.49l12.26-2.09Z"/><path class="cls-57" d="M529.74,182a2.12,2.12,0,0,1,.38-2.85c1.48-1.33,5.31-5.19,6.82-5.21s4.55,2.79,5.46,4.32.8,4.55-.42,4.64l-1.57.22a42.76,42.76,0,0,1-6.48,5C533.46,186.89,532,183.53,529.74,182Z"/><path class="cls-58" d="M533.42,187l1.11-.7c2.85-1.75,3-2.42,5.18-4.45,1.16-1.08,2-2.56,2.77-3.38.84,1.56.68,4.43-.5,4.51l-1.57.22a42.76,42.76,0,0,1-6.48,5C533.82,187.85,533.65,187.43,533.42,187Z"/><path class="cls-59" d="M529.8,183.38a6.23,6.23,0,0,0-.57-.83l.51-.52c2.82,1.86,4.37,6.62,4.37,6.62l-1.35,1.09A21.32,21.32,0,0,0,529.8,183.38Z"/><path class="cls-51" d="M512.61,139.29s2.69,5.24,3,8.85c0,0,8.44,4.82,8.51,4.37s-8.52-13.25-8.52-13.25Z"/><path class="cls-51" d="M498.18,138.42s3.74,8.63,11.14,13.31c0,0-4.69,8.28-5.37,8.34s-8.39-14.45-8.94-18.2Z"/><path class="cls-38" d="M520.79,133c.2-.67,1-4.78-.45-6.82l-.24-.82a3.64,3.64,0,0,0,.28-2.82c-.41-1.84-2-7-5.62-10.07s-10.68-6.2-17.29-1.47-4,12.17-3.29,14.87,3.93,7.37,6.72,10.08,7.26,5.54,11.21,6.27,6.3.17,7.18-3.74C519.78,137,520.34,134.52,520.79,133Z"/><path class="cls-34" d="M518.49,135.08a3.52,3.52,0,0,0,1.56-1c.47-.67-.8-2.36-1.28-3.17a9.78,9.78,0,0,1-1.38-3.6c-.11-1.06,2.19-2.86,3.12-3.54a3,3,0,0,1-.41,1.6l.24.82c1.44,2,.65,6.15.45,6.82-.45,1.52-1,4-1.5,5.48A4.78,4.78,0,0,1,517,142C518.24,139.59,518.49,135.08,518.49,135.08Z"/><path class="cls-38" d="M497.47,111c5.27-3.78,10.84-2.59,14.71-.36l4.12,8,.21,2.47s-5.09.09-6.95,2.45-3.84,4.48-4.79,6.06-1.64,3.83.56,6.78a34.84,34.84,0,0,0,5.3,5.46,25.89,25.89,0,0,1-9.73-5.9c-2.79-2.71-6-7.37-6.72-10.08S490.86,115.72,497.47,111Z"/><path class="cls-40" d="M499.32,129c-1.84-.62-2.72-.71-3.05-.55h0l-.47.52s-.87-.17-.72,4.2a9.23,9.23,0,0,1-2.53,7,26,26,0,0,0,1-7.25,39.19,39.19,0,0,1-1.91,5.68,32.14,32.14,0,0,0-2.72,6.68c-.42,2-.89,3.91-.89,3.91a37.56,37.56,0,0,1,.95-7.46c.57-2.33,3.29-7.74,3-11.09-.58-5.62-2.54-12.86,3.11-19.26,3.63-4.11,10.1-5.68,16.1-3.4,6.24,2.38,7.89,6.38,9,11,0,0-1.61-.46-3.78,2a9.3,9.3,0,0,0-6,1.23C507.07,124,505.55,131.08,499.32,129Z"/><path class="cls-41" d="M498.12,128.65a1,1,0,0,1,.31,0c2,.2,3.9.24,5.9-2.17s4.33-6.45,7.7-7,4.45,1.36,4.45,1.36h0s-.09.09-.13.15a9.3,9.3,0,0,0-6,1.23c-3.31,1.81-4.83,8.86-11.06,6.79C498.86,128.86,498.47,128.73,498.12,128.65Z"/><path class="cls-41" d="M505.9,121.8a26,26,0,0,1-2.71,3.85,7.29,7.29,0,0,1-5.82,2.54l-1.28-.58s5.05-1.16,6.42-2.22A29.1,29.1,0,0,0,505.9,121.8Z"/><path class="cls-41" d="M510.93,111.26a17.23,17.23,0,0,0-8.2-4.07,15.75,15.75,0,0,1,8.39.8c6.24,2.38,7.89,6.38,9,11,0,0-1.56-.44-3.69,1.94C516.07,119.67,514.24,114.12,510.93,111.26Z"/><path class="cls-38" d="M501.39,133c.22.67,0,1.77-.71,1.9s-3.75-2.08-4.64-3.46-1.69-3.83.49-3.81S500.28,129.68,501.39,133Z"/><path class="cls-41" d="M497.8,111.37a12,12,0,0,0-1.7,1.81,15.85,15.85,0,0,0-2.58,4.9,16.17,16.17,0,0,0-.72,5.49,16.65,16.65,0,0,0,.29,2.46,21.48,21.48,0,0,1-.11-2.49,18.61,18.61,0,0,1,3.25-10.23A13.8,13.8,0,0,1,497.8,111.37Z"/><path class="cls-14" d="M646,94c0-6.19-4.39-8.72-9.76-5.63l-86,49.66c-5.37,3.1-9.75,10.7-9.75,16.89v218.9c0,6.19,4.39,8.72,9.75,5.63l86-49.66c5.37-3.1,9.76-10.7,9.76-16.89Z"/><path class="cls-14" d="M646,94c0-6.19-4.39-8.72-9.76-5.63l-86,49.66c-5.37,3.1-9.75,10.7-9.75,16.89v218.9c0,6.19,4.39,8.72,9.75,5.63l86-49.66c5.37-3.1,9.76-10.7,9.76-16.89Z"/><path class="cls-60" d="M646,94c0-6.19-4.39-8.72-9.76-5.63l-86,49.66c-5.37,3.1-9.75,10.7-9.75,16.89v218.9c0,6.19,4.39,8.72,9.75,5.63l86-49.66c5.37-3.1,9.76-10.7,9.76-16.89Z"/><path class="cls-16" d="M547,378.87a6.31,6.31,0,0,0,3.07-1l86-49.65c4.6-2.66,8.49-9.39,8.49-14.7V94.64c0-1.33-.29-4.42-2.89-4.42a6.31,6.31,0,0,0-3.06,1l-86,49.65c-4.6,2.66-8.48,9.39-8.48,14.7v218.9C544.15,375.78,544.44,378.87,547,378.87Z"/><path class="cls-14" d="M540.47,373.83V154.93c0-6.19,4.38-13.79,9.75-16.89l86-49.66c2.6-1.49,4.95-1.66,6.7-.75v0L633,82c-1.73-.8-4-.58-6.52.86l-86,49.66c-5.36,3.1-9.75,10.7-9.75,16.89v218.9c0,3.14,1.13,5.34,2.94,6.34l9.16,5.16C541.35,378.63,540.47,376.6,540.47,373.83Z"/><path class="cls-61" d="M540.47,373.83V154.93c0-6.19,4.38-13.79,9.75-16.89l86-49.66c2.6-1.49,4.95-1.66,6.7-.75v0L633,82c-1.73-.8-4-.58-6.52.86l-86,49.66c-5.36,3.1-9.75,10.7-9.75,16.89v218.9c0,3.14,1.13,5.34,2.94,6.34l9.16,5.16C541.35,378.63,540.47,376.6,540.47,373.83Z"/><path class="cls-27" d="M607.26,164.36a9.31,9.31,0,0,1-4.19,7.26l-9.41,5.43c-2.31,1.33-4.19.24-4.19-2.42V137.94a9.27,9.27,0,0,1,4.19-7.25l9.41-5.44c2.3-1.33,4.19-.24,4.19,2.42Z"/><path class="cls-27" d="M593.66,175.84c-1.73,1-3.14.19-3.14-1.81v-3a7,7,0,0,1,3.14-5.45l9.41-5.43c1.73-1,3.14-.19,3.14,1.82v3a7,7,0,0,1-3.14,5.45Z"/><path class="cls-27" d="M593.66,160.3c-1.73,1-3.14.19-3.14-1.81V137.34a7,7,0,0,1,3.14-5.45l9.41-5.43c1.73-1,3.14-.18,3.14,1.82v21.15a7,7,0,0,1-3.14,5.44Z"/><path class="cls-27" d="M603,134c0-3-2.08-4.16-4.65-2.68a10.27,10.27,0,0,0-4.64,8.05c0,3,2.08,4.16,4.64,2.68A10.27,10.27,0,0,0,603,134Z"/><path class="cls-27" d="M601.12,135.12c0-1.76-1.23-2.47-2.76-1.59a6.11,6.11,0,0,0-2.76,4.78c0,1.76,1.24,2.47,2.76,1.59A6.08,6.08,0,0,0,601.12,135.12Z"/><path class="cls-27" d="M601.12,148.37c0-1.76-1.23-2.48-2.76-1.6a6.15,6.15,0,0,0-2.76,4.79c0,1.76,1.24,2.47,2.76,1.59A6.08,6.08,0,0,0,601.12,148.37Z"/><path class="cls-27" d="M600.31,148.84c0-1.24-.87-1.75-1.95-1.13a4.34,4.34,0,0,0-1.94,3.38c0,1.24.87,1.74,1.94,1.12A4.29,4.29,0,0,0,600.31,148.84Z"/><path class="cls-14" d="M238.85,344.27c0-6.19-4.38-8.73-9.75-5.63l-86,49.66c-5.37,3.09-9.75,10.7-9.75,16.89v218.9c0,6.19,4.39,8.72,9.75,5.62l86-49.65c5.37-3.1,9.76-10.7,9.76-16.9Z"/><path class="cls-14" d="M238.85,344.27c0-6.19-4.38-8.73-9.75-5.63l-86,49.66c-5.37,3.09-9.75,10.7-9.75,16.89v218.9c0,6.19,4.39,8.72,9.75,5.62l86-49.65c5.37-3.1,9.76-10.7,9.76-16.9Z"/><path class="cls-60" d="M238.85,344.27c0-6.19-4.38-8.73-9.75-5.63l-86,49.66c-5.37,3.09-9.75,10.7-9.75,16.89v218.9c0,6.19,4.39,8.72,9.75,5.62l86-49.65c5.37-3.1,9.76-10.7,9.76-16.9Z"/><path class="cls-16" d="M139.9,629.12a6.39,6.39,0,0,0,3.07-1l86-49.66c4.6-2.65,8.49-9.38,8.49-14.69V344.9c0-1.33-.29-4.42-2.89-4.42a6.39,6.39,0,0,0-3.06,1l-86,49.66c-4.6,2.65-8.48,9.38-8.48,14.69v218.9C137,626,137.3,629.12,139.9,629.12Z"/><path class="cls-14" d="M133.34,624.09V405.19c0-6.19,4.38-13.8,9.75-16.89l86-49.66c2.6-1.5,5-1.67,6.7-.76h0l-10-5.66c-1.73-.8-4-.58-6.52.86l-86,49.66c-5.36,3.09-9.75,10.7-9.75,16.89V618.51c0,3.15,1.13,5.35,2.94,6.35l9.16,5.15C134.22,628.88,133.34,626.85,133.34,624.09Z"/><path class="cls-62" d="M133.34,624.09V405.19c0-6.19,4.38-13.8,9.75-16.89l86-49.66c2.6-1.5,5-1.67,6.7-.76h0l-10-5.66c-1.73-.8-4-.58-6.52.86l-86,49.66c-5.36,3.09-9.75,10.7-9.75,16.89V618.51c0,3.15,1.13,5.35,2.94,6.35l9.16,5.15C134.22,628.88,133.34,626.85,133.34,624.09Z"/><path class="cls-27" d="M200.13,414.62a9.3,9.3,0,0,1-4.19,7.25l-9.41,5.44c-2.31,1.33-4.19.24-4.19-2.42V388.2a9.29,9.29,0,0,1,4.19-7.26l9.41-5.43c2.3-1.33,4.19-.24,4.19,2.42Z"/><path class="cls-27" d="M186.53,426.1c-1.73,1-3.14.18-3.14-1.82v-3a7,7,0,0,1,3.14-5.44l9.41-5.43c1.73-1,3.14-.19,3.14,1.81v3a7,7,0,0,1-3.14,5.44Z"/><path class="cls-27" d="M186.53,410.56c-1.74,1-3.14.18-3.14-1.82V387.6a6.94,6.94,0,0,1,3.15-5.45l9.41-5.43c1.73-1,3.14-.19,3.14,1.81v21.15a7,7,0,0,1-3.14,5.45Z"/><path class="cls-27" d="M195.88,384.29c0-3-2.08-4.16-4.65-2.68a10.27,10.27,0,0,0-4.64,8c0,3,2.08,4.16,4.64,2.68A10.25,10.25,0,0,0,195.88,384.29Z"/><path class="cls-27" d="M194,385.38c0-1.76-1.23-2.48-2.76-1.6a6.11,6.11,0,0,0-2.76,4.78c0,1.77,1.24,2.48,2.76,1.6A6.08,6.08,0,0,0,194,385.38Z"/><path class="cls-27" d="M194,398.63c0-1.77-1.23-2.48-2.76-1.6a6.11,6.11,0,0,0-2.76,4.78c0,1.77,1.24,2.48,2.76,1.6A6.08,6.08,0,0,0,194,398.63Z"/><path class="cls-27" d="M193.18,399.1c0-1.25-.87-1.75-2-1.13a4.32,4.32,0,0,0-1.95,3.37c0,1.25.88,1.75,1.95,1.13A4.29,4.29,0,0,0,193.18,399.1Z"/></g></g></g></svg>